<svg width="366" height="367" xmlns="http://www.w3.org/2000/svg">

 <g>
  <title>Layer 1</title>
  <path id="svg_1" d="m234.9623,267.72803c-13.10699,10.60303 -33.44101,19.52802 -49.79102,23.80701c-78.90799,20.64801 -160.13749,-26.866 -180.38528,-105.944c-30.2307,-118.066 88.16229,-222.7385 202.8923,-172.8379c76.47301,33.26189 110.00499,124.51688 74.17198,199.3209c-3.80496,7.94299 -8.789,15.41 -13.32101,22.957c3.832,3.257 21.00705,19.888 23.78702,23.73102c-1.74301,2.78497 -11.60001,12.00699 -14.552,14.96198l-11.89099,11.866c-2.14902,2.13303 -4.27899,4.49802 -6.62399,6.405c-8.114,-8.08698 -15.93501,-16.41599 -24.287,-24.267zm-93.672,-234.33599c-63.39801,3.897 -111.619,58.47299 -107.676,121.868c3.942,63.39499 58.55399,111.57599 121.94599,107.58701c63.327,-3.98401 111.44798,-58.52701 107.50902,-121.85701c-3.93799,-63.33001 -58.446,-111.49001 -121.77901,-107.598z" fill="#FE672E"/>
  <path id="svg_2" d="m100.2233,97.09303c-2.45,0.19701 -4.875,0.14301 -7.32701,0l0,103.42101l-1.13399,0.01198c-20.26201,0.19101 -22.74701,-8.38197 -22.74101,-26.62798l0.01701,-13.45502c0.006,-8.47099 -0.16101,-16.96201 0,-25.42999c0.20399,-6.258 -0.07701,-12.546 0.017,-18.81001c0.31099,-20.73299 15.68399,-19.42099 31.168,-19.11z" fill="#FE672E"/>
  <path id="svg_3" d="m182.7323,135.01303c-0.05,-24.825 -3.53401,-38.54 25.70399,-37.92001l0,103.42101c-7.233,0.008 -15.23401,0.90701 -20.815,-4.72598c-7,-7.06403 -4.78999,-25.17902 -4.88899,-35.34503l-12.44701,0c4.05299,-0.33398 8.366,-0.01801 12.44701,0l0,-25.42999z" fill="#FE672E"/>
  <path id="svg_4" d="m208.43629,97.09303c29.59399,-0.01599 23.88699,14.61801 23.92801,37.92001c-0.263,8.44699 0.005,16.97501 0,25.42999l0.01797,14.16c0.07001,20.789 -2.26898,26.04401 -23.94598,25.91101l0,-103.42101z" fill="#8D3F4D"/>
  <path id="svg_5" d="m92.89629,97.09303c2.45201,0.14301 4.87701,0.19701 7.32701,0c14.522,0.57001 17.64099,8.96501 17.625,22.14401l-0.05301,10.36599c-0.011,1.70599 -0.22,3.73599 0.04201,5.41c0.05499,3.51401 -0.46901,23.528 0.127,25.189l0.89799,0.241l-0.741,0.13701c-0.95,1.73299 -0.28,14.62399 -0.26199,17.09001c0.14999,21.26001 -7.16301,22.84399 -24.96301,22.84399l0,-103.42101z" fill="#8D3F4D"/>
  <path id="svg_6" d="m232.3643,135.01303c17.26999,-0.96201 18.332,24.90201 0,25.42999c0.005,-8.45499 -0.263,-16.983 0,-25.42999z" fill-opacity="0.59608" fill="#19100C"/>
  <path id="svg_7" d="m69.0383,160.44302c-13.53201,-0.88699 -22.26101,-11.89398 -12.47,-21.952c3.554,-3.651 7.79199,-3.50198 12.47,-3.478c-0.16101,8.46799 0.006,16.959 0,25.42999z" fill-opacity="0.59608" fill="#19100C"/>
  <path id="svg_8" d="m117.8373,135.01303l64.895,0l0,25.42999c-4.08101,-0.01801 -8.39401,-0.33398 -12.44701,0l-34.2,-0.00098c-5.73201,-0.00201 -11.49501,-0.166 -17.22301,0.00098l-0.89799,-0.241c-0.59601,-1.661 -0.07201,-21.67499 -0.127,-25.189z" fill-opacity="0.59608" fill="#19100C"/>
  <path id="svg_9" d="m292.31628,258.76205c7.68903,-7.67001 13.01202,-5.56302 20.00903,1.63998c10.888,11.207 41.40695,38.423 48.66397,50.48901c14.81802,24.638 -4.28201,56.771 -32.612,55.98898c-16.32098,-0.45099 -22.06702,-7.60699 -32.918,-18.54999l-32.23999,-32.49301c-8.088,-8.17999 -15.55299,-14.13599 -3.97,-23.84201c2.345,-1.90698 4.47498,-4.27197 6.62399,-6.405l11.89099,-11.866c2.952,-2.95499 12.80899,-12.177 14.552,-14.96198z" fill-opacity="0.59608" fill="#19100C"/>
 </g>
</svg>