<svg width="367" height="367" xmlns="http://www.w3.org/2000/svg">
 <g>
  <title>Layer 1</title>
  <path stroke="null" fill="#FE672E" d="m234.75774,268.09979c-12.9368,10.46536 -33.00682,19.27448 -49.14453,23.49792c-77.88346,20.37991 -158.0583,-26.51718 -178.0432,-104.56845c-29.83819,-116.53304 87.0176,-219.84649 200.25798,-170.5938c75.48009,32.83002 108.57671,122.90017 73.20894,196.73295c-3.75555,7.83987 -8.67487,15.20993 -13.14804,22.65894c3.78223,3.21472 20.73428,19.62979 23.47815,23.4229c-1.72037,2.74881 -11.44937,11.8511 -14.36304,14.7677l-11.7366,11.71194c-2.12112,2.10535 -4.22345,4.43964 -6.53799,6.32184c-8.00864,-7.98199 -15.7281,-16.20285 -23.97165,-23.95193l-0.00002,0zm-92.45578,-231.29339c-62.57485,3.8464 -110.16975,57.71379 -106.27794,120.28569c3.89082,62.57187 57.79374,110.1273 120.36266,106.19011c62.50476,-3.93228 110.00096,-57.76711 106.11314,-120.27484c-3.88687,-62.50774 -57.68715,-110.04243 -120.19786,-106.20095z" id="svg_1"/>
  <path fill="#FE672E" d="m97.33868,97.09303c-2.45,0.19701 -4.875,0.14301 -7.327,0l0,103.42102l-1.134,0.01198c-20.26201,0.19101 -22.74701,-8.38197 -22.741,-26.62798l0.01701,-13.45503c0.006,-8.47098 -0.16101,-16.96201 0,-25.42998c0.20399,-6.25801 -0.07701,-12.54601 0.017,-18.81003c0.31099,-20.73299 15.68399,-19.42099 31.168,-19.11l0,0.00002z" id="svg_2"/>
  <path stroke="null" fill="#FE672E" d="m181.77077,135.01303c-0.05,-24.825 -3.53401,-38.54 25.70399,-37.92001l0,103.42101c-7.233,0.00801 -15.23401,0.90701 -20.815,-4.72597c-7,-7.06404 -4.78999,-25.17903 -4.88899,-35.34503l-12.44701,0c4.05299,-0.33398 8.366,-0.01802 12.44701,0l0,-25.42999z" id="svg_3"/>
  <path fill="#8D3F4D" d="m209.39783,97.09303c29.59398,-0.01599 23.88698,14.618 23.92801,37.92001c-0.263,8.44699 0.005,16.97501 0,25.42998l0.01797,14.16c0.07001,20.789 -2.26898,26.04401 -23.94598,25.91101l0,-103.42101z" id="svg_4"/>
  <path fill="#8D3F4D" d="m91.93475,97.09303c2.452,0.14301 4.87701,0.19701 7.327,0c14.522,0.57001 17.64099,8.965 17.625,22.144l-0.05301,10.36599c-0.011,1.70599 -0.22,3.73599 0.04202,5.41c0.05499,3.51401 -0.46901,23.528 0.127,25.189l0.89799,0.241l-0.741,0.13702c-0.95,1.73299 -0.28,14.62398 -0.26199,17.09c0.14999,21.26001 -7.16301,22.84399 -24.96301,22.84399l0,-103.42101z" id="svg_5"/>
  <path fill="#19100C" fill-opacity="0.59608" d="m235.2489,135.01303c17.26999,-0.96201 18.332,24.90201 0,25.42999c0.00499,-8.45499 -0.263,-16.983 0,-25.42999z" id="svg_6"/>
  <path fill="#19100C" fill-opacity="0.59608" d="m64.2306,160.44302c-13.53201,-0.88699 -22.26101,-11.89398 -12.47,-21.95201c3.554,-3.65099 7.79199,-3.50197 12.47,-3.478c-0.16101,8.46799 0.006,16.959 0,25.42999l0,0.00002z" id="svg_7"/>
  <path stroke="null" fill="#19100C" fill-opacity="0.59608" d="m118.78934,135.01303l61.05836,0l0,25.42999c-3.83974,-0.01802 -7.89775,-0.33398 -11.71112,0l-32.17807,-0.00098c-5.39313,-0.00201 -10.81544,-0.166 -16.2048,0.00098l-0.8449,-0.241c-0.56078,-1.66101 -0.06775,-21.675 -0.11949,-25.18901l0.00002,0.00002z" id="svg_8"/>
  <path stroke="null" fill="#19100C" fill-opacity="0.59608" d="m293.24103,261.50766c7.28021,-7.26222 12.32025,-5.26724 18.94525,1.5528c10.30914,10.61121 39.20557,36.38028 46.07675,47.80478c14.03024,23.32813 -4.05435,53.75278 -30.87817,53.01233c-15.45331,-0.42703 -20.89386,-7.20255 -31.16794,-17.56378l-30.52594,-30.76553c-7.65802,-7.74509 -14.72612,-13.38446 -3.75894,-22.57446c2.22031,-1.80557 4.23706,-4.04483 6.27182,-6.06448l11.25885,-11.23514c2.79501,-2.79788 12.12796,-11.5296 13.77832,-14.16653l0,0.00003z" id="svg_9"/>
 </g>

</svg>