<?xml version="1.0" encoding="utf-8" ?>
<svg xmlns="http://www.w3.org/2000/svg" xmlns:xlink="http://www.w3.org/1999/xlink" width="256" height="256">
	<path fill="#FEFEFE" transform="scale(0.25 0.25)" d="M0 0L1024 0L1024 1024L0 1024L0 0Z"/>
	<path transform="scale(0.25 0.25)" d="M764.806 212.57C771.266 211.728 778.601 212.993 784.753 215.017C790.782 217.001 796.542 220.135 802.251 222.898L829.797 236.309C846.02 244.204 863.477 251.102 878.788 260.638C899.555 273.572 933.689 341.923 946.404 365.069C960.219 390.216 974.839 414.856 986.562 441.09C993.705 457.075 1000.06 474.182 1003.93 491.281C1008 509.291 1008.98 527.229 1008.48 545.652C1008.33 551.144 1007.55 556.683 1007.58 562.165C1007.62 567.804 1008.43 573.478 1008.68 579.119C1009.37 594.615 1009.03 617.648 1000.4 630.779C996.743 636.336 990.511 641.122 984.759 644.329C973.574 650.565 961.629 654.69 949.718 659.254Q935.672 664.707 921.898 670.817C887.457 686.068 855.325 707.262 818.14 715.396C780.336 723.664 735.486 722 700.29 705.177C693.025 701.704 686.634 696.525 679.872 692.186Q678.69 699.297 676.455 706.15C663.295 747.083 623.496 785.202 585.59 804.41C581.069 806.701 571.272 812.98 566.237 811.332C565.298 810.486 565.107 810 564.81 808.78C565.921 803.841 575.455 801.01 579.568 798.853C599.445 788.433 618.938 774.708 634.367 758.375C654.357 737.215 673.278 710.438 672.399 680.089L677.165 678.598C699.57 700.381 728.248 709.542 758.804 711.949C831.459 717.671 865.935 685.879 927.869 659.079C947.606 650.538 974.318 645.097 990.449 630.718C998.595 623.457 1000.41 607.143 1001.11 596.996C1001.94 584.931 1000.38 573.233 1000.44 561.228C1000.52 546.183 1001.82 531.348 1000.43 516.298C995.125 459.002 961.009 408.975 934.514 359.591C921.226 334.825 904.707 299.261 886.605 278.521C882.464 273.777 878.192 269.757 872.851 266.391C865.725 261.9 857.968 258.512 850.382 254.89Q832.975 246.44 815.359 238.433C805.35 233.783 795.454 228.11 785.16 224.182C780.824 222.528 776.138 221.431 771.498 221.161C761.868 220.602 754.219 226.734 747.48 232.88C734.631 244.597 706.566 272.966 706.174 290.634C706.044 296.521 711.166 300.848 714.972 304.691C719.205 292.015 733.053 269.792 743.025 260.817C744.142 259.812 745.159 258.915 746.699 259.03C748.416 263.738 725.859 299.303 722.678 307.904C722.615 308.076 722.556 308.25 722.495 308.423C726.165 318.8 732.145 322.754 741.043 328.296C739.922 325.114 738.788 321.718 739.193 318.301C739.987 311.604 764.582 272.624 770.308 268.417C771.28 267.703 771.771 267.471 772.996 267.643L773.58 268.787C773.624 275.767 751.146 309.307 746.874 318.928L746.545 319.677C747.007 322.801 748.026 325.66 749.692 328.358C752.276 332.544 756.278 334.886 761.023 335.862C764.542 336.586 771.416 337.386 774.511 335.438C772.081 330.87 769.347 326.334 768.442 321.17C766.929 312.534 776.958 293.445 782.165 286.183C783.212 284.723 784.112 283.645 785.916 283.32C788.831 287.312 776.317 311.072 775.864 317.574C775.356 324.864 785.502 339.128 790.27 344.458C792.488 344.593 794.699 344.661 796.917 344.504C806.224 343.849 815.776 338.217 821.743 331.227C819.471 327.688 816.779 322.252 813.251 319.99C810.422 319.943 806.962 332.615 799.586 335.583C798.665 335.954 799.061 335.915 798.108 335.479C797.568 331.735 801.488 327.645 802.864 324.267C803.62 322.414 803.909 320.312 804.247 318.347C802.059 317.863 799.839 317.412 797.686 316.792C795.443 316.146 793.531 315.416 792.367 313.318L792.685 312.448C798.812 311.227 805.832 312.639 812.19 312.12C812.333 308.846 812.308 305.291 813.015 302.089C813.391 300.384 813.824 297.934 815.382 296.915L816.089 297.359C818.309 301.371 818.44 305.897 818.848 310.362L837.678 304.914C840.707 304.052 845.582 302.336 848.504 303.964L848.732 304.983C846.139 309.894 828.781 313.066 823.361 315.944C823.19 316.035 823.022 316.131 822.853 316.224C826.876 326.005 835.69 337.182 842.917 344.712C844.416 341.792 845.931 338.898 847.697 336.127C850.418 331.856 867.959 307.493 871.954 306.596L872.393 307.442C871.616 314.589 861.938 324.295 858.396 330.831C857.589 332.319 856.744 333.946 857.235 335.616C864.018 335.577 872.519 318.19 877.106 316.749L877.519 317.916C876.624 324.249 866.365 336.173 861.997 341.499C866.449 350.631 871.922 359.532 877.371 368.098C881.634 374.799 887.203 381.909 889.872 389.367C879.903 382.163 871.669 370.055 865.155 359.64C862.794 355.867 860.493 351.065 857.494 347.793C856.409 346.609 855.901 346.571 854.345 346.589C853.369 349.53 855.685 353.783 856.893 356.468C860.378 364.214 864.767 371.532 869.354 378.67C873.318 384.838 884.574 398.374 885.993 404.62L885.551 405.273C880.881 404.004 875.059 396.589 872.018 393.008C871.564 400.918 871.146 408.857 870.422 416.747C869.935 422.051 868.766 427.63 869.012 432.954C869.603 445.731 886.499 475.151 893.294 486.807C894.784 489.363 896.427 491.907 898.401 494.119C900.194 496.129 903.734 497.661 904.816 499.939C904.284 500.788 904.556 500.672 903.656 500.989C902.48 501.403 901.602 501.323 900.467 500.811C891.338 496.696 878.835 470.061 874.841 460.441C872.056 453.735 869.837 446.739 867.467 439.877C865.253 448.804 863.918 458.081 862.723 467.194C858.654 498.22 863.198 514.273 882.173 538.828C887.126 545.237 895.021 550.189 898.692 557.373C898.785 557.554 898.873 557.739 898.964 557.921C884.726 552.796 876.4 540.141 865.521 530.462C867.054 532.89 868.705 535.327 870.048 537.864C870.837 539.354 871.009 540.271 870.494 541.864L869.546 542.238C865.597 540.486 862.758 534.139 860.059 530.768C858.281 528.548 855.855 526.586 853.775 524.639C856.365 528.383 865.588 540.83 865.556 544.738L864.361 545.801C863.339 545.793 863.035 545.875 862.253 545.114C860.68 543.584 859.515 540.977 858.286 539.13C854.375 533.252 850.475 527.096 845.239 522.311C848.221 527.52 860.448 545.029 859.447 549.819L858.577 549.97C852.363 545.535 847.019 534.713 842.548 528.372C839.751 524.405 836.615 520.66 833.49 516.949C819.67 500.536 801.161 485.511 778.979 483.767C770.384 483.09 761.649 484.81 753.424 487.187C739.763 491.135 711.309 504.054 702.442 514.975C696.412 522.402 691.283 536.797 684.805 542.339C682.042 542.611 680.409 543.005 677.999 544.513C677.935 540.218 677.982 518.457 678.727 515.85L679.683 515.703C682.909 519.22 683.904 527.67 685.079 532.312C686.683 528.191 691.155 519.93 689.225 515.871C687.878 513.039 685.227 510.592 683.049 508.368C671.547 496.62 657.887 487.946 642.468 482.15Q641.003 481.605 639.521 481.108Q638.039 480.612 636.541 480.164Q635.043 479.717 633.532 479.32Q632.02 478.922 630.496 478.574Q628.972 478.227 627.438 477.93Q625.903 477.633 624.359 477.387Q622.816 477.141 621.265 476.946Q619.714 476.751 618.157 476.608Q616.601 476.464 615.04 476.372Q613.48 476.28 611.917 476.239Q610.355 476.199 608.792 476.21Q607.229 476.221 605.667 476.284Q604.105 476.347 602.546 476.461Q600.987 476.575 599.433 476.741Q597.879 476.907 596.331 477.124Q594.783 477.341 593.243 477.609Q591.703 477.877 590.173 478.195Q588.642 478.514 587.123 478.883Q585.605 479.252 584.099 479.671Q582.593 480.09 581.102 480.559Q579.61 481.028 578.136 481.545Q576.661 482.063 575.204 482.629Q573.747 483.195 572.309 483.809Q570.872 484.423 569.455 485.083Q568.039 485.745 566.645 486.452Q565.251 487.159 563.881 487.912Q562.511 488.666 561.167 489.463Q559.823 490.261 558.506 491.103Q557.189 491.945 555.901 492.83Q554.612 493.715 553.354 494.642Q552.095 495.569 550.868 496.537Q549.641 497.505 548.446 498.513C543.484 502.638 535.136 513.442 530.383 515.602C529.209 515.086 529.302 515.1 528.808 513.905C529.026 510.152 531.38 506.234 533.692 503.327C548.898 484.207 576.038 471.066 600.096 468.629Q602.26 468.428 604.429 468.316Q606.599 468.204 608.772 468.18Q610.945 468.156 613.117 468.22Q615.289 468.285 617.456 468.438Q619.623 468.59 621.783 468.831Q623.942 469.072 626.09 469.4Q628.238 469.728 630.371 470.144Q632.504 470.559 634.618 471.061Q636.732 471.563 638.824 472.151Q640.916 472.738 642.982 473.41Q645.048 474.082 647.085 474.838Q649.123 475.593 651.128 476.431Q653.132 477.269 655.101 478.188Q657.07 479.106 659.001 480.104Q660.931 481.102 662.818 482.178Q664.706 483.253 666.549 484.405C675.171 489.74 682.947 496.317 690.838 502.634C693.298 504.604 695.414 506.097 698.69 505.443C702.465 504.689 706.948 500.996 710.413 499.163C728.706 489.488 747.821 478.645 768.742 476.423C791.236 474.034 811.147 483.257 827.082 498.79C832.054 503.637 836.519 509.66 841.945 513.925C842.071 514.024 842.2 514.119 842.327 514.216C847.137 515.049 852.035 515.517 856.881 516.104C849.024 491.244 854.926 470.901 857.349 446.246Q857.779 441.892 858.036 437.523Q858.293 433.155 858.377 428.78Q858.46 424.405 858.37 420.031Q858.279 415.656 858.015 411.288Q857.752 406.921 857.315 402.567Q856.877 398.213 856.268 393.88Q855.658 389.547 854.877 385.241Q854.096 380.936 853.145 376.665C851.665 369.737 850.19 362.978 847.479 356.4C837.638 353.168 832.454 348.714 825.585 341.217C817.359 346.154 809.051 351.105 799.425 352.656C790.522 354.089 784.219 352.048 777.057 346.803C768.175 348.048 759.243 347.423 751.511 342.339C741.461 345.066 728.066 345.886 718.201 342.063C712.893 340.005 708.415 336.168 706.236 330.831C703.274 323.579 705.523 316.565 708.295 309.719C704.363 306.05 700.157 302.299 698.569 296.96C696.086 288.613 700.026 279.589 704.006 272.375C713.769 254.679 745.169 218.238 764.806 212.57Z"/>
	<path fill="#FEFEFE" transform="scale(0.25 0.25)" d="M714.621 315.865C723.46 326.065 723.758 326.815 735.189 334.584L735.239 335.38C731.576 335.368 727.85 335.304 724.283 334.392C720.524 333.431 716.787 331.435 714.868 327.92C712.767 324.073 713.404 319.872 714.621 315.865Z"/>
	<path transform="scale(0.25 0.25)" d="M138.102 697.055Q101.032 679.756 65.2784 659.88C52.8919 652.973 36.5531 644.645 26.7246 634.349C22.7988 630.236 20.4249 624.211 18.5122 618.919C4.46388 580.048 17.302 508.481 28.9075 469.552Q32.2155 458.614 36.3157 447.947Q40.416 437.281 45.2865 426.943C55.6276 405.195 67.5057 384.553 78.8491 363.345C93.2011 336.513 119.146 280.993 140.055 262.841C147.753 256.158 185.536 239.797 196.713 234.559C210.43 228.13 223.994 220.649 238.251 215.521C246.224 212.652 256.427 211.374 264.304 215.156C269.418 217.612 273.888 221.851 278.226 225.465C295.392 239.768 317.32 260.588 324.26 282.301C326.189 288.333 326.211 294.431 323.17 300.113C321.314 303.582 318.703 306.543 315.999 309.369C318.294 316.573 320.563 324.611 316.823 331.795C314.107 337.014 308.806 340.473 303.287 342.128C291.657 345.615 278.649 342.73 266.838 344.823C261.85 345.707 257.294 348.12 252.364 349.151C248.566 349.946 244.286 349.582 240.636 350.589C234.632 352.246 229.296 355.742 222.829 355.571C216.875 355.413 209.408 350.141 204.188 347.269C194.796 349.103 180.573 353.046 172.034 356.814C165.085 379.228 164.016 403.091 164.054 426.4C164.067 434.417 163.999 442.636 164.917 450.613C165.646 456.953 167.504 463.028 169.102 469.187C172.629 482.785 172.477 494.829 169.207 508.455C170.872 512.682 173.504 516.29 176.086 519.996C182.843 513.796 188.362 506.541 194.798 500.056C210.557 484.176 230.847 473.923 253.498 474.896C272.712 475.722 289.446 484.768 303.308 497.652C307.769 501.797 311.859 506.724 317.433 509.368C330.318 504.386 340.027 494.775 350.735 486.394C382.154 461.805 413.855 460.251 449.802 476.309Q452.479 477.505 455.086 478.845Q457.694 480.185 460.225 481.664Q462.755 483.144 465.202 484.759Q467.649 486.374 470.004 488.119Q472.36 489.865 474.617 491.736Q476.874 493.606 479.026 495.597Q481.178 497.588 483.219 499.693Q485.26 501.797 487.183 504.01C489.186 506.329 491.777 509.14 492.946 512.007C493.418 513.164 493.497 514.161 492.724 515.249C491.97 516.31 491.2 516.357 490.038 516.536C485.64 515.119 481.604 506.804 477.908 503.63C450.178 479.82 408.41 463.834 373.674 481.539C356.75 490.165 343.346 503.871 326.923 513.366C330.685 516.764 334.436 520.268 338.584 523.192C341.889 525.521 345.872 527.564 348.891 530.203C349.592 530.815 349.651 530.825 349.773 531.783C348.226 532.425 346.548 531.63 345.093 531.034C342.544 529.99 339.745 528.877 337.45 527.348C333.651 524.817 325.072 515.786 321.028 515.303L320.545 515.976C321.894 520.254 336.608 531.236 340.462 533.952C342.801 535.602 350.028 539.653 351.356 541.802C351.932 542.734 351.591 544.288 351.274 545.205C349.512 546.051 348.125 545.761 346.308 545.136C313.014 533.69 306.205 492.746 261.976 483.637C249.211 481.009 235.588 482.987 223.836 488.534C204.175 497.814 195.644 513.259 181.172 527.73C182.674 529.382 184.2 530.811 184.919 532.973L184.767 534.219C183.699 534.972 183.086 534.997 181.787 534.775C178.569 534.226 176.201 532.028 173.983 529.805C175.38 535.412 176.634 541.64 175.196 547.374L174.384 548.312L173.627 548.17C171.903 545.05 171.15 541.28 169.882 537.933C168.072 533.158 165.559 528.499 162.866 524.166C156.036 534.946 146.638 542.47 135.643 548.733C133.558 549.921 130.839 551.792 128.455 552.193C127.392 552.372 126.793 552.293 125.839 551.765C125.792 550.753 125.85 550.67 126.508 549.926C129.802 546.204 135.43 543.065 139.253 539.68C154.149 526.486 164.209 509.33 163.913 488.977C163.591 466.793 153.264 444.545 150.766 421.996C150.096 415.952 149.718 409.722 150.549 403.674C151.163 399.202 153.373 394.9 152.808 390.364C152.247 385.866 146.264 367.077 148.627 364.108C149.338 364.019 149.662 363.801 150.29 364.253C154.768 367.476 157 377.426 158.253 382.423C158.848 374.359 159.969 365.412 162.693 357.781L163.009 356.871L163.206 356.328C164.527 354.852 165.697 353.314 166.86 351.711C156.488 343.641 148.166 335.161 141.083 324.012C139.699 321.834 137.831 319.314 137.512 316.696C137.411 315.87 137.752 315.485 138.093 314.767C138.672 314.866 155.05 331.323 157.572 333.493C163.984 339.008 170.61 343.694 178.7 346.327C185.201 345.043 191.386 342.912 197.739 341.085C194.915 337.856 192.138 334.824 192.482 330.202C192.815 325.713 196.331 321.536 199.325 318.387C196.027 316.255 192.838 314.258 189.163 312.842C185.265 311.341 173.623 310.001 171.546 307.419L171.658 306.546C174.507 304.399 178.57 304.488 181.951 304.98C189.852 306.131 197.824 309.625 204.302 314.259C204.726 310.018 205.328 301.276 208.454 298.143C209.3 297.295 209.768 297.472 210.833 297.601C214.431 304.407 204.732 310.501 216.976 316.046C220.07 314.68 224.989 311.78 228.411 312.834C228.622 313.908 228.486 314.003 227.898 314.893C225.927 317.876 221.085 320.922 221.327 324.874C221.507 327.802 225.2 328.57 225.528 331.29C224.872 332.076 224.744 332.281 223.65 332.375C221.464 332.563 218.297 330.897 216.369 331.68C214.918 332.269 213.845 332.828 212.243 332.544C211.596 332.114 211.032 331.99 210.835 331.178C210.22 328.644 212.738 326.383 212.085 323.923C210.458 322.835 208.729 323.012 206.879 323.362C204.329 323.845 202.229 324.714 200.714 326.911C199.774 328.275 199.606 329.716 199.96 331.289C201.096 336.328 212.578 343.341 217.243 345.657C221.022 347.533 225.501 348.26 229.527 346.74C236.251 344.201 240.729 335.99 243.344 329.676C248.751 316.615 246.949 308.357 241.636 295.729C240.296 292.543 236.647 286.331 237.816 283.007L238.582 282.639C243.064 284.256 247.96 293.849 249.96 298.18C255.145 309.41 254.688 321.369 250.273 332.75Q248.662 336.813 246.846 340.788C256.202 339.861 267.019 335.716 272.998 328.129C274.273 326.511 275.16 324.684 276.053 322.84L275.855 322.265C271.1 308.806 264.417 295.473 258.515 282.443C256.385 277.741 253.659 272.836 252.059 267.944C251.669 266.753 251.635 265.868 251.94 264.636L252.449 264.331C258.71 266.625 270.561 291.054 273.678 297.611C274.89 300.16 275.651 302.911 276.878 305.466C280.351 312.699 285.516 319.071 282.435 327.388Q282.103 328.279 281.753 329.162C288.883 325.375 296.954 319.183 299.392 311.128C299.563 310.562 300.002 309.269 299.94 308.684C298.766 297.61 274.318 265.284 278.276 257.233C281.613 257.899 284.674 263.179 286.475 265.884C294.502 277.937 303.673 292.185 307.584 306.136C311.709 301.676 317.708 296.798 317.444 290.206C316.743 272.703 292.442 247.624 279.455 236.169C271.837 229.45 261.97 219.816 251.019 220.655C246.962 220.967 242.992 222.28 239.21 223.713C223.074 229.83 207.701 238.029 192.082 245.342C178.612 251.65 159.4 259.448 147.235 267.519C142.32 270.78 138.52 275.401 134.806 279.924C118.259 300.077 105.719 329.038 93.3781 352.296C77.8171 381.624 60.288 410.115 47.4485 440.797C35.9083 468.374 29.2556 497.24 24.6592 526.701C21.1779 549.015 18.9253 572.155 21.2102 594.715C22.468 607.134 26.088 623.937 36.2021 632.166C50.933 644.15 68.9813 652.92 85.5712 661.938C97.3891 668.362 109.459 674.241 121.505 680.217C168.544 703.556 219.185 724.523 272.784 718.592C293.31 716.32 314.341 710.42 331.962 699.387C335.064 697.445 339.203 694.896 341.475 692C342.754 690.369 345.659 684.789 347.417 684.452C351.723 696.047 354.012 707.887 359.283 719.233C373.544 749.926 400.737 775.381 429.725 792.097C433.551 794.304 437.425 796.827 441.432 798.66C445.624 800.576 454.946 803.382 457.289 807.247C457.393 808.845 457.481 809.314 456.79 810.808C455.281 811.75 454.099 811.73 452.422 811.365C446.046 809.976 438.93 805.847 433.164 802.774C403.283 786.847 376.71 764.566 359.032 735.409C352.21 724.157 346.944 712.128 343.989 699.291C323.682 719.541 281.027 727.634 252.715 727.586C212.186 727.516 174.48 713.743 138.102 697.055Z"/>
	<path fill="#FEFEFE" transform="scale(0.25 0.25)" d="M307.874 313.915C309.51 316.078 311.127 320.147 311.106 322.861C311.085 325.475 309.556 328.013 307.764 329.816C303.045 334.56 296.908 335.523 290.553 335.646C289.861 335.687 289.177 335.648 288.485 335.625C289.289 334.132 292.734 332.779 294.245 331.776C300.627 327.539 305.297 321.033 307.874 313.915Z"/>
	<path transform="scale(0.25 0.25)" d="M354.741 539.064C357.203 539.402 359.162 540.25 361.324 541.431C367.183 544.632 372.199 549.728 375.889 555.251C381.625 563.836 384.159 574.469 388.761 583.72C398.696 603.692 412.662 627.094 425.726 645.206C438.954 663.546 457.346 684.76 476.353 697.151C480.122 699.609 494.04 705.923 494.782 709.82C495.011 711.023 494.6 711.856 493.939 712.791C492.496 713.484 491.217 713.345 489.721 712.927C483.884 711.296 477.691 706.954 472.62 703.599C440.232 682.167 418.429 650.346 398.825 617.608C389.819 616.333 377.873 614.95 369.686 611.151C367.964 610.352 365.927 608.802 365.397 606.893C365.185 606.128 365.518 605.995 365.917 605.396C371.673 602.92 387.009 606.771 393.554 608.222C388.299 599.892 383.46 591.581 378.932 582.827C372.492 586.38 366.565 590.803 360.42 594.832C347.174 603.517 333.767 607.552 318.123 608.883C295.757 609.818 273.442 605.902 251.635 601.369C244.745 599.937 237.727 597.42 230.773 596.569C230.622 596.73 230.468 596.887 230.318 597.05C229.745 597.674 229.187 598.294 228.584 598.893C222.23 605.199 204.536 614.41 196.006 617.87C191.715 619.61 186.965 620.434 182.837 622.531C176.653 625.672 170.744 634.093 163.265 633.946C162.1 633.289 162.087 633.253 161.56 632.021C162.447 628.911 164.652 626.902 166.932 624.731C179.044 613.195 184.962 614.99 198.462 608.59C207.291 604.405 215.894 599.638 224.347 594.744C217.763 592.272 211.024 589.919 204.657 586.928C197.551 583.589 179.674 573.249 176.936 565.683L177.417 565.186C181.911 565.509 201.267 577.564 208.123 580.109C237.767 591.115 270.933 598.667 302.499 600.799C316.2 601.725 329.911 600.522 342.677 595.192C350.48 591.934 365.898 581.043 371.662 579.551C373.488 579.077 375.873 579.371 377.756 579.449C375.939 572.05 373.195 565.077 368.478 559.031C365.898 555.723 353.441 544.789 353.289 542.238C353.203 540.793 353.845 540.069 354.741 539.064Z"/>
	<path transform="scale(0.25 0.25)" d="M661.192 536.223C661.76 536.638 662.329 536.842 662.539 537.556C664.312 543.603 653.53 565.832 650.568 572.213C656.073 574.466 661.232 578.014 666.582 580.696C688.086 591.477 711.181 600.207 735.544 595.34C725.192 592.737 707.836 593.519 698.917 588.861C697.513 588.127 696.882 587.44 696.419 585.943L696.966 584.909C698.666 583.819 700.588 584.106 702.52 584.284C709.854 584.956 717.176 586.321 724.495 587.205C743.232 589.468 763.099 590.993 781.92 589.018C800.081 587.112 819.59 581.558 831.519 566.866C826.468 563.942 821.587 562.015 815.954 560.489C813.402 559.798 810.261 559.31 807.896 558.174C807.03 557.758 807.197 557.632 806.89 556.783C807.254 555.939 807.053 555.915 807.782 555.599C812.248 553.66 821.762 556.942 826.073 558.57C823.991 555.943 819.426 553.485 819.124 550.1C819.688 549.58 819.788 549.209 820.627 549.266C825.525 549.596 832.674 558.005 835.497 561.606C837.679 559.34 839.77 554.568 842.315 553.077C843.505 552.381 843.946 552.545 845.217 552.774C845.867 553.85 846.006 554.333 845.685 555.586C842.878 566.532 831.986 578.771 822.366 584.403C806.617 593.621 787.71 597.053 769.633 597.461C762.996 597.61 756.252 597.174 749.64 597.827C745.431 598.244 741.4 600.803 737.32 601.904C722.97 605.776 708.526 603.811 694.388 600.088C686.317 597.666 678.235 594.819 670.615 591.21C662.517 587.373 654.732 582.414 646.005 580.169C640.756 588.209 636.944 597.449 632.264 605.882C639.969 604.24 647.759 602.609 655.573 601.575C658.337 601.21 664.258 600.763 666.462 602.443C666.408 603.706 666.388 604.066 665.54 605.098C660.473 611.266 634.337 615.323 625.986 615.558C608.16 648.205 584.428 680.649 553.405 701.868C548.153 705.46 537.006 713.983 530.83 712.822C529.644 711.909 529.608 711.725 529.117 710.295C529.618 705.074 543.096 699.879 547.318 696.838C597.425 660.745 617.733 612.697 647.136 561.299C651.836 553.084 655.89 544.018 661.192 536.223Z"/>
	<path transform="scale(0.25 0.25)" d="M637.576 622.333C638 622.353 638.65 622.365 639.046 622.48C640.215 622.818 640.757 623.385 641.171 624.51C643.02 629.54 635.324 646.09 632.936 651.38C634.295 650.226 635.727 649.159 637.286 648.285C641.4 645.979 663.542 638.019 667.615 639.065L667.835 639.755C664.987 644.698 656.985 648.168 652.171 650.999C660.341 649.89 669.546 645.591 676.885 645.101C678.219 645.012 679.391 644.979 680.462 645.874L680.518 646.926C677.267 652.836 668.762 655.839 662.866 658.245C663.3 660.274 663.893 663.584 662.625 665.407C662.256 665.938 661.79 665.786 661.206 665.838C658.755 664.501 657.834 662.462 656.383 660.151C652.898 660.687 649.435 661.667 646.006 662.499C647.135 668.008 648.098 673.321 648.145 678.962C647.582 683.061 646.693 689.38 643.762 692.452L643.018 692.362C639.713 687.072 642.652 678.962 640.859 673.157C640.343 671.488 639.645 670.452 638.1 669.648C630.104 670.229 621.526 694.984 617.926 697.243C617.315 697.626 617.349 697.405 616.561 697.122C615.964 696.359 615.548 695.692 615.32 694.748C613.651 687.845 620.616 675.341 624.069 669.62C621.381 672.057 618.147 674.403 614.921 676.081C613.599 676.768 612.511 677.314 611.034 676.883L610.671 675.843C611.33 672.087 617.302 663.446 619.358 659.628C623.475 651.981 627.571 644.181 631.277 636.324C633.395 631.835 634.43 626.19 637.576 622.333Z"/>
	<path transform="scale(0.25 0.25)" d="M382.223 625.168C383.631 625.286 384.778 625.279 385.757 626.433C389.05 630.313 391.331 636.875 393.683 641.429C400.119 653.89 406.409 666.848 414.171 678.541C415.637 680.749 418.809 684.154 418.571 686.784C417.97 687.383 417.923 687.751 417.006 687.713C413.094 687.55 407.567 681.049 404.778 678.329C406.279 683.445 409.011 692.179 406.479 697.14C405.505 697.799 405.648 697.926 404.393 697.838C399.919 690.536 398.529 682.096 393.389 674.978C391.445 679.144 389.638 683.62 387.188 687.51C386.351 688.838 385.504 690.203 383.892 690.577L383.09 689.921C381.371 684.683 383.375 679.501 384.814 674.438C385.502 672.79 387.198 669.711 386.741 667.968L385.441 668.169C380.515 671.536 379.311 677.298 375.556 681.426C374.687 682.382 373.496 682.402 372.299 682.536C371.221 682.098 371.634 682.469 371.093 681.39C370.905 675.3 377.458 667.487 381.002 663.025C368.466 656.189 358.268 664.007 349.204 660.296C348.41 659.192 348.276 659.005 348.163 657.661C348.915 655.949 349.997 655.141 351.609 654.275C356.093 651.865 363.969 649.441 369.023 650.023C371.768 650.339 374.596 651.367 377.247 652.139C374.28 650.422 370.506 648.75 368.708 645.72C368.601 644.278 368.438 644.157 369.286 643.017C374.376 641.624 384.926 648.708 389.603 650.979C386.298 643.668 381.272 633.233 382.223 625.168Z"/>
	<path transform="scale(0.25 0.25)" d="M76.8573 397.826C77.7612 398.666 77.3983 399.287 77.0337 400.242C75.2398 404.939 72.2612 409.605 69.9595 414.1Q63.6985 426.192 58.3864 438.73C42.0917 476.993 34.8552 509.013 40.7412 550.895C44.2267 539.398 49.9086 527.839 57.0802 518.203C58.8418 515.835 62.7941 510.278 65.8209 509.837L66.4329 510.587C66.5515 515.998 62.1283 522.737 59.7594 527.628Q53.9019 539.274 49.338 551.485C46.8828 558.051 44.8088 564.857 41.9004 571.23C34.084 557.527 32.4936 543.428 32.0957 527.89C31.1694 491.72 43.533 456.543 59.8069 424.753C64.5504 415.487 69.6575 405.401 76.8573 397.826Z"/>
	<path transform="scale(0.25 0.25)" d="M954.683 410.818C955.572 411.374 956.276 411.956 956.927 412.781C963.152 420.681 968.544 433.696 972.519 443.101C984.719 471.974 993.601 502.242 993.318 533.843C993.233 543.342 992.221 552.856 991.263 562.3C990.992 564.971 990.761 570.99 988.47 572.611C987.324 573.422 986.186 573.653 984.82 573.317C982.867 572.837 980.101 565.764 979.164 563.899C972.749 551.141 963.664 539.051 955.84 527.051C953.728 523.475 948.602 517.81 948.222 513.72C948.149 512.937 948.239 513.125 948.826 512.473C949.247 512.593 949.723 512.591 950.087 512.832C953.28 514.949 980.339 552.997 984.313 559.045C984.669 551.745 985.739 544.497 985.988 537.178C986.813 512.961 982.744 489.568 975.524 466.505Q970.482 450.298 963.823 434.686C961.067 428.173 957.843 421.693 955.411 415.062C954.853 413.54 954.51 412.439 954.683 410.818Z"/>
	<path transform="scale(0.25 0.25)" d="M134.768 339.295C135.147 339.552 135.362 339.651 135.641 340.026C137.72 342.821 137.109 348.273 136.913 351.609Q137.598 352.279 138.25 352.982C143.404 358.561 145.542 364.351 145.185 371.961C144.953 376.886 143.95 381.784 142.655 386.53C140.947 392.796 133.33 413.699 129.178 417.437L128.53 417.244C127.686 414.413 134.964 394.189 136.125 389.591Q137.594 383.736 137.979 377.712C138.307 371.995 137.297 366.825 135.937 361.294C126.357 371.385 118.735 383.624 110.113 394.554Q100.275 407.216 90.6942 420.073C87.3214 424.65 84.25 429.712 80.5789 434.035C79.5827 435.208 78.7375 436.151 77.3642 436.857L76.7437 436.349C77.0049 426.299 118.962 365.978 126.59 353.969C129.58 349.261 131.579 343.773 134.768 339.295Z"/>
	<path transform="scale(0.25 0.25)" d="M898.814 605.11C903.03 604.828 907.348 605.042 911.55 605.427C920.246 606.224 944.962 610.809 950.634 618.154C951.754 619.604 951.715 620.665 951.431 622.341C947.605 624.755 929.018 624.921 922.672 625.994C909.811 628.167 897.052 631.358 884.465 634.751C881.43 635.569 878.187 636.623 875.025 636.703C863.767 636.987 851.346 629.313 841.873 623.859Q839.443 622.268 837.047 620.628C834.511 618.875 832.314 617.436 831.723 614.263C832.103 612.974 832.011 612.965 833.151 612.282C834.368 612.242 835.218 612.433 836.27 613.023C838.309 614.167 840.14 615.842 842.047 617.201Q846.992 620.659 852.425 623.282C859.269 626.664 866.48 628.684 873.769 630.849C893.09 623.089 915.381 619.541 936.042 617.719Q929.503 615.265 922.73 613.562C916.289 611.95 905.581 610.755 900.12 607.402C898.944 606.681 899.063 606.398 898.814 605.11Z"/>
	<path transform="scale(0.25 0.25)" d="M115.83 598.173C117.771 598.447 117.894 598.581 119.271 599.821C119.402 600.543 119.672 600.895 119.205 601.54C116.332 605.508 84.8979 610.723 78.5914 612.271C100.299 613.162 120.764 619.507 141.402 625.645C145.661 626.912 151.303 627.789 155.133 630.036C156.252 630.692 156.606 630.998 156.89 632.256C155.445 634.07 152.448 634.369 150.306 634.651C146.655 634.551 143.123 633.427 139.64 632.414C125.267 628.234 110.878 624.523 96.1434 621.849C88.6051 620.481 80.3375 620.213 72.9954 618.289C71.5428 617.909 70.5911 617.393 69.9796 615.946C69.1636 614.016 69.0652 611.118 70.1405 609.278C72.536 605.179 108.68 599.329 115.83 598.173Z"/>
	<path transform="scale(0.25 0.25)" d="M723.666 628.376C734.846 630.266 750.661 640.027 760.451 646.232C765.17 649.223 769.874 652.756 775.196 654.572C787.441 658.752 800.94 656.082 813.153 660.946C818.014 662.882 828.618 668.124 830.732 673.107C830.54 674.524 830.514 674.549 829.498 675.559C821.204 671.062 812.378 666.877 802.985 665.347C793.002 663.72 780.565 664.757 771.22 660.65C761.897 656.553 753.205 650.502 744.296 645.545C737.581 641.81 730.039 638.651 723.622 634.522C722.256 633.643 722 633.566 721.423 632.051C721.632 630.424 722.621 629.544 723.666 628.376Z"/>
	<path transform="scale(0.25 0.25)" d="M309.04 624.619C309.503 624.633 310.159 624.63 310.595 624.758C311.888 625.139 312.184 625.575 312.774 626.661L312.329 628.02C308.89 631.563 303.148 633.185 299.102 636.111C294.465 639.464 290.135 643.399 285.668 646.985C271.654 658.236 255.059 669.894 236.892 672.38C235.403 672.112 234.832 671.954 233.674 670.884C233.222 669.664 233.165 669.682 233.611 668.472C236.267 665.953 246.48 663.04 250.663 661.125Q255.679 658.808 260.443 656.01C276.016 646.974 291.725 627.966 309.04 624.619Z"/>
	<path transform="scale(0.25 0.25)" d="M770.337 488.192Q772.32 488.012 774.312 487.99Q776.303 487.969 778.29 488.105Q780.277 488.242 782.247 488.536Q784.217 488.829 786.157 489.279C803.781 493.374 822.182 506.52 831.669 521.893C815.295 508.509 798.007 494.402 776.151 492.442C756.692 492.173 741.267 501.021 725.182 510.766C720.496 513.605 715.715 516.904 710.543 518.761C710.833 518.376 711.121 517.99 711.426 517.618C718.821 508.591 739.616 497.309 750.57 493.131C756.948 490.698 763.545 488.924 770.337 488.192Z"/>
	<path transform="scale(0.25 0.25)" d="M248.64 487.223C255.65 487.319 262.166 488.313 268.767 490.725C280.061 494.851 293.907 503.035 299.11 514.308C285.03 503.22 271.462 494.605 253.394 492.048C237.935 491.002 226.196 495.136 213.291 503.573C209.102 506.311 205.038 509.397 200.555 511.64L199.927 511.949C200.662 510.93 201.415 509.921 202.258 508.988C213.94 496.054 231.358 488.009 248.64 487.223Z"/>
	<path transform="scale(0.25 0.25)" d="M395.306 480.087C412.891 479.439 430.873 485.464 446.493 493.156C453.089 496.404 480.022 512.194 481.826 519.4C482.016 520.161 481.537 520.41 481.109 520.978C475.969 518.962 469.831 512.349 465.132 509.059C450.251 498.64 432.54 490.174 414.687 486.51C410.237 485.596 405.666 485.244 401.176 484.576C399.154 484.276 396.556 483.918 395.361 482.063C394.87 481.301 395.156 480.919 395.306 480.087Z"/>
	<path transform="scale(0.25 0.25)" d="M664.335 688.328C664.581 688.546 664.872 688.723 665.073 688.983C666.172 690.403 666.13 692.889 666.002 694.567C664.534 713.783 639.932 745.991 625.298 758.412C624.745 757.891 624.275 757.313 623.781 756.737C623.803 756.58 623.807 756.42 623.846 756.266C624.781 752.579 636.635 739.488 639.762 735.278Q644.549 728.805 648.75 721.937Q653.716 713.744 657.292 704.857C659.459 699.444 661.206 693.231 664.335 688.328Z"/>
	<path transform="scale(0.25 0.25)" d="M617.865 480.714C619.85 480.569 622.009 480.411 623.956 480.932C625.232 481.273 625.61 481.653 626.217 482.778C626.109 483.18 626.203 483.705 625.894 483.984C624.885 484.897 617.978 484.982 616.426 485.122Q614.048 485.346 611.68 485.661Q609.312 485.976 606.958 486.383Q604.604 486.789 602.267 487.286Q599.931 487.783 597.615 488.37Q595.299 488.957 593.008 489.632Q590.717 490.308 588.453 491.071Q586.19 491.835 583.957 492.685Q581.725 493.535 579.527 494.471Q577.329 495.406 575.169 496.426Q573.009 497.446 570.889 498.548Q568.77 499.651 566.695 500.834Q564.62 502.017 562.592 503.28Q560.564 504.542 558.586 505.882Q556.608 507.221 554.684 508.636Q552.759 510.051 550.89 511.54Q549.022 513.028 547.212 514.587C545.897 515.783 544.407 517.407 542.736 518.061C541.785 518.433 542.169 518.419 541.3 518.084C541.646 516.087 543.007 514.421 544.266 512.891C560.092 493.658 594.024 482.671 617.865 480.714Z"/>
	<path transform="scale(0.25 0.25)" d="M148.664 679.308C152.667 680.622 156.5 683.519 160.126 685.653C163.728 687.773 167.409 689.63 171.196 691.393C188.64 699.511 207.48 706.204 226.729 708.282C234.013 709.068 241.211 708.932 248.487 709.405C249.749 709.488 250.56 709.331 251.416 710.294L251.158 711.765C247.065 712.454 242.887 712.688 238.741 712.715C213.64 712.883 185.702 703.012 163.462 691.773C158.897 689.466 152.957 686.815 149.509 683.004C148.351 681.724 148.585 680.901 148.664 679.308Z"/>
	<path transform="scale(0.25 0.25)" d="M871.834 671.498C872.442 672.116 872.2 671.706 872.304 672.847C871.947 673.351 871.651 673.769 871.186 674.183C865.038 679.658 856.219 684.63 848.972 688.406C823.633 701.606 798.366 708.807 769.629 708.479C768.94 707.352 769.25 707.21 769.493 705.968C771.429 704.416 792.649 703.742 796.371 703.205C802.177 702.367 808.056 700.878 813.721 699.324C827.4 695.571 841.755 689.12 854.035 681.942C859.742 678.606 865.09 674.441 871.158 671.789L871.834 671.498Z"/>
	<path transform="scale(0.25 0.25)" d="M353.637 690.168C354.551 690.477 355.237 690.627 355.952 691.319C358.086 693.386 363.849 707.244 365.85 711.058C371.708 722.225 379.179 732.497 386.909 742.426C390.105 746.531 397.757 753.037 397.653 758.37C393.911 757.544 390.639 753.323 388.143 750.589C376.751 738.114 352.867 706.518 353.637 690.168Z"/>
	<path transform="scale(0.25 0.25)" d="M419.263 617.722C420.052 618.064 420.753 618.459 421.33 619.115C423.37 621.44 424.928 624.743 426.69 627.35Q433.148 636.945 440.052 646.223Q445.585 653.728 451.794 660.682Q458.004 667.637 464.837 673.981C468.846 677.661 473.487 680.902 477.348 684.662C478.357 685.644 478.551 686.204 478.627 687.577C460.51 681.466 430.424 643.509 421.303 626.026C419.94 623.413 418.33 620.653 419.263 617.722Z"/>
	<path transform="scale(0.25 0.25)" d="M603.047 618.154L604.257 618.405L604.777 619.285C604.376 620.614 603.901 621.887 603.361 623.165C595.63 641.489 564.737 679.8 546.188 687.369L544.868 687.246L544.561 686.522C546.238 683.802 550.448 681.906 552.977 679.832C558.529 675.279 563.647 669.954 568.529 664.695C581.819 650.38 592.481 634.5 603.047 618.154Z"/>
	<path transform="scale(0.25 0.25)" d="M147.191 306.121C151.36 307.26 166.84 325.189 171.952 329.616C174.439 331.769 177.166 333.539 180.272 334.681C182.67 335.563 190.227 335.973 191.432 337.502L191.053 339.446C189.904 340.045 188.834 340.387 187.558 340.575C180.594 341.602 173.414 338.718 167.884 334.644C159.898 328.762 148.79 316.176 147.191 306.121Z"/>
	<path transform="scale(0.25 0.25)" d="M128.367 442.935C128.351 443.581 128.242 444.123 127.992 444.734C126.318 448.822 122.702 452.978 120.079 456.527C110.055 470.094 95.1881 489.66 79.311 495.883L79.1421 494.68C79.838 492.427 89.9059 484.109 92.4444 481.537Q101.586 472.289 110.119 462.478C115.619 456.184 121.493 447.718 128.367 442.935Z"/>
	<path transform="scale(0.25 0.25)" d="M890.247 450.228C890.978 450.43 891.548 450.573 892.146 451.084C894.496 453.092 896.679 456.409 898.664 458.799Q905.898 467.541 913.232 476.2C919.01 482.978 925.616 489.272 931.132 496.219C932.246 497.621 932.422 497.92 932.715 499.72C926.664 497.99 920.366 490.617 915.917 486.135C909.027 479.194 890.213 459.234 890.247 450.228Z"/>
	<path transform="scale(0.25 0.25)" d="M202.435 549.448C207.632 549.074 217.222 551.733 222.444 553.247L222.662 553.904C222.564 554.025 222.483 554.162 222.369 554.268C219.742 556.684 210.233 555.656 206.643 555.525C205.281 556.828 204.364 557.818 203.712 559.606C203.224 560.947 202.765 562.346 202.117 563.62C201.369 565.09 199.997 565.565 198.543 566.094C192.486 565.255 185.197 561.816 181.288 556.954L181.471 555.696L181.687 555.562C186.162 554.984 191.356 557.441 195.563 558.908C197.366 555.243 199.242 552.107 202.435 549.448Z"/>
	<path transform="scale(0.25 0.25)" d="M142.113 450.74C142.713 451.044 143.121 451.431 143.626 451.87C145.065 457.277 141.715 469.568 139.64 474.799C134.856 486.861 126.804 496.528 114.789 501.645L113.997 501.301C113.617 500.224 113.532 500.286 114.188 499.403C117.096 495.493 123.941 492.255 128.115 486.663C134.031 478.736 137.21 469.898 139.555 460.36C140.245 457.553 140.511 454.207 141.708 451.585C141.838 451.301 141.978 451.022 142.113 450.74Z"/>
	<path transform="scale(0.25 0.25)" d="M866.25 567.621C873.933 567.403 886.635 569.223 892.713 574.248C894.194 575.473 894.346 576.388 894.494 578.25C892.521 578.061 869.168 570.87 867.678 570.064C866.438 569.392 866.57 568.916 866.25 567.621Z"/>
	<path transform="scale(0.25 0.25)" d="M36.3675 581.1L37.4672 581.763C38.9779 584.413 39.021 588.476 39.8286 591.492C40.7012 594.751 41.6467 598.016 42.8804 601.159C44.1999 604.519 46.7224 608.83 47.3103 612.286C47.4142 612.896 47.2786 613.397 47.1303 613.983C44.3258 612.145 42.794 609.628 41.2775 606.703C37.6982 599.801 33.8553 588.803 36.3675 581.1Z"/>
	<path transform="scale(0.25 0.25)" d="M47.4283 594.121L48.6847 594.577C51.217 597.137 52.0379 601.831 53.8964 605.057C56.4183 609.434 62.6741 615.136 63.856 619.121C63.3344 619.212 62.8133 619.311 62.2869 619.368C60.7269 619.538 59.8315 618.848 58.6969 617.881C52.0456 612.209 47.9486 602.69 47.4283 594.121Z"/>
	<path transform="scale(0.25 0.25)" d="M982.167 587.841C983.636 589.163 983.794 590.255 983.865 592.253C984.127 599.653 980.852 610.482 975.953 615.998C975.558 615.903 975.032 615.576 974.662 615.395C974.242 612.8 978.163 603.399 978.98 600.329C980.073 596.224 980.522 591.754 982.167 587.841Z"/>
	<path transform="scale(0.25 0.25)" d="M971.526 598.714L972.675 599.526C973.029 600.52 973.168 601.318 973.076 602.363C972.485 609.068 966.703 617.668 961.561 621.84C960.929 621.129 960.319 620.602 960.106 619.645C959.882 618.636 961.818 616.194 962.386 615.329C964.546 612.04 966.712 608.686 968.43 605.137C969.492 602.943 970.151 600.769 971.526 598.714Z"/>
	<path transform="scale(0.25 0.25)" d="M147.282 564.426C148.344 564.495 147.828 564.336 148.804 564.977C148.601 565.639 148.605 565.744 148.206 566.412C145.198 571.434 133.275 572.903 128.072 573.54C126.701 572.956 126.282 573.003 125.581 571.64C126.136 570.636 126.286 570.456 127.421 570.034C130.49 568.897 134.225 568.549 137.444 567.837C140.899 567.073 144.035 565.816 147.282 564.426Z"/>
	<path transform="scale(0.25 0.25)" d="M990.65 586.639C991.128 586.856 991.426 587.168 991.813 587.516C992.066 588.792 992.14 589.907 992.069 591.211C991.784 596.389 990.637 604.161 986.639 607.701C986.054 607.239 986.372 607.558 985.83 606.62C986.71 601.07 988.033 591.394 990.65 586.639Z"/>
	<path transform="scale(0.25 0.25)" d="M146.984 346.164L147.607 345.32C149.339 345.664 161.354 354.575 163.206 356.328Q162.2 357.503 161.135 358.625C156.395 356.658 149.839 350.43 146.984 346.164Z"/>
</svg>
