<?xml version="1.0" encoding="utf-8" ?>
<svg xmlns="http://www.w3.org/2000/svg" xmlns:xlink="http://www.w3.org/1999/xlink" width="256" height="256">
	<path fill="#FEFEFE" transform="scale(0.25 0.25)" d="M0 0L1024 0L1024 1024L0 1024L0 0Z"/>
	<path transform="scale(0.25 0.25)" d="M507.304 138.712C516.9 138.13 527.561 139.856 537.021 141.54C550.474 143.935 567.22 146.888 576.504 157.869C579.6 161.53 581.714 165.977 583.884 170.213C587.336 176.951 590.622 183.872 594.991 190.078C597.418 193.525 600.19 196.866 603.734 199.209C608.656 202.462 614.252 204.86 619.541 207.449C628.177 211.677 636.83 215.904 645.06 220.893C650.416 224.14 655.959 227.576 660.918 231.4C668.634 237.35 678.481 249.561 688.872 249.448C693.338 249.399 697.871 247.068 701.791 245.126C731.582 230.362 732.411 228.97 765.541 234.877C816.617 243.982 831.642 264.539 859.289 304.243C879.942 306.326 905.048 312.224 921.924 324.484Q926.741 327.944 930.955 332.117C942.273 343.113 951.095 356.289 962.173 367.526C970.745 376.221 983.587 384.614 990.769 393.329Q991.36 394.054 991.902 394.818Q992.444 395.581 992.934 396.378Q993.423 397.176 993.859 398.004Q994.294 398.833 994.674 399.689Q995.053 400.544 995.374 401.423Q995.696 402.302 995.958 403.201Q996.22 404.1 996.421 405.014Q996.623 405.928 996.763 406.853C998.32 417.788 993.223 429.822 986.638 438.31C988.464 442.714 990.182 447.208 990.523 452.007C990.798 455.868 990.419 460.152 987.669 463.12C985.627 465.325 982.809 466.55 979.95 467.293C974.063 468.825 967.48 467.807 961.406 468.931C945.16 471.939 931.301 478.285 914.194 478.466C903.6 478.578 890.995 476.951 881.099 472.937C876.867 471.219 872.774 468.582 868.317 467.546C859.231 465.435 849.294 467.325 839.797 465.095C811.383 458.42 786.849 428.597 766.794 408.883C763.617 413.952 761.551 420.039 759.289 425.56C755.304 435.286 751.492 445.154 747.149 454.723Q742.043 465.691 736.581 476.486C734.259 480.986 731.523 485.378 729.771 490.141C727.628 495.969 726.725 502.454 724.955 508.444C721.394 520.497 716.528 532.289 710.987 543.561C706.087 553.529 700.221 563.546 693.738 572.569C690.602 576.932 686.774 580.94 683.85 585.427C680.484 590.593 678.376 596.592 675.042 601.842C670.837 608.463 664.891 615.492 662.724 623.057C660.164 631.992 660.03 642.989 659.566 652.251C658.156 680.38 658.507 708.049 660.39 736.143C660.85 743.015 660.722 750.981 662.627 757.606C664.347 763.59 673.108 771.832 676.496 778.673C691.156 808.268 701.548 848.723 701.572 881.817C692.693 848.2 683.889 795.583 662.159 768.248C668.928 791.61 673.455 814.327 675.201 838.617C675.428 841.775 676.565 847.737 675.255 850.547C674.131 851.072 673.778 850.976 672.522 850.865C672.234 850.551 671.857 850.3 671.66 849.922C670.216 847.154 670.038 839.125 669.588 835.532C668.266 824.976 663.861 792.822 659.242 785.18C659.158 785.04 659.069 784.903 658.983 784.765C658.787 810.282 653.986 851.514 640.071 872.655C642.301 863.638 645.15 854.815 647.103 845.718C652.602 820.099 656.778 779.958 647.231 755.166C639.152 750.414 623.271 736.671 619.389 728.451C612.227 731.482 608.011 734.721 604.276 741.678C603.686 738.925 603.185 734.038 601.208 731.986C594.455 732.839 554.433 806.282 549.3 816.667Q543 829.307 538.413 842.664C535.888 850.134 533.523 857.83 532.476 865.668C531.998 869.253 532.414 872.957 531.77 876.515C531.483 878.098 530.999 879.266 529.874 880.436L528.875 880.28C528.026 879.375 527.553 878.545 527.136 877.372C525.784 873.57 526.249 869.548 526.583 865.614C528.274 845.686 539.178 820.101 548.661 802.483C552.202 795.905 556.394 789.698 560.065 783.194C568.949 767.453 577.809 751.864 588.223 737.046C601.025 718.829 617.934 703.583 626.806 682.747C629.71 675.925 634.189 663.763 631.248 656.374C630.551 655.707 630.471 655.463 629.484 655.242C627.658 654.833 626.298 655.312 624.888 656.457C620.071 660.364 616.07 666.066 612.082 670.818C604.102 680.325 595.455 688.031 584.99 694.772C600.335 677.749 617.525 658.805 626.627 637.551C628.516 633.141 629.543 628.448 631.012 623.889C626.002 620.378 620.09 617.489 614.665 614.656C610.106 619.504 606.291 625.139 602.04 630.27Q596.036 637.43 589.378 643.987Q582.72 650.544 575.469 656.438C572.766 658.592 569.781 661.35 566.496 662.486L567.507 661.597L567.373 661.635C579.041 650.949 586.115 641.049 595.495 628.708C599.604 623.302 604.208 618.272 608.246 612.813C612.467 607.106 616.166 600.984 620.199 595.139C624.472 588.948 629.6 582.871 633.195 576.281C633.296 576.095 633.393 575.907 633.492 575.721C626.149 573.703 617.66 573.243 610.097 572.177C604.288 576.796 598.883 581.774 592.83 586.102C580.688 594.783 562.404 605.034 548.789 611.432C543.532 613.902 538.012 615.889 532.69 618.244C536.066 613.016 541.173 608.501 545.274 603.801Q555.907 591.774 565.504 578.906C560.336 590.907 548.54 605.31 539.306 614.394Q540.312 614.073 541.311 613.73C553.688 609.389 572.733 597.339 582.695 588.944C594.99 578.584 613.678 557.34 620.741 542.869C610.238 540.259 605.136 539.735 595.914 533.454C584.76 545.838 574.075 551.688 558.467 557.314C566.257 552.816 574.571 547.898 581.141 541.698C587.776 535.437 607.022 513.117 607.319 504.595C605.864 500.576 595.044 495.442 591.283 493.296C588.311 491.602 585.851 490.983 582.53 491.891C577.706 496.212 567.608 523.262 564.743 530.443C556.969 549.928 549.13 569.717 539.627 588.431C537.274 593.065 535.067 598 532.309 602.4C530.34 605.542 527.164 608.285 525.748 611.72C524.078 615.771 523.515 650.322 525.143 653.866L525.911 653.982C529.34 651.102 531.432 646.241 534.581 642.904C533.179 645.512 532.037 648.263 530.577 650.834C528.905 653.778 526.797 656.597 525.424 659.693C523.874 663.185 523.627 667.626 525.305 671.141C525.854 672.289 526.366 672.744 527.517 673.201C528.588 672.87 528.855 672.792 529.566 671.873C531.502 669.371 533.034 666.281 534.695 663.566C540.321 654.373 545.712 644.049 552.801 635.934C545.701 649.912 540.077 664.416 532.907 678.339L534.38 679.854C534.666 679.905 534.952 680.059 535.238 680.008C535.667 679.931 538.291 677.096 538.78 676.639C541.303 674.281 543.695 672.622 546.747 671.033Q544.418 673.301 542.165 675.645C534.568 683.642 526.271 693.479 526.88 705.314C526.958 706.839 527.289 708.011 528.439 709.08C529.601 709.417 530.045 709.56 531.254 709.209C537.862 707.291 542.599 696.999 545.549 691.465Q544.518 695.161 542.983 698.678C539.567 706.377 534.589 711.652 526.605 714.698C522.647 703.64 524.946 692.073 525.363 680.663C523.829 678.246 522.119 675.915 520.539 673.522C520.256 666.728 520.934 659.98 521.222 653.198L522.534 617.022C522.474 596.148 522.128 555.775 509.871 538.547C499.92 564.374 499.997 618.044 500.558 646.769C500.709 654.507 502.863 664.381 502.101 671.707C501.759 674.993 499.489 678.024 497.837 680.81C498.099 692.478 500.228 703.852 496.526 715.228C491.096 712.309 485.689 709.099 482.395 703.671C481.188 701.681 477.745 694.85 478.233 692.731C478.876 694.218 479.531 695.731 480.346 697.133C482.648 701.095 489.097 709.559 493.809 710.502C494.607 710.662 494.832 710.273 495.457 709.859C495.93 708.63 496.032 707.679 495.987 706.355C495.444 690.218 487.18 681.689 475.927 671.379C480.387 673.708 483.982 677.562 488.422 679.661L489.259 679.1L489.274 677.94C484.863 669.905 481.493 661.354 477.787 652.982C475.229 647.203 472.057 641.29 470.267 635.25C470.209 635.055 470.156 634.859 470.101 634.663C478.475 647.585 486.028 661.131 494.537 673.951L495.139 673.935C496.672 672.575 497.362 671.479 497.8 669.462C499.572 661.294 495.29 655.755 491.268 649.331C490.152 647.55 489.137 645.236 487.813 643.637C487.605 643.385 487.363 643.163 487.138 642.927L487.802 642.217L487.036 641.81C488.145 641.986 496.08 652.819 497.643 654.627C498.782 640.854 498.675 626.682 498.509 612.861C492.134 606.187 487.632 596.452 483.315 588.313C476.748 575.931 470.587 563.15 463.414 551.113C448.738 545.594 438.343 538.961 424.777 531.765C416.56 533.453 407.153 535.977 400.819 541.802C405.11 550.215 411.507 557.484 417.694 564.551C435.502 584.894 456.344 604.828 482.578 613.551C472.9 603.223 459.166 587.027 454.971 573.317C461.452 585.064 470.139 595.48 479.224 605.307C482.396 608.737 487.205 612.404 489.557 616.336L488.933 616.693C475.226 615.325 440.276 592.756 428.833 584.036C423.05 579.629 417.771 574.641 412.47 569.678C406.62 571.49 395.405 571.485 390.842 574.949C389.839 575.711 389.577 576.169 389.427 577.39C392.653 587.218 435.89 641.01 446.044 652.275C450.228 656.918 455.156 660.89 459.491 665.405C445.187 655.923 432.262 643.293 420.689 630.678C416.189 625.772 412.08 620.514 407.42 615.757C407.206 615.828 406.992 615.896 406.78 615.97C403.796 617.009 392.071 622.133 390.848 624.627C390.824 628.9 393.325 633.271 395.081 637.103C406.434 661.878 424.559 680.228 442.702 700.107C436.486 697.299 415.737 677.655 410.502 671.587C406.703 667.183 403.599 662.126 399.54 657.953C397.433 655.788 395.846 654.465 392.757 654.43C391.766 654.999 391.631 655.083 391.318 656.254C390.091 660.84 390.342 670.107 391.91 674.533C393.053 677.76 395.063 680.946 396.67 683.98C409.818 708.798 430.988 727.372 445.703 751.128C452.186 761.593 457.673 772.524 463.599 783.291C467.215 789.862 471.359 796.132 474.879 802.76C484.459 820.798 493.46 844.03 495.528 864.383C495.926 868.306 496.67 873.638 495.534 877.487C495.125 878.872 494.732 879.309 493.511 880.018C492.295 879.707 491.935 879.672 491.297 878.451C489.824 875.632 489.952 865.454 489.347 861.509Q488.412 855.533 486.78 849.709C485.208 844.087 482.885 838.66 480.715 833.248C473.934 816.333 465.739 801.056 457.271 784.987C449.537 770.311 437.728 746.86 427.057 734.656C425.837 733.261 424.743 731.993 422.832 731.858C420.384 733.863 420.249 739.049 419.797 742C417.067 737.022 412.147 730.555 406.533 728.874C400.239 729.802 391.114 741.085 386.074 745.384C382.415 748.504 378.461 751.175 374.627 754.063C371.798 763.534 370.971 773.468 370.395 783.294C368.409 817.127 373.424 840.609 382.618 872.85C372.3 855.691 365.441 830.421 363.851 810.434C363.074 800.658 363.563 790.695 363.721 780.893C355.771 798.907 353.859 825.879 350.612 845.512C350.362 847.026 349.987 848.324 348.677 849.245C347.294 849.215 347.401 849.199 346.425 848.202C342.495 835.998 356.718 782.661 360.018 768.441C344.452 792.779 336.732 819.797 330.132 847.637C327.378 859.256 324.692 870.884 322.696 882.662C321.685 847.21 331.216 810.905 346.754 779.243C348.514 775.657 350.395 772.188 352.578 768.835C355.066 765.013 358.402 761.125 360.084 756.892C362.39 751.085 361.271 739.942 361.505 733.328C362.5 705.277 364.14 676.612 362.285 648.569C361.71 639.882 360.546 630.823 357.885 622.504C354.553 612.086 347.69 603 341.51 594.113C332.04 580.494 321.76 567.227 314.525 552.233C307.154 536.96 301.91 520.016 296.948 503.802C294.922 497.181 293.2 490.356 290.738 483.882C287.88 476.366 283.435 469.31 280.073 461.977C272.247 444.907 264.878 427.699 257.275 410.538C244.368 418.197 230.196 433.844 218.147 443.797C204.442 455.117 188.399 466.558 170.035 467.49C164.228 467.785 158.225 466.93 152.443 466.376Q150.782 468.01 148.895 469.377Q147.007 470.743 144.936 471.811C128.512 480.374 99.8594 477.644 82.2526 473.525C77.5589 472.427 73.2928 469.906 68.5548 469.036C60.7297 467.599 52.654 468.965 44.9291 466.442C40.3761 464.954 35.6364 462.494 33.4766 457.982C30.4009 451.556 33.0372 444.712 35.3713 438.557C32.987 430.875 28.081 424.256 25.9743 416.313C24.1448 409.416 24.8621 402.892 28.6166 396.756C33.7849 388.309 50.6036 376.902 58.8411 368.944C69.4023 358.74 78.2903 347.351 87.9988 336.406C109.948 311.662 134.09 310.988 163.712 303.557C173.727 287.696 186.437 271.954 199.906 258.889C205.698 253.271 212.086 248.406 219.31 244.772C239.464 234.633 277.3 227.32 299.02 233.834C304.371 235.439 308.642 238.085 313.292 241.104C322.36 246.994 331.106 248.336 341.812 248.516C346.521 245.209 350.701 240.832 355.254 237.252C364.474 230.001 374.571 223.271 384.676 217.324C395.309 211.067 417.884 201.717 425.236 193.571C433.419 184.506 435.457 170.165 444.87 159.334C458.272 143.912 487.982 140.013 507.304 138.712Z"/>
	<path fill="#FEFEFE" transform="scale(0.25 0.25)" d="M469.688 151.379L470.367 151.679C471.699 155.041 468.583 168.591 467.997 172.736C466.808 181.147 466.196 189.716 465.861 198.201C465.66 203.306 465.831 208.546 465.238 213.615C462.991 232.832 443.404 252.984 428.936 264.505C434.28 268.952 440.855 272.567 446.7 276.353C456.503 282.704 466.272 289.336 475.531 296.465C487.6 305.758 496.181 314.756 500.907 329.469C503.308 336.945 504.88 343.423 503.135 351.206C502.425 354.375 501.534 357.627 501.58 360.897C501.781 374.967 504.612 389.476 505.018 403.723C505.284 413.076 503.172 422.182 503.065 431.49C502.972 439.636 504.057 447.836 504.79 455.937C505.571 464.564 506.081 473.151 507.214 481.75C507.448 470.068 507.933 458.181 508.887 446.537C509.658 437.128 510.963 428.446 510.706 418.914Q510.455 409.176 509.488 399.482C508.353 388.623 504.886 371.221 510.122 361.1C510.607 360.162 510.648 360.085 511.678 359.751C511.824 359.853 511.984 359.936 512.115 360.055C515.014 362.681 515.892 371.775 516.027 375.586C516.486 388.444 513.134 401.57 512.482 414.461C512.183 420.366 511.921 426.361 512.151 432.27C512.408 438.844 513.175 445.4 513.008 451.986C512.628 467.006 511.987 482.191 511.094 497.19C510.665 504.398 509.791 511.608 509.712 518.829C498.524 534.445 502.649 557.263 499.173 575.781C497.983 582.119 494.876 587.826 492.771 593.883C482.801 578.533 473.747 557.281 465.949 540.463C461.609 531.102 456.558 521.907 452.789 512.307C454.778 511.001 458.06 509.84 459.5 507.978C460.09 507.215 459.921 507.58 459.76 506.483C456.896 505.531 453.634 508.125 450.445 506.854C448.461 506.064 447.492 503.968 446.773 502.11C443.874 494.618 443.459 485.931 441.229 478.181C439.091 470.749 434.996 464.059 432.246 456.846C434.888 454.475 437.899 452.579 440.542 450.149L440.171 448.747C436.987 448.725 433.913 449.783 430.868 450.616Q429.594 444.791 427.754 439.119Q425.914 433.447 423.526 427.983C421.38 423.008 418.618 418.003 417.181 412.785C414.42 402.76 415.251 392.079 413.93 381.859L413.844 381.226C408.283 377.458 401.736 375.1 395.564 372.521C386.489 368.729 377.405 365.046 368.682 360.479C364.435 358.255 361.031 355.255 357.546 351.983C350.247 345.133 344.427 336.68 337.388 329.517C329.2 321.184 319.28 314.01 311.839 305.073C304.899 296.739 301.58 284.117 302.487 273.451C302.087 273.184 301.688 272.914 301.273 272.671C290.352 266.269 279.048 269.933 267.536 271.878C261.043 272.974 254.463 273.725 248.098 275.449C247.119 276.115 246.929 276.247 246.418 277.303C250.006 281.578 283.939 274.784 292.615 277.174C294.436 277.675 295.82 278.727 296.751 280.374C297.961 282.513 299.72 288.676 298.949 290.955C296.886 297.059 276.713 290.551 272.372 292.718L272.641 293.381C282.072 299.872 292.612 300.484 303.682 300.525C306.61 304.248 308.582 308.636 311.772 312.198C318.955 320.219 328.182 326.664 335.73 334.483C344.196 343.253 352.67 353.981 352.169 366.911C351.949 372.587 349.489 377.335 345.265 381.078C326.634 397.58 296.392 386.347 275.682 380.374C264.339 377.102 252.807 373.751 241.202 371.585C222.091 368.02 202.073 367.042 182.692 365.756C188.386 363.902 217.458 355.266 219.554 351.524L219.184 350.706C217.741 350.02 216.6 349.81 214.997 350.014C209.035 350.773 202.79 352.938 196.937 354.45C184.419 357.684 171.944 360.876 159.109 362.576C161.722 357.931 163.106 352.967 165.07 348.05C166 345.722 167.362 343.519 168.214 341.186C168.651 339.99 168.924 339.259 168.374 338.066C165.329 338.66 153.63 353.62 150.86 357.087C151.571 350.247 152.101 343.461 154.126 336.848C161.606 312.427 186.193 277.974 205.556 261.856C226.492 244.427 260.764 235.273 287.583 237.763C294.612 238.416 307.559 241.532 312.061 247.482C312.651 248.261 312.495 247.886 312.356 248.952C309.291 250.774 304.508 248.934 301.758 250.764C307.54 256.659 317.587 253.248 324.618 255.288C325.346 257.848 318.89 269.49 321.423 278.06C323.435 284.867 329.667 287.156 334.501 291.49C343.041 299.145 348.786 309.674 357.19 317.373C360.147 320.082 363.786 321.758 367.315 323.593C356.84 310.017 333.2 292.816 329.198 277.052C328.045 272.511 328.006 266.242 330.965 262.332C333.622 258.821 337.761 258.219 341.07 255.679C345.936 251.944 350.461 247.779 355.361 244.058C364.176 237.364 373.771 231.106 383.194 225.297C405.003 211.852 426.304 202.87 445.337 184.922C454.607 176.18 458.557 164.861 464.648 154.071C466.293 153.121 468.01 152.27 469.688 151.379Z"/>
	<path transform="scale(0.25 0.25)" d="M365.276 329.321C370.842 330.311 378.754 338.602 384.863 341.214C398.947 347.236 411.695 343.738 425.57 354.802C431.815 359.782 437.514 366.523 438.237 374.764C438.57 378.555 437.836 384.995 435.123 387.917C434.411 388.684 434.2 388.676 433.222 388.724C432.186 387.837 432.043 386.928 431.725 385.665L431.596 385.137C431.723 379.52 431.084 374.436 428.726 369.277C424.031 359.01 415.741 353.998 405.515 350.244C406.737 351.401 408.023 352.397 409.307 353.479C410.54 354.519 411.864 355.792 411.997 357.477L411.18 358.043C410.578 357.958 410.44 357.961 409.903 357.815C404.629 356.384 398.629 348.983 393.51 346.069C385.347 341.423 375.155 343.912 367.87 336.568C365.833 334.515 365.325 332.117 365.276 329.321Z"/>
	<path fill="#FEFEFE" transform="scale(0.25 0.25)" d="M552.912 151.266C558.872 154.393 563.889 167.457 567.939 173.404C572.319 179.836 577.35 185.894 583.37 190.86C602.506 206.641 625.12 216.094 646.204 228.71C652.377 232.404 658.686 236.421 664.101 241.17C668.646 245.156 672.824 250.025 677.827 253.413C682.935 256.871 689.392 257.816 694.742 261.318C692.758 270.768 690.946 279.917 690.256 289.584C692.728 286.595 694.486 285.025 698.261 283.739C699.121 275.89 700.29 268.078 701.145 260.227C704.876 256.851 709.514 256.438 712.874 253.644C712.326 252.106 707.792 252.926 706.363 251.528C706.612 250.292 707.565 249.611 708.542 248.908C711.928 246.473 716.155 244.791 719.974 243.166C734.66 236.915 740.884 237.142 756.601 239.555C793.982 245.293 818.817 257.074 841.732 288.527C850.113 300.03 865.058 322.321 867.843 335.988C868.777 340.569 868.465 344.688 867.731 349.261C864.023 346.378 857.783 340.197 853.268 339.214C854.746 344.628 863.364 350.299 863.669 356.629C863.739 358.07 863.506 358.244 862.612 359.265C854.013 362.437 810.332 350.754 798.026 348.991C810.883 358.797 823.197 358.021 836.983 363.47L836.488 363.609C818.612 368.596 800.514 368.158 782.432 371.576C765.876 374.705 749.66 379.1 733.276 382.958C723.814 385.186 713.902 387.988 704.157 388.367C696.043 388.682 686.509 386.624 679.472 382.493C675.209 379.991 671.526 376.442 670.347 371.487C667.277 358.588 679.839 342.082 687.83 333.249C692.986 327.55 698.891 322.611 703.884 316.739C707.705 312.246 710.639 306.832 713.787 301.851C724.665 300.133 742.603 300.565 751.946 296.175C752.508 295.91 752.282 296.093 752.543 295.378C745.656 292.57 736.272 294.927 728.941 293.326C727.18 292.942 725.447 292.101 724.589 290.415C722.571 286.451 725.427 280.16 726.698 276.194L737.141 278.556C751.369 281.092 767.513 280.912 781.523 277.284C772.681 274.921 762.676 274.826 753.576 273.744C743.254 272.517 733.163 270.525 722.978 268.494Q722.784 270.131 722.556 271.763C722.389 273.048 722.199 274.28 721.834 275.528C718.22 287.882 707.698 307 698.879 316.261C692.636 322.816 685.609 328.521 679.787 335.503C675.173 341.036 672.443 348.565 666.244 352.628C647.793 364.721 626.158 369.802 607.023 380.363C607.225 382.125 607.388 383.9 607.38 385.674C607.328 397.169 600.181 417.633 597.315 429.608C596.058 434.859 595.655 440.332 594.098 445.507C593.642 447.02 593.222 448.406 592.088 449.551C587.819 451.4 581.932 449.685 577.482 448.952C581.1 452.062 585.66 453.712 589.408 456.668C589.83 457.577 589.822 458.411 589.742 459.393C589.502 462.313 588.338 465.267 587.36 468.008C585.424 473.437 583.123 478.678 580.16 483.629C578 487.24 575.295 490.916 573.535 494.723C572.146 497.727 571.65 505.162 568.659 506.957C565.912 508.607 560.986 506.252 558.449 508.32L558.448 509.118C560.663 511.115 563.734 512.317 566.387 513.654C563.072 526.926 555.712 539.593 550.017 552.029C543.404 566.472 537.388 581.083 529.927 595.132C529.204 586.976 526.452 579.171 525.166 571.101C523.413 560.105 522.972 548.926 520.742 537.994C519.429 531.555 516.406 525.269 515.645 518.769C514.999 513.249 515.435 507.247 515.46 501.68Q515.392 481.072 516.958 460.524C517.64 452.171 519.126 443.816 519.448 435.447C519.784 426.733 518.557 418.072 518.433 409.362C518.341 402.899 519.806 362.225 521.535 357.701C518.998 350.192 517.994 344.343 519.829 336.531C521.915 327.653 525.491 318.854 531.068 311.583C543.498 295.378 575.957 276.887 593.965 265.691C588.572 260.33 582.969 255.145 577.806 249.56C572.546 243.871 568.151 237.779 564.349 231.027C554.502 213.543 557.734 206.447 555.769 187.792C554.488 175.624 552.465 163.535 552.912 151.266Z"/>
	<path transform="scale(0.25 0.25)" d="M659.377 327.013L659.706 327.554Q659.276 328.497 658.784 329.41C651.286 343.107 637.657 341.544 626.64 347.309C622.365 349.546 618.301 356.366 613.483 357.201C612.115 357.438 611.845 357.252 610.749 356.556L610.673 355.804C612.008 353.775 613.839 352.318 615.648 350.726C609.362 353.241 603.716 355.98 599.121 361.115C592.71 368.279 590.596 376.426 591.178 385.878C591.352 386.846 591.266 387.561 591.106 388.528C590.15 389.292 590.065 389.324 588.844 389.409C588.273 389.024 588.177 389.001 587.656 388.427C585.366 385.901 584.482 378.147 584.546 374.782C584.624 370.655 587.039 366.769 589.317 363.461C596.3 353.318 606.912 347.693 618.866 345.53C623.682 344.659 628.856 344.249 633.476 342.56C637.692 341.019 656.462 329.817 659.377 327.013Z"/>
	<path transform="scale(0.25 0.25)" d="M682.493 291.425L682.819 292.177C677.03 301.17 671.706 317.106 660.639 320.299L660.068 319.727L660.086 319.045C663.928 314.768 667.843 310.485 671.303 305.893C674.808 301.241 678.128 295.266 682.493 291.425Z"/>
	<path fill="#FEFEFE" transform="scale(0.25 0.25)" d="M877.078 334.124C892.725 340.23 909.456 346.23 923.473 355.563Q928.759 359.083 933.613 363.18C938.804 367.641 948.808 379.362 955.331 380.958L955.618 380.42C953.615 374.001 934.77 356.237 929.018 351.219C931.634 352.354 934.107 353.761 936.566 355.2C949.389 362.709 958.552 372.057 969.569 381.676C974.793 386.238 980.811 390.587 985.283 395.909C987.886 399.008 990.296 402.947 991.228 406.91C993.191 415.264 987.327 427.704 982.839 434.53Q978.354 426.599 973.1 419.155Q967.846 411.711 961.875 404.829C958.592 401.024 948.647 389.572 943.795 389.217L943.255 389.81C944.277 394.096 958.087 407.794 961.642 412.522C969.195 422.57 977.353 433.424 982.457 444.95C984.049 448.546 985.887 453.865 984.059 457.644C983.226 459.366 981.81 460.536 980.02 461.173C974.48 463.143 965.895 461.34 959.628 462.416C951.568 463.799 944.136 466.746 936.307 468.871C919.923 473.318 900.013 473.875 884.317 466.589Q898.332 465.38 912.311 463.812C918.021 463.221 947.858 460.251 951.047 456.863L950.88 456.088C944.285 452.063 887.911 459.323 875.494 460.175C867.245 460.742 858.572 461.157 850.332 460.369C821.948 457.653 791.706 426.596 774.061 405.423C777.468 407.272 780.545 409.699 783.929 411.613C790.956 415.588 799.972 418.885 807.876 420.669C809.641 421.067 811.914 421.629 813.482 420.617C812.383 417.743 785.491 406.158 780.025 399.61C778.985 398.364 778.73 397.549 778.871 395.953C779.865 394.577 780.843 393.673 782.244 392.708C790.699 386.886 800.063 382.945 809.685 379.574C847.605 366.285 874.922 372.063 912.605 379.056C916.439 379.768 925.956 382.191 929.251 379.933L928.879 379.101C919.534 373.91 898.35 370.671 887.02 366.898C884.697 355.371 881.27 345.072 877.078 334.124Z"/>
	<path fill="#FEFEFE" transform="scale(0.25 0.25)" d="M146.264 334.98C146.697 335.053 146.418 334.968 146.983 335.478C146.021 338.487 144.077 341.328 142.788 344.255Q138.023 355.08 133.981 366.195C124.288 372.446 103.933 372.907 96.8587 380.86L97.1181 381.454C103.463 382.271 126.041 376.139 134.086 374.843C144.301 373.198 154.425 372.387 164.768 372.279C190.147 372.013 208.287 373.959 230.729 387.378C236.212 390.657 241.762 393.944 246.348 398.437C233.761 406.01 219.126 413.478 208.516 423.727C220.669 420.597 232.414 414.386 244.288 410.174C229.067 425.578 205.452 449.928 185.284 457.651C178.004 460.439 169.96 461.471 162.195 461.36C153.963 461.243 145.572 459.891 137.384 458.992Q116.602 456.583 95.7398 455.017C90.4123 454.64 78.559 453.223 74.0866 455.547L73.8948 456.346C78.4373 461.367 110.521 463.48 118.377 464.412C126.837 465.075 135.387 465.207 143.866 465.622C140.229 467.547 136.726 468.835 132.704 469.675C118.054 472.733 100.387 471.514 85.9426 467.729C80.3904 466.274 74.8108 463.578 69.163 462.748C60.0639 461.41 49.6204 464.242 41.4552 458.53C39.5434 457.193 38.2813 455.347 38.0073 453.004C36.7075 441.888 61.6593 411.742 69.4075 402.594C72.0108 399.521 75.198 396.723 77.6029 393.526C78.3316 392.557 78.3553 392.486 78.1879 391.344C77.6043 390.923 77.5034 390.644 76.7223 390.75C67.6219 391.989 45.1731 425.357 39.3594 433.775C35.837 426.21 28.8102 414.754 31.1095 406.272C33.8043 396.331 43.0257 390.585 50.2581 384.113C66.7617 369.343 75.815 361.304 95.5879 350.369C88.8164 355.929 68.2696 373.397 67.1207 381.143L67.5203 381.402C67.606 380.651 68.3338 380.177 68.8421 379.634L69.6621 380.281L69.7132 379.938C78.0249 373.624 85.3887 366.054 93.6796 359.701C109.111 347.876 128.109 341.395 146.264 334.98Z"/>
	<path fill="#FEFEFE" transform="scale(0.25 0.25)" d="M505.079 145.287C518.921 143.974 536.306 146.163 549.541 150.475C547.794 167.197 550.411 184.127 550.621 200.897C550.923 225.066 546.653 248.092 541.661 271.638C539.507 281.797 537.398 294.787 531.497 303.393C533.473 267.191 548.723 189.578 536.274 158.646C540.502 196.456 532.748 239.327 529.009 277.465C528.076 286.975 529.224 297.446 527.381 306.717C526.651 310.389 522.47 315.618 520.794 319.539C519.171 323.335 517.45 327.222 516.41 331.225C515.416 335.052 515.487 339.184 515.063 343.109C514.575 347.628 513.783 352.09 513.419 356.628C512.65 357.01 512.221 357.09 511.363 357.067C508.886 355.213 508.881 352.064 508.369 349.25C507.228 342.981 508.246 336.024 506.333 330.014C505.015 325.874 503.163 321.548 501.11 317.723C499.283 314.318 496.186 310.246 495.353 306.466C494.163 301.065 494.441 295.22 494.235 289.713Q493.882 281.46 493.031 273.244C490.399 247.029 485.615 221.131 484.829 194.734C484.451 182.02 485.901 169.658 486.446 156.997C484.55 165.46 482.423 173.689 481.567 182.358C478.956 208.795 483.307 234.935 486.793 261.052Q489.749 282.747 491.446 304.576C485.919 294.378 483.389 281.959 480.758 270.729C474.291 243.131 470.688 216.345 471.766 187.951C472.244 175.346 473.985 162.86 474.101 150.224C484.44 146.82 494.282 145.673 505.079 145.287Z"/>
	<path fill="#FEFEFE" transform="scale(0.25 0.25)" d="M660.917 361.053C661.635 361.829 667.448 413.764 671.451 419.216L671.891 418.995C672.531 406.927 670.393 394.704 670.25 382.609C672.311 384.242 674.524 385.823 676.822 387.102C691.904 395.496 709.374 394.108 725.376 389.476C718.291 401.828 704.629 410.286 694.529 420.182C683.213 431.271 675.059 444.277 667.785 458.22Q663.915 466.436 660.788 474.963C657.154 485.005 654.855 498.318 644.273 503.653C642.414 504.589 640.348 504.857 638.358 504.178C632.221 502.085 626.494 492.099 623.803 486.501C621.286 481.265 619.544 475.692 617.742 470.18C615.568 463.534 613.393 456.926 611.961 450.069C610.554 443.336 610.036 436.458 609.506 429.614C608.224 413.044 607.981 398.596 613.52 382.576C621.48 377.609 630.943 374.527 639.632 371.062C646.984 368.131 653.975 364.867 660.917 361.053Z"/>
	<path fill="#FEFEFE" transform="scale(0.25 0.25)" d="M362.118 363.25C371.015 366.391 398.782 377.24 405.214 382.254C409.227 385.382 410.302 389.356 410.956 394.222C413.183 410.781 411.098 446.927 406.968 463.243C404.637 472.453 396.334 490.97 390.433 498.546C386.624 503.437 382.499 503.456 376.712 504.182C373.27 488.487 363.474 474.608 356.502 460.258C350.163 448.064 343.24 436.097 333.84 425.965C328.174 419.858 321.669 414.512 315.692 408.71C310.306 403.481 305.406 397.646 300.808 391.721C304.412 392.433 308.008 393.009 311.668 393.355C326.164 394.727 341.24 392.836 352.766 383.314C352.656 392.298 349.943 410.834 351.211 418.185L351.933 418.33C356.965 412.021 360.361 372.963 362.118 363.25Z"/>
	<path fill="#FEFEFE" transform="scale(0.25 0.25)" d="M231.187 378.732C236.337 378.408 241.638 378.867 246.746 379.527C256.515 380.791 276.928 384.362 285.429 388.407C290.408 390.776 319.104 417.403 324.69 423.053Q330.83 429.197 336.14 436.071C348.932 452.664 360.11 472.078 361.941 493.257C362.211 496.375 362.679 499.636 362.278 502.747C361.448 503.594 360.801 503.858 359.605 503.998C356.268 504.391 352.219 503.314 349.001 502.483C333.809 498.562 320.905 491.153 308.733 481.394C285.221 461.894 276.19 439.913 264.723 412.581C274.96 418.403 284.924 425.645 294.098 433.028C299.579 437.438 304.797 442.319 310.6 446.294C300.6 426.574 264.245 400.736 245.623 388.124C242.569 386.056 232.524 381.43 231.187 378.732Z"/>
	<path fill="#FEFEFE" transform="scale(0.25 0.25)" d="M788.854 377.736L789.627 377.794C787.706 380.221 778.815 385.046 775.624 387.272Q769.219 391.786 763.088 396.667C755.257 402.965 747.796 409.825 740.205 416.419C729.29 425.901 718.208 435.327 707.714 445.272C725.01 437.584 739.287 426.312 754.39 415.125C746.901 444.55 737.139 459.488 714.025 479.25C703.383 488.135 692.616 496.187 679.835 501.833C675.939 503.553 670.184 505.473 666.083 503.695C664.361 502.948 663.367 501.608 662.718 499.886C659.931 492.494 664.056 483.916 666.659 477.052C675.146 454.675 685.954 435.961 702.968 418.883C713.225 408.588 724.531 401.085 730.95 387.565C740.958 386.256 750.653 383.735 760.521 381.728Q774.586 379.011 788.854 377.736Z"/>
	<path fill="#FEFEFE" transform="scale(0.25 0.25)" d="M722.823 488.396C722.853 488.709 722.934 489.02 722.912 489.333C722.616 493.446 719.116 499.351 717.265 503.087C705.296 527.25 694.309 540.675 671.7 555.618C649.236 570.464 641.776 573.224 615.414 567.861C614.114 567.451 613.52 567.441 612.649 566.361C613.468 562.497 627.244 545.518 630.347 541.076Q638.346 540.317 646.278 539.034C679.669 533.314 703.673 515.575 722.823 488.396Z"/>
	<path fill="#FEFEFE" transform="scale(0.25 0.25)" d="M302.95 494.948C308.59 499.992 313.349 506.167 318.89 511.37C333.995 525.554 352.668 536.423 373.027 540.774C379.779 542.218 386.723 542.691 393.53 543.875C396.776 547.268 407.154 560.733 407.758 564.805C406.91 566.163 405.419 566.556 404.007 567.151C400.979 568.219 397.954 569.26 394.815 569.96C380.347 573.187 366.314 567.186 354.284 559.543C333.212 546.155 308.458 519.956 302.95 494.948Z"/>
	<path fill="#FEFEFE" transform="scale(0.25 0.25)" d="M703.342 535.909C703.388 536.403 703.389 536.221 703.319 536.912C703.032 539.773 701.202 543.308 700.099 545.949C693.56 561.607 683.923 578.498 670.716 589.468C658.843 599.33 638.876 607.86 623.196 606.375C622.788 605.686 622.449 604.96 622.091 604.244C622.177 597.414 634.574 579.666 640.409 575.741C644.256 573.153 650.12 572.297 654.432 570.322C670.517 562.954 692.489 549.87 703.342 535.909Z"/>
	<path fill="#FEFEFE" transform="scale(0.25 0.25)" d="M316.444 535.285C320.545 537.724 324.518 543.243 327.968 546.679Q333.204 551.798 338.98 556.299Q341.738 558.413 344.628 560.341Q347.519 562.27 350.531 564.003Q353.542 565.737 356.661 567.269Q359.78 568.801 362.993 570.124C367.183 571.854 371.659 573.177 375.676 575.274C378.172 576.576 380.324 578.281 382.223 580.355C384.854 583.228 397.33 600.056 398.223 603.321C398.551 604.518 398.291 604.7 397.708 605.722C387.835 608.989 376.798 606.659 367.706 602.1C340.891 588.652 325.492 563.013 316.444 535.285Z"/>
	<path fill="#FEFEFE" transform="scale(0.25 0.25)" d="M704.529 498.498C704.562 501.077 701.891 504.451 700.238 506.385C684.744 524.508 656.613 534.253 633.491 535.969C624.802 536.613 610.22 537.614 603.117 531.5C602.776 530.998 602.391 530.473 602.115 529.927C601.473 528.66 601.302 527.675 601.768 526.329C603.159 522.314 610.117 512.498 614.295 511.192C619.415 509.592 625.431 512.207 630.575 512.924C647.386 515.268 667.933 514.091 683.844 508.317C690.981 505.727 697.779 501.949 704.529 498.498Z"/>
	<path fill="#FEFEFE" transform="scale(0.25 0.25)" d="M316.71 499.281C321.162 499.741 336.588 506.255 342.775 507.843C359.105 512.033 375.421 511.674 392.109 512.116C407.121 512.514 410.261 516.581 420.146 526.991C418.194 527.935 416.166 528.706 414.154 529.512C399.737 534.336 386.962 537.853 371.794 534.119C353.804 529.691 326.47 515.571 316.71 499.281Z"/>
	<path fill="#FEFEFE" transform="scale(0.25 0.25)" d="M436.69 491.432C436.724 491.442 436.762 491.443 436.793 491.46C439.705 493.081 442.3 503.198 443.427 506.441C448.443 520.885 458.244 532.971 462.493 547.897C454.683 545.177 448.638 541.516 442.024 536.608C428.809 526.026 416.132 514.866 403.374 503.748Q420.269 498.23 436.69 491.432Z"/>
	<path fill="#FEFEFE" transform="scale(0.25 0.25)" d="M868.897 313.014C877.046 312.571 886.772 315.097 894.615 317.364C910.113 321.844 933.432 338.202 941.238 352.503L940.919 352.931L939.304 352.13C935.912 350.222 932.784 349.024 928.854 349.559C928.68 349.583 928.505 349.61 928.331 349.636L928.511 348.714L927.904 349.745L928.151 349.683L928.017 349.171L927.366 349.914C916.31 346.11 883.496 331.479 874.542 325.013C871.6 322.888 868.76 319.977 867.153 316.678C866.56 315.459 866.601 314.974 867.071 313.743L868.897 313.014Z"/>
	<path fill="#FEFEFE" transform="scale(0.25 0.25)" d="M147.608 313.654C149.097 313.443 151.109 313.38 152.433 314.211C153.673 314.989 153.716 315.577 153.97 316.887C153.656 318.023 153.272 318.894 152.487 319.791C143.42 330.159 122.377 338.608 109.641 344.075C105.44 345.879 100.092 348.886 95.5112 349.001C93.1446 349.06 91.3018 349.261 89.0156 349.971L88.3756 350.176L81.5456 353.413C99.4572 327.911 117.567 318.964 147.608 313.654Z"/>
	<path fill="#FEFEFE" transform="scale(0.25 0.25)" d="M653.231 634.905C654.018 635.779 653.732 637.716 653.664 638.865C653.028 649.713 651.795 660.472 651.523 671.352C650.836 698.833 652.769 726.199 655.443 753.525C654.118 752.235 652.6 751.129 651.145 749.988C650.483 749.391 649.684 748.772 649.366 747.903C648.36 745.148 648.56 741.377 648.047 738.418C646.835 731.414 645 724.525 643.955 717.486C641.74 702.577 642.463 656.541 647.484 643.181C648.507 640.459 651.465 637.278 653.231 634.905Z"/>
	<path fill="#FEFEFE" transform="scale(0.25 0.25)" d="M365.447 630.87C366.653 631.741 367.324 632.811 368.09 634.061C372.637 641.491 374.061 651.39 375.296 659.888C380.234 693.862 377.334 717.544 369.067 750.543Q368.259 755.415 367.336 760.267C365.657 745.478 367.379 729.571 367.918 714.679C368.676 693.748 369.509 672.041 367.957 651.155C367.449 644.325 366.392 637.645 365.447 630.87Z"/>
	<path fill="#FEFEFE" transform="scale(0.25 0.25)" d="M666.541 597.946L667.064 598.738C666.767 599.92 666.409 600.99 665.927 602.112C663.376 608.04 659.491 613.691 656.05 619.141C647.336 632.945 638.832 646.929 622.867 653.277L622.364 652.969C623.453 649.314 626.239 645.571 628.068 642.186C630.329 638.003 632.208 633.75 633.948 629.329L636.183 624.332C642.604 622.339 647.387 620.66 652.119 615.674C646.939 617.859 641.336 619.539 635.657 618.845C632.444 618.453 619.143 614.383 617.305 611.993C619.694 610.119 631.046 611.79 635.016 610.861C646.068 608.274 656.602 603.317 666.541 597.946Z"/>
	<path fill="#FEFEFE" transform="scale(0.25 0.25)" d="M417.954 443.738C421.149 449.238 423.218 455.163 425.75 460.973C429.181 468.844 432.905 476.457 435.425 484.694C430.451 487.812 425.149 489.914 419.703 492.029Q417.468 492.792 415.202 493.457C412.243 494.343 407.947 495.861 405.058 494.309C404.602 492.272 405.179 489.858 405.625 487.836C407.117 481.066 409.638 474.447 411.462 467.746C413.636 459.761 414.878 451.448 417.954 443.738Z"/>
	<path fill="#FEFEFE" transform="scale(0.25 0.25)" d="M355.709 601.769C359.475 602.982 363.147 604.865 366.913 606.187C378.769 610.347 389.51 610.658 401.896 610.311C403.201 611.258 404.411 612.337 405.641 613.378C391.609 618.258 386.951 621.526 371.69 618.189C375.836 621.173 379.663 622.794 384.612 623.795L386.975 628.862C390.855 636.814 394.77 645.166 397.826 653.463C392.607 650.242 387.579 647.031 383.138 642.749C373.482 633.439 363.206 613.747 355.709 601.769Z"/>
	<path fill="#FEFEFE" transform="scale(0.25 0.25)" d="M602.127 447.329C603.453 451.341 603.961 455.608 605.41 459.607C609.975 472.198 616.684 484.282 620.183 497.239L619.558 498.18C616.704 499.123 613.498 497.375 610.872 496.293C605.244 493.521 593.499 490.414 590.105 485.279C587.111 480.748 597.087 462.811 599.234 457.455C600.547 454.182 601.338 450.759 602.127 447.329Z"/>
	<path fill="#FEFEFE" transform="scale(0.25 0.25)" d="M640.892 646.389C641.878 654.796 639.67 664.421 638.878 672.894C638.062 681.636 637.807 690.649 637.938 699.431C638.166 714.624 642.656 728.974 643.191 744.079C640.653 741.841 637.921 739.838 635.227 737.793C630.894 734.416 626.463 731.043 622.835 726.894C625.496 722.851 628 718.97 629.592 714.375C633.14 704.133 633.057 692.02 634.097 681.26C634.625 675.805 635.546 670.393 636.009 664.933C636.431 659.957 636.001 655.356 636.951 650.361C638.159 648.947 639.557 647.683 640.892 646.389Z"/>
	<path fill="#FEFEFE" transform="scale(0.25 0.25)" d="M384.597 667.997C384.646 668.081 384.692 668.167 384.743 668.249C389.85 676.392 388.524 696.334 390.632 706.638C391.979 713.216 394.873 719.097 397.341 725.287C394.454 730.948 389.017 735.343 384.282 739.414L377.197 745.373C377.757 739.69 379.258 734.079 380.39 728.486Q382.399 718.421 383.337 708.2C383.995 700.676 384.001 693.127 383.938 685.582C383.889 679.789 383.521 673.708 384.597 667.997Z"/>
	<path fill="#FEFEFE" transform="scale(0.25 0.25)" d="M392.937 684.285C393.067 684.398 393.215 684.493 393.326 684.625C397.135 689.144 399.769 696.112 402.903 701.232C406.259 706.713 410.461 711.841 413.493 717.496C414.279 718.961 414.597 719.911 414.541 721.575C414.047 721.733 413.763 721.845 413.219 721.909C409.904 722.298 405.664 720.019 403.367 717.786C394.387 709.055 393.114 696.118 392.937 684.285Z"/>
	<path fill="#FEFEFE" transform="scale(0.25 0.25)" d="M554.227 249.273C557.574 251.928 560.295 256.055 563.07 259.316C566.302 263.114 569.726 266.761 573.116 270.418C571.381 271.801 569.541 273.082 567.758 274.405L563.656 277.223C560.352 273.653 556.198 269.858 553.818 265.617C550.778 260.199 552.698 254.803 554.227 249.273Z"/>
	<path fill="#FEFEFE" transform="scale(0.25 0.25)" d="M467.771 249.309C470.289 252.119 470.8 259.274 471.199 262.984C469.175 266.771 463.254 275.04 459.009 276.318C458.222 276.555 457.417 275.771 456.749 275.386C454.52 273.822 452.556 272.269 450.603 270.357C456.473 263.445 462.009 256.303 467.771 249.309Z"/>
	<path fill="#FEFEFE" transform="scale(0.25 0.25)" d="M629.074 685.311C629.272 685.986 629.432 686.537 629.475 687.243C630.026 696.234 627.105 708.419 621.182 715.344C617.403 719.763 612.533 722.274 606.752 722.637C606.542 721.35 606.726 720.544 607.417 719.433C610.425 714.597 614.251 710.137 617.496 705.436C621.93 699.012 625.579 692.27 629.074 685.311Z"/>
	<path fill="#FEFEFE" transform="scale(0.25 0.25)" d="M556.042 230.284C559.097 232.974 561.812 238.705 564.261 242.191C566.955 246.025 569.84 249.621 572.943 253.129C575.146 255.618 582.31 262.139 582.87 264.654L581.815 265.546L577.395 267.136C569.079 259.096 561.746 249.329 555.684 239.471C555.596 236.334 555.616 233.398 556.042 230.284Z"/>
	<path fill="#FEFEFE" transform="scale(0.25 0.25)" d="M466.255 229.826C466.957 232.162 467.214 235.379 466.809 237.782C465.704 244.33 452.492 262.547 446.472 265.952C445.07 266.746 444.593 266.41 443.114 266.028C442.23 265.355 441.662 264.903 441.134 263.915C442.756 259.857 448.255 255.781 451.166 252.272C456.874 245.388 461.676 237.485 466.255 229.826Z"/>
	<path fill="#FEFEFE" transform="scale(0.25 0.25)" d="M472.362 272.452C474.796 275.023 479.155 290.992 480.46 294.94C478.743 293.399 476.981 291.903 475.241 290.387C471.367 287.181 467.654 283.765 463.898 280.423L472.362 272.452Z"/>
	<path fill="#FEFEFE" transform="scale(0.25 0.25)" d="M549.997 271.387C553.284 273.97 556.245 277.458 559.213 280.425C555.397 283.458 551.609 286.497 547.932 289.699L542.675 294.322C545.541 286.753 547.976 279.225 549.997 271.387Z"/>
	<path fill="#FEFEFE" transform="scale(0.25 0.25)" d="M379.016 646.648C381.821 647.272 384.022 648.442 385.643 650.895C388.822 655.705 387.697 662.098 386.763 667.423L386.363 667.936C383.073 661.875 380.288 653.424 379.016 646.648Z"/>
	<path fill="#FEFEFE" transform="scale(0.25 0.25)" d="M566.175 156.803C574.215 161.706 578.999 171.297 582.348 179.741C575.64 175.729 569.322 163.838 566.175 156.803Z"/>
	<path fill="#FEFEFE" transform="scale(0.25 0.25)" d="M454.745 158.376L455.128 158.743C454.671 163.859 443.706 175.749 439.963 179.853L439.528 179.524C440.424 172.654 449.659 162.81 454.745 158.376Z"/>
	<path transform="scale(0.25 0.25)" d="M510.253 714.529C511.334 717.664 511.195 721.912 511.498 725.271C512.699 738.557 512.883 751.853 513.185 765.183C513.582 782.686 514.233 807.758 510.783 824.634C508.971 808.054 507.607 791.147 507.705 774.464C507.822 754.436 509.641 734.519 510.253 714.529Z"/>
	<path transform="scale(0.25 0.25)" d="M409.842 753.929L410.142 754.258C410.482 758.426 409.123 763.498 408.775 767.785Q408.037 778.129 408.344 788.495Q408.573 798.257 409.66 807.96C410.186 812.904 411.856 819.75 411.18 824.501L410.523 823.199C400.194 799.422 401.79 778.172 409.842 753.929Z"/>
	<path transform="scale(0.25 0.25)" d="M616.65 757.862C616.806 758.132 616.981 758.39 617.117 758.671C618.476 761.488 618.862 766.979 619.173 770.096C621.032 788.672 619.416 806.448 612.595 823.929L611.58 825.685L611.258 825.429C610.834 817.864 612.986 807.199 613.751 799.32C615.092 785.503 615.881 771.72 616.65 757.862Z"/>
	<path transform="scale(0.25 0.25)" d="M544.78 712.916C544.952 713.182 545.204 713.41 545.297 713.713C545.532 714.478 536.877 733.428 535.816 739.081C535.38 741.404 535.738 743.734 536.022 746.054C534.252 748.486 530.316 754.056 527.286 754.605L527.317 753.75C533.657 745.207 525.302 740.122 527.164 731.905L528.673 732.206C531.903 730.787 541.376 716.701 544.78 712.916Z"/>
	<path transform="scale(0.25 0.25)" d="M477.321 713.257C485.036 716.687 487.029 726.91 493.238 731.771C494.331 732.626 494.704 732.412 496.029 732.293C497.28 735.704 493.711 744.139 493.371 748.233C493.353 748.45 493.343 748.668 493.328 748.886C493.946 750.46 494.754 751.941 495.53 753.441L496.09 754.267L495.709 754.582C492.13 752.864 489.422 748.81 487.108 745.715C488.982 733.092 481.684 724.895 477.52 713.804C477.452 713.622 477.387 713.439 477.321 713.257Z"/>
	<path transform="scale(0.25 0.25)" d="M546.381 784.926C546.369 785.13 546.372 785.335 546.344 785.537C544.596 798.549 540.801 807.301 529.897 815.049C529.788 814.485 529.72 814.229 529.675 813.689C528.662 801.482 539.349 793.148 546.381 784.926Z"/>
	<path transform="scale(0.25 0.25)" d="M476.724 785.767C477 785.96 477.287 786.138 477.551 786.348C479.327 787.756 480.987 789.777 482.559 791.423C489.17 798.346 492.957 804.959 493.466 814.644C492.666 814.471 491.883 814.211 491.166 813.808C481.37 808.299 479.247 795.666 476.724 785.767Z"/>
	<path transform="scale(0.25 0.25)" d="M537.405 763.406C537.798 765.527 526.361 801.268 524.537 806.598C523.842 803.492 524.35 799.638 524.67 796.485C525.779 785.553 528.403 770.812 537.405 763.406Z"/>
	<path transform="scale(0.25 0.25)" d="M485.228 762.902C485.846 763.328 486.447 763.74 486.997 764.253C496.595 773.211 497.938 793.177 498.013 805.559C496.204 802.111 485.473 765.967 485.228 762.902Z"/>
</svg>
