<?xml version="1.0" encoding="utf-8" ?>
<svg xmlns="http://www.w3.org/2000/svg" xmlns:xlink="http://www.w3.org/1999/xlink" width="256" height="256">
	<path fill="#FEFEFE" transform="scale(0.25 0.25)" d="M0 0L1024 0L1024 243.641L1024 257.158L1024 349.988L1024 354.388L1024 1024L0 1024L0 0Z"/>
	<path transform="scale(0.25 0.25)" d="M1024 354.388C1008.1 343.307 992.528 331.847 976.297 321.233C959.808 310.449 942.792 300.585 926.524 289.419Q839.431 229.529 756.734 163.701C751.303 159.362 730.578 144.246 727.688 139.343C727.087 138.323 726.888 138.155 727.17 136.97C727.321 136.922 727.467 136.85 727.625 136.825C729.351 136.552 731.567 137.973 732.946 138.868C737.353 141.728 741.421 145.582 745.659 148.748Q763.072 161.658 780.316 174.792C788.789 181.221 797.638 187.093 806.238 193.343Q847.126 223.188 888.723 252.04C934.581 283.705 980.754 314.742 1024 349.988L1024 354.388Z"/>
	<path transform="scale(0.25 0.25)" d="M1024 257.158C1011.52 249.647 999.715 240.135 987.788 231.704C967.69 217.496 947.43 203.589 927.498 189.136Q905.152 173.246 883.347 156.622C877.641 152.234 871.204 147.917 866.122 142.836C864.078 140.792 862.139 138.197 862.081 135.191C862.613 134.452 862.42 134.338 863.162 134.26C867.632 133.793 885.592 146.697 889.832 149.427Q930.934 175.632 970.684 203.846C988.719 216.767 1006.25 230.337 1024 243.641L1024 257.158Z"/>
	<path transform="scale(0.25 0.25)" d="M757.409 369.68C758.173 369.743 758.717 369.778 759.414 370.135C761.106 371.002 762.59 375.203 763.223 377.037C768.391 391.997 770.511 409.002 769.238 424.733C766.392 459.905 747.368 499.167 731.845 530.468C733.643 542.712 733.718 555.552 734.392 567.916C735.413 586.654 736.879 605.231 739.654 623.8C740.81 631.539 741.645 639.904 744.383 647.275C745.892 651.338 747.923 654.673 750.746 657.949C748.376 645.279 744.073 594.761 746.03 584.415C746.083 584.542 746.138 584.668 746.189 584.796C746.273 585.009 746.349 585.226 746.434 585.439C748.303 590.14 748.298 596.113 748.725 601.131Q749.704 612.079 750.341 623.052C751.059 636.78 750.292 652.452 755.57 665.284C754.502 656.497 755.505 647.431 755.816 638.606C759.273 654.347 756.342 666.29 761.876 683.341C761.841 671.523 761.103 659.438 760.169 647.656C759.739 642.225 755.66 611.461 756.938 609.151C759.004 613.244 759.199 619.473 759.857 624.044C761.245 633.667 762.885 643.375 763.501 653.08C764.469 668.333 762.85 683.966 767.971 698.538C768.108 688.017 769.098 677.512 769.397 666.99C769.643 658.37 769.051 649.548 769.826 640.975Q770.189 642.179 770.506 643.397C774.694 659.306 772.482 678.447 770.493 694.604C769.892 699.484 768.423 704.706 768.705 709.608C769.018 715.032 770.966 720.904 772.019 726.26Q774.99 741.849 777.467 757.524C779.8 772.966 780.797 788.504 782.822 803.973C786.004 828.28 790.657 851.712 796.502 875.499C797.308 878.779 799.335 884.541 797.569 887.582C796.724 887.676 796.888 887.837 796.288 887.292C793.367 884.635 792.089 878.595 790.805 874.898C780.801 846.094 776.899 821.612 772.903 791.56Q748.752 775.018 725.207 757.624C710.185 747.05 694.57 736.544 680.582 724.631C680.294 731.385 679.908 738.131 680.441 744.883C680.893 750.606 682.195 756.297 683.149 761.954Q685.13 774.02 686.704 786.145Q689.084 803.286 690.31 820.547Q691.535 837.808 691.601 855.113C691.638 863.312 692.428 872.535 690.984 880.579C690.613 882.645 690.302 884.69 688.519 885.956C687.75 885.589 687.463 885.272 686.961 884.551C682.289 877.852 680.325 842.742 679.583 833.101C677.91 811.348 677.121 789.522 675.194 767.797C674.23 756.925 671.359 745.87 671.503 734.968C671.765 715.002 676.589 695.674 679.787 676.088C681.634 664.775 683.056 653.392 684.951 642.088Q691.1 605.564 698.886 569.354Q696.774 570.697 694.534 571.812Q692.294 572.927 689.95 573.802Q687.605 574.677 685.183 575.303Q682.76 575.93 680.285 576.3C654.78 580.129 605.12 563.948 584.299 548.476C577.932 543.746 552.668 518.567 552.15 510.798C552.097 510.003 552.25 510.119 552.811 509.392C554.435 509.362 555.373 509.767 556.636 510.803C560.043 513.593 562.824 517.867 565.646 521.272C570.24 526.813 574.976 532.233 580.204 537.191C585.623 542.329 591.499 546.656 598.103 550.149C616.009 559.621 652.676 569.928 672.562 569.325C685.23 568.941 693.22 564.351 701.696 555.173C723.928 531.096 741.024 487.76 751.341 457.011C755.417 444.862 759.577 433.163 760.664 420.28C761.586 409.365 761.002 398.118 759.578 387.256C758.842 381.641 757.588 375.947 757.42 370.286C757.414 370.084 757.413 369.882 757.409 369.68Z"/>
	<path fill="#FEFEFE" transform="scale(0.25 0.25)" d="M692.79 641.81C705.077 649.76 716.95 658.501 729.034 666.776C733.699 669.971 738.453 673.682 743.425 676.363C744.993 677.208 746.617 677.488 748.364 677.72C751.388 683.889 752.921 691.201 754.761 697.82C761.857 723.348 768.308 749.67 770.818 776.083C768.333 774.473 765.884 772.803 763.421 771.159C735.744 752.998 709.886 731.876 681.857 714.341Q686.296 677.921 692.79 641.81Z"/>
	<path fill="#FEFEFE" transform="scale(0.25 0.25)" d="M705.145 578.811C707.281 580.772 714.416 605.891 716.419 611.082C725.174 633.764 737.153 654.713 747.607 676.564L741.185 671.25C726.13 658.73 710.757 645.03 693.813 635.183C695.114 626.641 696.903 618.148 698.487 609.653C700.416 599.307 702.136 588.912 705.145 578.811Z"/>
	<path fill="#FEFEFE" transform="scale(0.25 0.25)" d="M730.273 533.355C731.752 542.227 730.143 557.788 730.539 567.762C731.495 591.814 735.371 616.68 740.834 640.108C733.566 629.915 726.012 607.992 721.796 595.622C721.286 594.099 720.756 592.552 720.396 590.986C719.028 585.042 718.312 556.137 719.694 550.22C720.246 547.855 722.345 545.174 723.623 543.1C723.264 553.267 722.921 583.883 726.564 592.477L727.171 592.473C727.966 589.894 727.01 585.078 726.839 582.305C726.179 571.575 724.019 548.449 727.181 538.637C727.777 536.788 729.196 534.963 730.273 533.355Z"/>
	<path fill="#FEFEFE" transform="scale(0.25 0.25)" d="M716.694 553.305C716.87 553.706 716.953 553.851 717.047 554.332C717.54 556.845 718.852 585.036 718.444 585.667L717.944 584.384C715.504 575.874 713.917 567.62 712.888 558.842C714.069 556.929 715.377 555.126 716.694 553.305Z"/>
	<path transform="scale(0.25 0.25)" d="M516.267 299.232L517.867 299.696C521.15 303.067 522.667 310.2 524.091 314.673C534.584 347.635 541.099 382.338 545.569 416.601C549.055 443.327 551.868 478.985 542.663 504.807C540.019 512.223 535.86 519.187 531.044 525.391C507.727 555.432 471.527 570.216 434.628 574.67C398.281 579.057 359.43 574.584 327.172 556.488C318.188 551.448 310.093 545.27 302.019 538.918C302.064 541.177 301.876 543.256 301.527 545.487L301.1 545.731C300.258 543.047 300.346 540.262 300.269 537.473C298.025 535.182 295.699 533.088 293.247 531.022Q293.705 548.044 294.651 565.045C294.939 571.043 295.618 577.276 295.097 583.265C290.171 568.649 290.684 543.493 290.6 527.973C288.128 524.445 285.489 521.053 282.852 517.648C284.383 528.05 284.605 538.998 285.299 549.502C286.469 567.22 288.139 585.509 287.32 603.249C282.107 573.405 280.553 544.387 279.99 514.15C277.242 509.741 274.802 505.102 272.35 500.521C273.446 511.498 273.636 522.716 274.378 533.739L278.77 592.658L280.282 614.281C280.554 618.369 280.492 622.619 281.275 626.638C281.306 626.794 281.34 626.95 281.373 627.105L280.31 627.658L279.705 629.611C279.429 624.861 278.428 620.094 277.72 615.391C276.514 607.385 275.397 599.297 274.624 591.24C271.906 562.915 270.827 534.339 269.932 505.91C266.308 525.876 267.399 546.165 268.204 566.314C268.829 581.961 269.459 597.6 271.047 613.185C272.247 624.958 274.64 636.824 274.953 648.651C265.307 628.873 263.45 569.837 264.232 546.717L263.939 546.882C263.23 550.76 262.786 554.684 262.053 558.557C260.78 565.285 258.999 571.918 258.764 578.797C258.554 584.942 259.619 591.418 260.231 597.533C262.373 618.958 266.386 640.205 269.801 661.459C271.051 669.244 272.824 677.108 273.44 684.969L273.485 685.62C264.349 653.224 257.548 620.617 255.624 586.967C254.184 591.805 253.117 596.804 252.983 601.863C252.773 609.718 253.938 618.051 254.814 625.858C256.881 644.264 259.54 662.201 263.656 680.285C264.372 683.432 264.779 687.019 265.879 690.014C265.926 690.14 265.984 690.263 266.036 690.387L265.63 690.78C263.189 685.692 262.056 679.262 260.69 673.806C255.157 651.717 250.634 629.651 250.406 606.791C249.183 610.925 246.424 615.553 246.049 619.796C245.539 625.565 247.083 631.948 248.117 637.616C250.077 648.358 252.249 659.161 254.859 669.763C256.652 677.044 258.928 684.252 260.32 691.62C251.315 671.489 246.509 649.378 243.235 627.661C237.225 643.998 244.143 648.635 245.38 663.877L245.445 664.735C241.5 656.908 239.124 649.168 237.833 640.534L234.905 647.135C239.333 651.588 240.51 658.616 243.041 664.236C246.662 672.278 250.656 680.173 254.153 688.267C258.411 698.121 262.06 708.409 265.757 718.487C269.006 727.343 272.35 736.463 274.406 745.685C276.896 756.851 276.911 768.3 277.351 779.68C277.907 812.78 275.593 846.919 269.512 879.438C268.902 882.706 268.737 888.29 266.739 890.995C266.182 891.749 266.093 891.594 265.248 891.765C264.824 891.431 264.31 891.188 263.977 890.764C262.756 889.212 263.714 875.772 263.823 873.058Q265.774 832.573 266.067 792.042C266.107 780.785 266.717 765.718 264.489 754.799C258.1 723.481 240.136 690.857 226.198 662.163C218.445 679.498 207.191 694.383 201.716 712.893C194.8 736.27 198.478 759.626 199.77 783.449C201.057 807.173 201.135 831.208 200.689 854.962C200.52 863.929 200.968 873.744 199.484 882.556C199.214 884.163 199.018 885.546 197.677 886.549L196.63 886.042C194.93 882.181 192.896 834.948 192.309 827.002Q191.18 810.243 189.532 793.528C187.261 772.005 183.633 749.216 187.722 727.68C191.683 706.821 202.184 689.618 212.468 671.473C217.33 662.893 221.872 654.018 226.148 645.131C247.019 601.756 257.96 531.187 260.91 483.043C261.611 471.609 262.362 459.862 261.555 448.421C260.825 438.078 257.248 428.375 255.357 418.238C255.884 417.316 256.195 416.835 256.337 415.765C256.012 415.784 255.687 415.827 255.36 415.822C254.054 415.802 253.95 415.654 253.171 414.711L253.398 413.443C261.083 406.72 264.874 393.889 271.715 387.949C272.911 387.92 272.72 387.731 273.745 388.558C273.908 389.226 274.001 389.815 273.871 390.502C272.656 396.933 263.132 410.446 257.913 414.09L257.241 414.555C260.679 419.804 262.468 425.724 264.516 431.604C265.935 422.913 268.187 414.933 271.541 406.775C276.342 395.1 298.719 355.918 307.659 349.218C308.739 348.409 308.963 348.455 310.179 348.694C310.349 349.054 310.632 349.38 310.687 349.773C310.913 351.404 303.554 363.17 302.289 365.279C287.732 389.546 276.793 412.811 271.115 440.603C274.975 436.128 278.827 431.624 282.874 427.316C285.707 424.3 296.493 412.658 299.962 412.547L300.171 413.4C299.605 415.233 298.785 416.808 297.714 418.394C293.533 424.587 288.46 430.438 284.047 436.516C279.639 442.586 275.789 449.027 271.411 455.117C273.658 466.971 275.853 477.649 280.749 488.836C294.64 520.574 323.062 548.999 355.531 561.463C393.385 575.996 439.534 571.923 476.238 555.461C499.33 545.103 520.612 528.453 531.185 504.881C551.141 460.389 530.836 373.67 520.56 327.42C519.387 322.137 514.023 304.248 515.923 299.942C516.029 299.702 516.152 299.469 516.267 299.232Z"/>
	<path transform="scale(0.25 0.25)" d="M373.109 132.536C374.413 132.641 375.365 132.9 376.23 133.949C376.823 134.669 376.539 134.913 376.399 135.76C371.954 139.839 353.457 148.369 347.275 151.6C327.007 162.192 306.424 172.675 286.684 184.221Q255.56 202.249 225.757 222.387C221.644 225.154 218.087 230.756 214.616 232.558C210.332 234.782 202.936 232.772 197.954 233.543C187.782 235.115 178.152 239.482 169.243 244.477C136.952 262.581 110.918 296.441 101.167 331.994C86.9616 383.785 102.551 433.188 128.1 478.316L127.559 478.65C126.822 478.648 126.154 478.639 125.471 478.315C122.808 477.054 120.617 473.972 118.819 471.729C106.677 456.584 97.9335 436.164 92.4314 417.64C89.5223 424.735 87.6934 432.519 85.181 439.796C70.2619 483.008 59.3052 525.606 61.4048 571.75C62.6986 600.187 66.847 628.499 66.349 657.031C66.1181 670.26 64.5274 683.525 64.4718 696.705C64.4282 707.017 65.8376 717.211 65.3932 727.558C64.8339 740.578 63.2126 753.549 62.6651 766.574C62.2796 775.744 62.7029 784.885 63.3358 794.034C64.804 815.259 68.8972 836.308 71.8103 857.37C72.7239 863.975 74.3358 871.163 74.5279 877.783C74.5653 879.072 74.4721 880.158 73.5919 881.167C72.7259 881.176 72.688 881.355 71.9973 880.712C69.3949 878.29 68.2189 870.94 67.287 867.511C59.4874 838.821 52.6255 803.92 52.4509 774.249C52.4699 758.851 54.4022 743.77 55.0519 728.434C55.5268 717.225 53.935 706.085 54.1336 694.899C54.4086 679.414 56.3549 664.045 56.106 648.503C55.4295 606.274 47.6237 564.384 52.5085 522.174C55.0423 500.28 60.8464 477.504 67.9588 456.673C74.3578 437.932 81.9749 419.679 86.4099 400.322C88.1388 392.776 86.7737 385.097 86.7608 377.443Q86.7211 370.729 87.2842 364.038Q87.8474 357.347 89.0088 350.734C96.1765 307.73 119.058 269.412 154.659 244.017C147.2 237.1 139.18 230.654 131.552 223.905L78.265 176.395C70.5334 169.469 63.0567 162.306 55.5307 155.161C51.4512 151.288 46.888 147.52 43.2658 143.241C41.8161 141.528 40.6861 139.886 40.4676 137.62C40.962 136.84 40.761 136.714 41.5511 136.64C43.488 136.456 45.6649 137.899 47.1915 138.941C51.7539 142.054 55.9671 146.005 60.274 149.476Q78.2896 164.118 95.8212 179.336C118.107 198.606 140.756 217.569 162.312 237.655C179.078 229.473 186.485 224.611 205.941 224.39C211.651 219.361 218.793 215.172 225.102 210.846C257.509 188.625 288.531 171.36 323.69 153.97C339.597 146.101 356.137 137.822 373.109 132.536Z"/>
	<path transform="scale(0.25 0.25)" d="M586.821 135.859C588.647 136.058 589.595 136.218 591.013 137.453C592.216 140.4 591.152 143.922 590.663 146.974C620.389 174.073 647.821 181.671 681.262 201.18C688.739 205.542 700.133 215.663 706.636 218.238C712.016 220.368 718.417 220.852 724.024 222.532Q735.405 226.002 746.396 230.56Q757.386 235.118 767.883 240.721C816.322 267.034 833.552 306.278 838.811 359.186C840.37 374.876 841.246 390.99 840.25 406.747Q839.664 416.063 838.343 425.303C837.404 431.609 834.035 442.688 834.827 448.335C836.055 457.093 841.985 467.967 845.318 476.276C850.207 488.467 854.966 501.241 858.433 513.914C864.236 535.123 867.214 556.763 871.264 578.321Q875.289 600.767 881.974 622.568C901.201 634.528 918.785 648.848 937.152 662.055C946.517 668.789 976.161 687.951 981.918 695.179C973.13 691.153 964.752 685.547 956.508 680.495Q920.38 658.118 886.276 632.764C900.283 669.992 910.551 700.069 915.691 739.955C926.594 749.255 939.498 757.264 951.402 765.248C957.662 769.446 964.175 773.513 969.682 778.692C959.656 774.518 949.878 768.336 940.587 762.739Q928.471 755.593 916.469 748.258C917.626 767.062 919.755 785.832 921.198 804.623C921.398 807.455 921.703 810.193 922.179 812.994C927.971 818.064 934.063 822.658 938.566 828.98C932.875 826.377 928.133 821.954 922.497 819.124C924.024 841.462 924.958 864.259 924.754 886.655C924.739 888.246 924.565 889.033 923.422 890.139L922.416 889.997C918.153 884.049 908.231 754.123 905.353 734.829C902.528 715.894 898.195 697.811 891.847 679.736C885.526 661.735 877.887 644.386 872.412 626.055C865.212 601.95 862.477 576.975 858.417 552.235Q855.234 533.421 850.637 514.901C847.455 502.007 842.915 489.569 838.043 477.228C834.511 468.28 830.192 459.143 828.274 449.675C827.137 444.062 830.177 428.235 830.53 421.117C831.904 393.338 831.296 364.708 824.806 337.525C812.2 284.724 776.15 252.027 726.301 234.429Q719.411 231.941 712.334 230.047C706.186 228.461 697.67 227.772 692.289 224.459C691.62 222.743 692.17 220.622 692.4 218.834Q676.719 208.58 660.157 199.82C642.207 190.445 623.741 182.019 607.471 169.793C601.275 165.137 595.778 159.754 590.239 154.357C588.399 174.788 592.498 185.955 601.439 204.179C602.615 206.576 605.449 210.884 605.564 213.524C605.615 214.716 605.472 215.702 604.53 216.542C603.753 217.235 602.804 217.311 601.87 216.922C595.562 214.301 585.066 189.835 582.866 183.294C580.276 191.614 579.551 204.823 575.378 212C574.779 213.03 574.204 213.482 572.988 213.545C571.58 213.617 570.711 213.142 569.661 212.296C568.81 210.839 568.52 209.721 568.614 208.015C569.26 196.376 579.573 149.476 584.529 138.742C585.087 137.534 585.858 136.755 586.821 135.859Z"/>
	<path transform="scale(0.25 0.25)" d="M542.091 570.343L542.537 570.348C544.209 570.384 544.985 570.382 546.154 571.725C548.683 574.632 549.923 579.963 550.843 583.648C559.783 619.423 555.957 674.939 554.851 712.878C554.308 731.508 554.557 752.43 552.43 770.795C551.595 770.991 550.864 770.982 550.011 770.993C549.451 770.609 549.069 770.251 548.788 769.617C546.421 764.28 546.71 755.209 546.226 749.306Q544.506 727.611 544.096 705.852Q543.687 684.092 544.589 662.348C545.26 644.235 547.193 625.834 546.615 607.732C546.373 600.139 545.709 592.344 544.191 584.905C543.427 581.164 541.967 577.304 541.49 573.546C541.338 572.349 541.68 571.455 542.091 570.343Z"/>
	<path transform="scale(0.25 0.25)" d="M273.155 226.182C280.866 226.02 288.859 227.388 296.502 228.307L332.371 232.643C354.669 235.282 376.987 237.453 399.255 240.391C420.822 243.237 441.705 246.137 462.174 253.837C465.039 254.915 469.872 256.351 471.932 258.622C473.02 259.821 472.882 260.174 472.811 261.699C465.944 262.493 456.24 258.384 449.267 256.833Q437.1 254.208 424.849 252.009C405.114 248.623 283.113 233.823 273.923 227.857C273.206 227.392 273.325 226.956 273.155 226.182Z"/>
	<path transform="scale(0.25 0.25)" d="M569.149 139.183C570.066 139.357 570.621 139.592 571.411 140.088C571.801 140.978 571.768 141.582 571.634 142.521C569.855 154.968 563.427 172.458 559.589 184.777C553.814 203.314 548.642 221.591 544.048 240.465C542.225 247.954 540.401 255.405 538.836 262.953C537.674 268.553 536.862 274.631 535.095 280.048C534.764 281.062 534.329 281.766 533.538 282.507C533.073 282.943 532.578 283.338 532.077 283.73C531.888 283.626 531.694 283.531 531.51 283.418C530.195 282.608 529.69 281.679 529.384 280.208C524.937 258.862 551.978 181.878 560.982 158.65C563.389 152.441 565.537 144.746 569.149 139.183Z"/>
	<path transform="scale(0.25 0.25)" d="M832.068 293.29C832.812 293.309 833.625 293.266 834.313 293.602C838.293 295.544 849.181 305.766 853.144 309.006C862.581 316.72 872.325 324.155 881.992 331.581C912.251 354.826 943.766 376.387 974.35 399.202C980.547 403.825 1016.26 430.236 1018.02 433.8C1018.2 434.163 1018.21 434.588 1018.3 434.983C1012.25 432.735 992.82 417.951 986.496 413.522Q946.48 385.777 907.415 356.709C886.785 341.467 866.296 326.338 846.876 309.522C843.788 306.847 833.395 298.535 832.202 295.16C831.994 294.571 832.112 293.913 832.068 293.29Z"/>
	<path transform="scale(0.25 0.25)" d="M843.538 444.295C844.074 444.346 844.313 444.341 844.868 444.549C849.23 446.179 880.203 474.293 886.779 479.725Q902.959 493.177 919.677 505.954L975.444 547.592C984.397 554.19 993.72 560.461 1002.41 567.406C1003.75 568.483 1004.88 569.415 1005.77 570.917C979.989 557.562 954.744 539.71 931.524 522.236C920.161 513.684 908.767 505.055 897.741 496.073C890.405 490.097 845.164 450.639 843.799 446.143C843.619 445.548 843.625 444.911 843.538 444.295Z"/>
	<path transform="scale(0.25 0.25)" d="M457.363 158.161C457.785 158.267 458.03 158.308 458.439 158.518C462.949 160.842 495.34 245.578 499.25 256.1C500.707 260.019 507.287 275.333 506.566 278.514C506.421 279.156 506.018 279.711 505.744 280.31C505.434 280.276 504.555 280.223 504.17 280.063C500.528 278.557 496.303 268.111 494.734 264.6C484.932 242.678 476.94 220.057 468.742 197.507C465.289 188.008 458.399 170.724 456.827 161.58C456.569 160.078 456.832 159.549 457.363 158.161Z"/>
	<path transform="scale(0.25 0.25)" d="M663.925 235.637L665.506 235.873C666.464 236.763 666.481 236.654 666.53 237.949C665.461 240.055 663.362 241.121 661.256 241.999C653.371 245.286 642.297 247.573 633.894 249.797C611.88 255.623 589.411 260.826 568.111 268.944C558.58 272.576 550.033 277.508 541.831 283.551C540.691 283.453 539.937 283.061 539.188 282.217C539.19 281.563 539.272 281.33 539.649 280.768C551.864 262.553 609.042 249.708 631.303 243.945C642.099 241.15 652.964 237.655 663.925 235.637Z"/>
	<path transform="scale(0.25 0.25)" d="M805.24 470.216L807.674 470.692C810.118 472.52 811.428 479.117 812.326 482.1Q819.515 506.305 824.679 531.021Q829.843 555.738 832.947 580.796C833.426 584.99 835.23 593.121 833.276 596.766C831.803 596.571 831.471 596.699 830.441 595.663C829.174 591.303 828.668 586.603 827.868 582.131Q825.964 571.758 823.914 561.413Q817.528 529.714 810.196 498.221C809.006 493.136 804.437 477.297 804.485 473.02C804.496 472.063 804.89 471.095 805.24 470.216Z"/>
	<path transform="scale(0.25 0.25)" d="M687.034 591.765C688.167 591.906 688.164 591.798 689.141 592.55C689.687 594.003 689.438 595.057 689.01 596.5C685.334 608.912 671.968 633.712 663.692 643.663C660.873 647.051 657.532 650.222 653.622 652.317C641.293 658.923 628.665 647.328 617.872 642.301C611.515 639.34 604.86 637.469 598.139 635.557C596.361 635.173 595.875 634.607 594.931 633.15L595.23 632.217C597.847 631.098 600.899 631.76 603.613 632.254C621.19 635.454 629.784 645.895 644.331 649.246C648.314 648.261 651.402 646.663 654.486 643.973C663.016 636.535 674.034 616.743 679.499 606.209C681.894 601.59 683.845 596.531 686.732 592.205C686.831 592.057 686.933 591.911 687.034 591.765Z"/>
	<path transform="scale(0.25 0.25)" d="M657.223 690.133C658.675 690.701 658.734 690.647 659.486 691.994C659.711 698.063 644.535 734.422 640.778 742.301C636.3 751.693 629.013 763.662 618.568 767.096C612.225 769.181 607.025 767.742 601.288 764.923C600.057 764.148 598.507 762.892 597.805 761.604C597.49 761.026 597.603 761.17 597.838 760.487C601.716 758.213 609.226 763.133 613.822 762.471C633.53 759.631 646.075 705.791 656.895 690.579C657.002 690.429 657.114 690.282 657.223 690.133Z"/>
	<path transform="scale(0.25 0.25)" d="M409.379 783.639L411.353 784.169C411.654 784.53 412.034 784.837 412.255 785.252C413.474 787.536 413.21 793.8 413.425 796.487Q413.796 801.167 414.625 805.788Q415.454 810.41 416.732 814.927C419.474 824.984 423.748 834.071 429.061 843.009C435.383 853.645 442.926 864.143 446.578 876.086C447.54 879.232 448.414 882.022 446.824 885.081C446.507 885.061 446.184 885.087 445.874 885.023C444.907 884.823 444.377 884.038 443.882 883.265C440.417 877.85 438.475 871.08 435.332 865.397C428.842 853.662 420.857 843.515 415.711 830.932C410.787 818.89 408.688 806.894 408.399 793.944C408.323 790.519 408.037 786.856 409.379 783.639Z"/>
	<path transform="scale(0.25 0.25)" d="M526.8 622.872C527.34 622.922 527.8 623.125 528.308 623.305L528.644 624.376C527.908 626.411 526.32 628.031 524.824 629.552C503.168 651.566 471.871 661.316 441.521 661.477C440.406 660.899 440.376 661.172 439.958 659.888C440.157 659.544 440.243 659.103 440.555 658.857C442.461 657.352 457.827 654.894 461.208 654.114C484.028 648.856 508.014 636.597 526.8 622.872Z"/>
	<path transform="scale(0.25 0.25)" d="M383.444 498.619C386.423 498.48 389.253 498.843 391.982 500.116C395.096 501.569 397.558 504.141 398.681 507.411Q398.866 507.936 398.996 508.478Q399.127 509.019 399.201 509.571Q399.276 510.123 399.293 510.68Q399.311 511.237 399.272 511.792Q399.233 512.348 399.137 512.897Q399.041 513.445 398.89 513.981Q398.738 514.517 398.533 515.035Q398.328 515.553 398.071 516.047C395.666 520.703 391.527 522.686 386.763 524.102C383.296 524.403 379.807 524.044 376.716 522.31C373.778 520.662 371.572 517.957 370.845 514.637C370.117 511.315 370.916 507.712 372.793 504.9C375.401 500.994 378.977 499.458 383.444 498.619Z"/>
	<path fill="#FEFEFE" transform="scale(0.25 0.25)" d="M384.101 505.003C385.201 505.048 386.309 505.1 387.383 505.359C389.362 505.834 391.144 506.798 392.162 508.626C392.925 509.999 392.919 511.416 392.451 512.88C391.592 515.575 388.92 516.779 386.554 517.845C385.128 517.958 383.43 518.01 382.045 517.632C380.285 517.153 378.782 516.017 378.01 514.344C377.359 512.931 377.432 511.274 378.06 509.869C379.262 507.18 381.486 506.025 384.101 505.003Z"/>
	<path transform="scale(0.25 0.25)" d="M793.934 335.691C795.394 336.226 795.986 336.205 796.662 337.708C798.341 341.44 797.427 347.779 797.198 351.818C795.737 377.608 789.28 400.562 778.242 423.821C777.88 423.91 777.192 423.825 776.81 423.814L775.944 422.769C774.781 416.29 780.768 398.861 782.692 392.021C785.975 380.354 788.921 368.391 790.912 356.427C792.021 349.76 791.813 342.097 793.934 335.691Z"/>
	<path transform="scale(0.25 0.25)" d="M634.877 780.593C635.522 780.84 636.121 780.891 636.504 781.513C638.148 784.184 637.839 790.112 638.009 793.272C639.108 813.625 638.147 833.976 636.167 854.247C635.3 863.123 634.46 872.199 632.525 880.916C632.427 880.937 632.331 880.971 632.232 880.98C630.945 881.094 630.841 881.108 629.903 880.301C628.206 874.799 633.265 788.357 634.877 780.593Z"/>
	<path transform="scale(0.25 0.25)" d="M158.261 135.711C158.344 135.718 158.427 135.725 158.51 135.73C158.741 135.744 158.977 135.725 159.204 135.768C160.345 135.984 160.935 136.536 161.784 137.264C169.313 143.721 228.455 199.145 230.036 202.156C230.648 203.32 230.326 203.63 229.922 204.808C228.757 205.219 227.697 205.395 226.481 205.572C221.954 204.238 197.268 178.581 192.71 174.056C187.634 169.015 158.856 141.523 158.269 137.666C158.17 137.022 158.264 136.363 158.261 135.711Z"/>
	<path transform="scale(0.25 0.25)" d="M222.669 271.379L223.481 272.229C223.393 276.318 211.09 293.669 208.598 298.127C201.043 311.642 194.591 326.163 190.544 341.129C188.73 347.84 188.068 357.441 185.164 363.467L184.173 362.197C182.867 355.713 184.282 347.82 185.447 341.396C189.322 320.026 198.959 299.99 212.098 282.802C215.16 278.797 218.497 274.289 222.669 271.379Z"/>
	<path transform="scale(0.25 0.25)" d="M162.735 690.206C163.961 690.5 164.096 690.346 164.976 691.336C164.753 694.801 162.794 697.898 161.808 701.18C160.323 706.125 160.896 713.177 161.525 718.245Q162.599 726.392 165.164 734.199C167.942 742.647 185.013 783.569 183.394 790.155L182.029 790.833Q175.482 775.43 169.335 759.863C164.241 747.22 158.283 734.32 156.216 720.757C154.45 709.168 155.73 699.769 162.735 690.206Z"/>
	<path transform="scale(0.25 0.25)" d="M309.814 653.255C313.465 654.843 319.907 667.365 322.348 671.299C328.952 681.946 336.476 691.933 345.64 700.498C349.222 703.845 358.331 709.645 360.505 713.028C361.402 714.426 361.173 715.11 360.867 716.684C359.512 716.71 358.262 716.672 356.989 716.153C337.718 708.294 317.489 678.387 310.234 659.452C309.335 657.108 308.743 655.639 309.814 653.255Z"/>
	<path transform="scale(0.25 0.25)" d="M703.641 493.071C706.848 492.729 710.217 492.832 713.05 494.555C716.509 496.658 717.734 500.039 718.766 503.721Q718.471 504.901 718.116 506.065C716.593 510.937 713.468 514.039 709.012 516.337C706.914 516.543 704.634 516.559 702.603 515.946C699.628 515.049 697.016 513.052 695.561 510.285Q695.297 509.782 695.085 509.255Q694.872 508.728 694.714 508.182Q694.555 507.637 694.451 507.078Q694.348 506.52 694.301 505.953Q694.254 505.387 694.263 504.819Q694.273 504.251 694.339 503.687Q694.405 503.123 694.528 502.568Q694.65 502.013 694.827 501.473C696.309 496.996 699.603 494.939 703.641 493.071Z"/>
	<path fill="#FEFEFE" transform="scale(0.25 0.25)" d="M706.826 499.314Q707.155 499.262 707.488 499.255Q707.821 499.247 708.152 499.283Q708.483 499.319 708.806 499.398Q709.129 499.477 709.439 499.599Q709.75 499.72 710.041 499.881Q710.332 500.042 710.6 500.24Q710.868 500.438 711.107 500.669Q711.346 500.901 711.553 501.162Q711.76 501.423 711.93 501.709Q712.101 501.995 712.232 502.301Q712.363 502.607 712.453 502.928Q712.543 503.248 712.59 503.578Q712.637 503.907 712.64 504.24Q712.643 504.573 712.602 504.904Q712.562 505.234 712.478 505.556Q712.394 505.879 712.268 506.187Q712.142 506.495 711.977 506.784Q711.812 507.073 711.61 507.338Q711.408 507.603 711.173 507.839Q710.938 508.075 710.674 508.278Q710.41 508.481 710.122 508.647Q709.834 508.813 709.526 508.94Q709.218 509.067 708.896 509.153Q708.574 509.238 708.244 509.28Q708.123 509.295 708 509.305Q707.878 509.315 707.756 509.318Q707.634 509.322 707.511 509.32Q707.389 509.317 707.267 509.309Q707.144 509.301 707.023 509.286Q706.901 509.272 706.78 509.252Q706.66 509.232 706.54 509.206Q706.42 509.18 706.302 509.148Q706.184 509.117 706.067 509.079Q705.951 509.042 705.836 508.999Q705.721 508.956 705.609 508.907Q705.497 508.859 705.387 508.805Q705.277 508.751 705.17 508.691Q705.063 508.632 704.958 508.568Q704.854 508.503 704.754 508.434Q704.653 508.364 704.555 508.29Q704.458 508.216 704.364 508.137Q704.271 508.058 704.181 507.975Q704.091 507.892 704.006 507.804Q703.92 507.716 703.839 507.625Q703.758 507.533 703.681 507.438Q703.604 507.342 703.532 507.243Q703.461 507.144 703.394 507.042Q703.327 506.939 703.265 506.833Q703.203 506.728 703.146 506.619Q703.089 506.511 703.038 506.4Q702.986 506.289 702.94 506.175Q702.894 506.062 702.854 505.946Q702.814 505.83 702.779 505.713Q702.744 505.596 702.715 505.477Q702.686 505.358 702.663 505.237Q702.64 505.117 702.623 504.996Q702.606 504.875 702.594 504.753Q702.583 504.631 702.578 504.509Q702.572 504.386 702.573 504.264Q702.573 504.141 702.58 504.019Q702.586 503.897 702.599 503.775Q702.611 503.653 702.63 503.532Q702.648 503.411 702.672 503.291Q702.697 503.171 702.727 503.052Q702.757 502.934 702.792 502.817Q702.828 502.7 702.87 502.584Q702.911 502.469 702.958 502.356Q703.005 502.243 703.057 502.132Q703.11 502.022 703.167 501.914Q703.225 501.806 703.288 501.701Q703.351 501.596 703.419 501.494Q703.487 501.392 703.56 501.293Q703.633 501.195 703.71 501.1Q703.788 501.005 703.87 500.915Q703.952 500.824 704.038 500.737Q704.124 500.65 704.215 500.568Q704.305 500.485 704.4 500.407Q704.494 500.329 704.592 500.256Q704.69 500.182 704.792 500.114Q704.893 500.045 704.998 499.982Q705.103 499.918 705.21 499.86Q705.318 499.802 705.428 499.749Q705.539 499.696 705.651 499.648Q705.764 499.601 705.879 499.559Q705.994 499.517 706.111 499.48Q706.228 499.444 706.347 499.413Q706.465 499.383 706.585 499.358Q706.705 499.333 706.826 499.314Z"/>
	<path transform="scale(0.25 0.25)" d="M831.033 669.588C831.972 669.674 832.523 669.929 833.348 670.377C833.725 671.041 834.042 671.681 834.187 672.44C834.859 675.96 834.064 680.465 833.744 684.055C831.719 706.708 823.163 727.818 811.009 746.855C809.799 746.656 809.745 746.685 808.917 745.793C808.784 740.808 814.161 731.945 816.029 727.066C817.943 722.068 819.594 716.951 821.27 711.868C825.826 698.041 828.374 683.868 831.033 669.588Z"/>
	<path transform="scale(0.25 0.25)" d="M661.722 252.323C663.585 252.75 664.49 253.281 665.87 254.605C670.401 258.95 674.289 264.216 678.319 269.038C687 279.428 695.712 289.397 706.361 297.819C709.36 300.191 713.062 302.16 713.541 306.192C712.496 306.115 711.529 305.964 710.52 305.666C695.197 301.134 671.219 272.835 663.376 258.693C662.208 256.588 661.006 254.794 661.722 252.323Z"/>
	<path transform="scale(0.25 0.25)" d="M540.813 822.528C542.682 822.32 544.495 822.264 546.317 822.801Q546.855 822.954 547.374 823.161Q547.893 823.367 548.389 823.625Q548.885 823.883 549.352 824.189Q549.82 824.496 550.254 824.848Q550.688 825.2 551.084 825.594Q551.48 825.988 551.835 826.42Q552.189 826.852 552.498 827.318Q552.807 827.784 553.068 828.278Q553.328 828.772 553.539 829.288Q553.749 829.805 553.908 830.34Q554.067 830.875 554.173 831.423Q554.279 831.97 554.331 832.526Q554.382 833.082 554.379 833.64Q554.376 834.198 554.318 834.753Q554.26 835.307 554.149 835.854Q554.037 836.401 553.872 836.934C552.607 840.942 549.905 842.947 546.277 844.736C544.726 844.995 543.375 845.093 541.807 844.875C539.154 844.506 536.507 843.353 534.893 841.139C533.089 838.666 532.6 835.519 533.2 832.556C534.138 827.927 537.053 825.036 540.813 822.528Z"/>
	<path fill="#FEFEFE" transform="scale(0.25 0.25)" d="M542.418 829.557C543.561 829.81 544.852 830.044 545.758 830.841C546.774 831.736 547.384 832.59 547.376 833.993C547.365 836.209 545.986 837.339 544.468 838.673C543.199 838.595 542.054 838.459 541.081 837.547C540.025 836.558 539.668 835.46 539.698 834.041C539.741 832.037 540.997 830.767 542.418 829.557Z"/>
	<path transform="scale(0.25 0.25)" d="M399.178 691.088C399.956 691.314 400.86 691.38 401.42 692.007C403.411 694.236 411.485 715.588 413.964 720.499C418.489 729.464 423.72 737.982 430.207 745.677C432.666 748.594 435.913 751.142 438.151 754.143C438.916 755.168 438.781 755.686 438.801 756.93C438.025 756.927 437.07 756.972 436.306 756.765C429.572 754.941 419.374 741.064 415.793 735.352C411.001 727.708 397.259 699.605 399.178 691.088Z"/>
	<path transform="scale(0.25 0.25)" d="M399.283 137.205C399.328 137.231 399.377 137.253 399.418 137.285C400.611 138.197 400.982 138.384 401.145 139.945C401.421 142.59 399.305 146.937 398.296 149.407C392.45 163.72 385.138 177.684 375.193 189.607C374.218 189.765 374.721 189.831 373.722 189.221C373.578 188.511 373.538 188.501 373.583 187.659C373.904 181.749 394.923 141.063 399.283 137.205Z"/>
	<path transform="scale(0.25 0.25)" d="M672.671 682.646L673.742 683.105C674.413 684.017 674.534 684.248 674.503 685.432C674.149 698.649 658.219 735.918 648.914 744.922C648.548 744.849 648.032 744.545 647.688 744.385C647.656 744.248 647.604 744.115 647.593 743.975C647.401 741.663 652.836 731.448 653.986 728.757C658.441 718.322 662.29 707.544 666.443 696.979C668.279 692.311 669.894 686.831 672.671 682.646Z"/>
	<path transform="scale(0.25 0.25)" d="M359.982 611.382C363.639 613.082 375.212 633.707 379.235 638.84C383.031 643.682 387.22 647.335 392.178 650.956C394.041 652.317 396.875 653.846 398.362 655.565C399.408 656.774 399.028 657.298 398.791 658.785C395.775 658.611 393.41 657.965 390.706 656.553C378.206 650.026 370.268 636.853 363.871 624.801C362.199 621.653 359.989 617.948 359.144 614.464C358.806 613.073 359.251 612.53 359.982 611.382Z"/>
	<path transform="scale(0.25 0.25)" d="M505.447 760.069C505.897 760.035 506.026 760.009 506.531 760.064C507.766 760.2 508.444 760.389 509.214 761.353C508.243 764.099 504.775 765.636 502.24 766.841C489.552 772.873 475.602 772.113 462.655 767.587C460.564 766.67 458.202 765.98 457.294 763.749C457.711 763.103 458.019 762.408 458.951 762.485C460.127 762.583 461.885 763.435 463.076 763.765Q468.147 765.21 473.389 765.779C484.813 766.92 494.767 763.628 505.447 760.069Z"/>
	<path transform="scale(0.25 0.25)" d="M289.005 844.837C289.558 845.197 289.668 845.225 290.168 845.8C292.415 848.388 300.123 863.301 302.529 867.269C304.723 870.889 312.235 881.213 313.394 884.254C313.74 885.16 313.46 886.385 313.318 887.319C312.275 887.433 311.32 887.405 310.274 887.336C305.084 884.503 300.898 876.506 297.94 871.484C294.109 864.979 286.952 852.67 289.005 844.837Z"/>
	<path transform="scale(0.25 0.25)" d="M776.051 663.24L777.077 664.226C780.391 674.455 779.269 699.022 778.405 710.347C777.842 710.43 778.231 710.406 777.249 710.171C776.245 705.603 776.728 699.935 776.645 695.236L776.051 663.24Z"/>
	<path transform="scale(0.25 0.25)" d="M287.617 132.833C291.394 133.131 295.446 137.601 297.977 140.278C300.442 142.886 302.787 145.045 302.668 148.859C302.522 148.833 302.376 148.81 302.23 148.782C297.456 147.862 290.979 141.103 288.288 137.043C287.268 135.503 287.313 134.541 287.617 132.833Z"/>
</svg>
