<?xml version="1.0" encoding="utf-8" ?>
<svg xmlns="http://www.w3.org/2000/svg" xmlns:xlink="http://www.w3.org/1999/xlink" width="256" height="256">
	<path fill="#FEFEFE" transform="scale(0.25 0.25)" d="M0 0L1024 0L1024 1024L0 1024L0 0Z"/>
	<path transform="scale(0.25 0.25)" d="M190.593 65.341C192.946 67.0971 202.047 95.6177 204.411 101.11C212.681 120.326 223.13 138.119 233.03 156.483C240.932 171.14 250.8 192.712 261.773 204.935C272.729 217.138 287.145 227.34 301.861 234.439C304.257 235.594 307.655 237.486 310.31 237.632C309.982 236.24 309.783 235.034 309.721 233.606C310.472 232.139 311.127 231.73 312.681 231.19C319.55 228.803 328.082 229.978 334.493 233.094C337.137 234.379 339.922 235.913 340.912 238.834C340.66 240.159 340.407 240.996 339.272 241.852C338.062 242.764 336.431 242.41 335.025 242.277C334.122 242.191 334.552 242.098 333.797 242.467L334.284 242.963C358.019 249.092 410.783 241.237 435.139 234.608Q444.906 231.928 454.421 228.46Q463.936 224.992 473.137 220.759C450.759 240.079 419.99 250.747 390.882 254.785C377.869 256.59 364.703 257.033 351.589 257.502C351.387 263.958 350.665 270.483 350.183 276.93C358.78 272.689 367.04 268.05 375.882 264.296C404.727 252.052 455.611 236.378 486.979 239.878C493.547 240.611 501.769 242.243 505.944 247.838C511.684 255.53 510.813 284.854 509.349 294.854C508.087 303.479 504.438 312.861 497.251 318.225C498.616 319.325 500.047 320.474 501.274 321.729C503.433 323.937 505.066 326.319 506.034 329.265C510.659 343.347 510.147 384.572 507.306 399.871C506.514 404.141 501.556 412.206 501.888 415.739C501.954 416.441 503.504 417.139 504.101 417.525C503.309 418.649 500.843 419.226 499.501 419.737C504.672 429.671 506.757 440.813 507.674 451.897C509.028 468.276 508.786 506.77 498.637 518.75C500.029 520.264 501.294 521.798 502.208 523.657C509.268 538.027 509.874 592.201 503.913 607.812C501.743 613.493 497.885 616.989 492.339 619.33C472.646 627.643 437.42 625.956 416.75 621.185C409.85 619.592 403.363 617.175 396.812 614.547C397.84 630.17 399.128 645.865 401.474 661.35C405.684 689.132 412.607 716.61 419.891 743.723Q427.006 770.897 435.13 797.786Q440.379 814.436 446.162 830.908C448.373 837.123 451.137 843.408 452.767 849.787C452.819 849.991 452.867 850.195 452.917 850.4Q462.768 855.517 473.086 859.613Q483.404 863.709 494.082 866.742C500.081 868.429 506.677 870.067 512.954 869.954C528.8 869.671 556.182 858.004 570.189 850.131C575.06 833.698 582.074 817.771 587.398 801.425C607.365 740.127 623.697 678.285 627.244 613.65C624.168 615.356 621.061 616.956 617.758 618.178C595.989 626.232 549.889 627.738 528.59 617.879C523.275 615.419 519.571 612.215 517.535 606.603C511.234 589.235 514.069 552.532 518.222 534.407C519.438 529.101 521.225 524.277 523.56 519.366Q521.867 515.585 520.591 511.644C514.488 492.873 513.462 457.15 517.007 437.724C518.129 431.575 519.946 426.016 522.792 420.456C521.962 419.693 521.244 418.917 520.524 418.051C520.72 417.546 521.186 416.44 521.087 415.918C520.662 413.685 518.846 410.645 518.033 408.415C515.333 401.007 513.82 393.648 513.466 385.768C512.771 370.265 512.434 343.413 517.545 328.874C519.104 324.439 521.246 321.004 524.416 317.546C520.179 312.839 516.962 307.446 515.029 301.398C511.48 290.297 510.431 259.77 515.82 249.834C518.354 245.162 523.026 242.627 527.994 241.242C537.717 238.531 548.351 239.532 558.252 240.581C594.936 244.467 641.602 258.734 673.683 276.913C673.526 270.093 673.069 263.264 672.773 256.447C630.355 256.616 583.58 248.249 549.884 220.958C594.963 240.353 641.14 247.22 690.039 242.744C688.291 242.057 685.46 241.231 684.308 239.683C683.375 238.429 683.411 238.189 683.603 236.728C684.338 235.709 684.988 235.046 686.054 234.361C692.875 229.981 702.665 229.088 710.496 230.845C712.684 231.336 714.585 231.941 715.84 233.897C715.928 234.978 715.897 235.569 715.364 236.507C715.212 236.775 715.051 237.039 714.894 237.304C715.422 237.332 715.49 237.357 716.097 237.259C719.839 236.654 724.157 234.27 727.597 232.612C758.397 217.765 772.649 188.795 789.732 161.171C798.931 146.296 808.467 131.586 817.285 116.481C822.922 106.826 828.021 96.6236 834.618 87.5909C832.992 95.7123 830.927 103.655 827.945 111.394C817.046 139.685 787.446 191.439 767.98 214.582C761.213 222.628 753.419 231.036 744.704 236.926C727.273 248.707 698.375 254.367 677.508 256.222C679.271 264.998 679.402 274.564 679.96 283.517C682.106 317.937 681.275 346.501 676.418 380.659C677.218 382.287 678.212 383.818 679.15 385.37C689.569 346.487 686.918 302.205 691.969 262.059C694.135 271.872 693.934 282.144 694.321 292.164C704.033 303.064 711.905 315.306 719.75 327.572C709.927 320.333 701.019 310.394 694.027 300.397Q694.096 312.073 693.423 323.73Q692.75 335.387 691.339 346.977Q689.928 358.568 687.784 370.046Q685.64 381.524 682.771 392.842C703.974 373.636 719.147 370.912 727.417 340.607Q727.936 345.068 727.789 349.557Q727.642 354.046 726.831 358.463C721.9 384.223 700.546 390.017 681.55 403.195L680.871 403.671C671.929 441.28 659.652 480.88 654.352 518.846C648.936 557.652 647.957 597.181 644.338 636.2Q643.163 649.166 641.472 662.075Q639.781 674.984 637.578 687.816Q635.374 700.647 632.66 713.381Q629.947 726.114 626.728 738.729Q623.509 751.344 619.791 763.821Q616.072 776.298 611.858 788.617Q607.645 800.936 602.945 813.077Q598.244 825.218 593.063 837.162C610.051 828.303 632.651 804.923 647.406 791.512C654.76 784.828 662.2 778.059 670.962 773.265C667.019 778.197 662.273 782.554 657.823 787.02Q649.545 795.273 641.688 803.928C616.914 831.135 594.11 860.863 576.621 893.296C566.933 910.513 558.883 929.083 552.163 947.647C549.094 956.122 546.633 964.811 543.379 973.218C546.63 940.017 565.564 903.155 580.382 873.687Q574.001 876.721 567.474 879.427C514.598 901.079 493.445 894.887 442.837 873.683C459.345 900.19 477.95 942.099 480.598 973.214C474.107 953.171 467.168 932.696 458.28 913.564C434.996 863.446 393.731 813.649 353.59 775.853C369.901 783.967 382.56 795.791 395.992 807.819C407.911 818.493 419.663 829.298 432.191 839.264C407.849 778.963 389.498 716.963 380.403 652.463C378.406 638.301 377.748 624.003 376.945 609.737C375.911 591.401 374.882 572.975 373.159 554.69C370.622 527.778 366.468 500.51 360.333 474.171C356.98 459.775 352.675 445.694 348.72 431.464C346.319 422.826 344.238 414.103 341.651 405.517C333.762 401.029 325.861 395.164 319.064 389.168C309.633 380.85 295.551 363.508 295.083 350.301C295.013 348.312 295.553 346.772 296.907 345.311C298.363 345.669 303.991 355.461 305.165 357.137C315.242 371.525 327.983 384.638 340.171 397.23C335.912 379.482 331.98 361.865 330.165 343.66C328.693 328.893 328.661 313.916 328.282 299.087C320.125 310.276 311.774 323.322 299.313 330.033C303.465 318.829 320.504 299.292 327.891 288.371C328.059 278.467 327.037 268.594 327.199 258.689C335.6 280.507 333.651 306.417 334.8 329.455C335.391 341.297 336.82 352.814 338.861 364.486C339.144 347.472 338.964 330.672 340.37 313.682C341.929 294.85 345.06 276.129 346.148 257.25C339.22 256.728 332.274 255.989 325.47 254.557Q321.205 253.616 317.007 252.407Q312.81 251.199 308.698 249.727Q304.585 248.256 300.574 246.528Q296.562 244.799 292.668 242.821C258.648 225.81 248.681 202.277 229.193 172.269C227.72 182.576 227.271 193.08 226.549 203.461C223.807 242.944 223.17 282.595 227.832 321.96C228.98 331.653 230.024 341.402 232.29 350.91C235.764 365.482 240.952 379.482 245.713 393.654C249.085 403.692 252.086 413.916 255.16 424.05C264.297 454.17 271.042 491.121 274.066 522.387Q274.969 532.186 274.729 542.024Q274.488 551.862 273.107 561.605C269.645 585.955 262.374 610.364 264.236 635.234C264.945 644.698 267.382 654.32 270.373 663.304C273.375 672.322 276.819 682.595 282.403 690.29C288.245 698.342 296.699 703.888 304.741 709.502C320.6 720.571 333.107 735.061 340.794 752.939C331.405 744.62 324.352 733.916 315.18 725.312C310.084 720.532 304.452 716.532 298.712 712.583C281.011 700.409 275.143 695.109 264.333 675.852C259.623 698.506 251.49 719.486 244.932 741.578C241.612 752.763 239.087 763.998 237.016 775.475Q227.029 830.397 219.215 885.67Q216.507 906.087 214.114 926.543C213.202 933.939 212.758 941.991 210.812 949.155C210.066 934.967 209 920.792 209.127 906.571Q209.442 882.75 211.799 859.043Q214.156 835.336 218.537 811.919C222.955 788.382 228.876 765.009 234.59 741.76C237.235 730.999 239.889 720.276 242.998 709.636C246.284 698.391 250.298 687.11 252.065 675.505C255.761 651.229 252.651 625.977 254.425 601.437C256.794 568.658 268.33 535.994 264.588 502.971C261.7 477.487 252.653 453.001 244.471 428.867C240.219 416.325 236.452 403.602 232.379 390.996L176.17 214.403C169.349 192.319 165.584 168.993 160.069 146.541C153.341 119.15 144.775 92.3296 135.855 65.5917C140.593 72.4313 143.52 80.4975 147.193 87.9339C161.876 117.658 169.621 143.665 176.244 176.09C178.4 186.644 179.554 197.45 182.175 207.898C185.685 221.884 194.553 238.78 199.593 252.954C202.565 261.315 205.02 269.846 207.543 278.35C209.02 283.331 210.251 288.62 212.404 293.352C208.725 263.667 209.331 235.303 213.37 205.661C215.185 192.341 217.351 179.042 222.094 166.405C221.239 174.793 219.764 183.115 218.914 191.515C215.998 220.337 214.763 249.526 217.169 278.43C217.658 284.307 217.584 291.446 219.253 297.058C220.252 289.439 218.476 276.884 218.532 268.405C218.703 242.521 221.052 215.997 225.15 190.458C226.114 184.45 226.772 177.858 228.708 172.087C228.759 171.935 228.814 171.784 228.867 171.633C212.151 143.865 189.379 98.3993 190.593 65.341Z"/>
	<path fill="#FEFEFE" transform="scale(0.25 0.25)" d="M481.352 245.722C482.654 245.671 483.961 245.738 485.262 245.793C490.383 246.009 498.07 246.652 501.604 250.817C506.537 256.629 505.733 282.613 504.769 290.737C503.755 299.288 500.193 309.762 493.228 315.275Q484.038 316.166 474.998 318.042Q465.958 319.917 457.172 322.756C431.888 330.813 389.587 347.65 368.932 364.396C360.104 371.554 351.07 382.541 345.836 392.648C356.491 383.89 365.388 373.727 376.831 365.798C397.803 351.267 464.062 321.643 488.622 321.949C491.957 321.99 495.319 322.898 497.611 325.449C505.508 334.238 504.164 370.17 503.803 382.125C503.317 390.207 502.815 397.677 499.668 405.247C498.335 408.455 496.655 411.486 495.414 414.738L495.23 415.232C476.583 417.872 457.961 420.014 439.714 424.837C409.535 432.813 388.898 446.924 373.063 474.204C369.69 468.818 364.615 464.01 361.969 458.275C358.526 450.813 355.791 434.965 353.685 426.196C350.362 412.355 344.148 392.708 342.901 379.352C342.331 373.259 343.698 366.358 343.917 360.173C344.392 346.731 344.619 333.273 345.692 319.86C346.721 307.01 348.604 294.168 349.997 281.347Q353.834 279.45 357.716 277.646Q361.597 275.843 365.522 274.134Q369.446 272.425 373.411 270.813Q377.376 269.2 381.378 267.684Q385.381 266.168 389.42 264.75Q393.458 263.331 397.53 262.012Q401.602 260.692 405.704 259.471Q409.807 258.251 413.938 257.131Q418.069 256.01 422.226 254.991Q426.383 253.971 430.563 253.053Q434.744 252.134 438.945 251.318Q443.147 250.501 447.367 249.787Q451.588 249.073 455.824 248.461Q460.06 247.85 464.31 247.341Q468.56 246.833 472.821 246.428Q477.082 246.023 481.352 245.722Z"/>
	<path transform="scale(0.25 0.25)" d="M466.717 308.704C469.644 308.456 477.668 307.675 479.845 309.392C478.861 310.456 477.734 310.861 476.409 311.374C472.646 312.83 468.613 313.586 464.846 315.02C453.21 319.452 440.88 324.289 429.058 328.035C426.199 328.941 423.292 329.559 420.35 330.123C428.651 324.794 437.013 320.622 446.295 317.301Q452.601 315.411 458.808 313.218C444.426 314.998 430.553 320.55 416.306 323.214C429.703 313.386 450.43 310.082 466.717 308.704Z"/>
	<path transform="scale(0.25 0.25)" d="M352.868 403.387C356.412 405.05 362.152 417.52 364.236 421.322C365.489 420.367 366.575 419.434 368.124 419.006C369.246 419.75 370.325 420.324 371.545 420.895C372.817 420.609 373.644 420.293 374.937 420.641C374.925 423.738 370.235 429.148 368.515 431.897C371.489 427.979 376.794 423.855 381.423 422.12C382.543 421.7 382.313 421.811 383.284 422.218L382.358 423.768C377.262 429.611 372.898 436.064 367.608 441.735C363.788 432.464 352.778 413.43 352.868 403.387Z"/>
	<path transform="scale(0.25 0.25)" d="M353.611 326.733L354.119 327.169C355.399 329.55 352.899 337.626 352.316 340.427C354.202 337.286 356.202 334.608 358.69 331.924C357.415 339.256 353.107 345.116 351.573 352.294C352.969 349.986 354.355 347.649 356.014 345.518C357.204 343.99 358.899 341.472 360.854 341.22C361.482 344.115 359.703 347.448 358.665 350.123C355.321 357.818 350.917 365.043 346.492 372.152C346.181 361.483 347.917 335.218 353.611 326.733Z"/>
	<path transform="scale(0.25 0.25)" d="M371.65 346.912L372.218 347.208C371.641 349.338 362.305 359.957 360.236 363.311C366.936 357.043 370.829 354.414 378.979 350.295C374.05 356.399 367.565 361.801 361.87 367.235C357.286 371.251 353.464 375.61 349.491 380.219C348.568 379.582 348.843 379.934 348.33 378.937C347.333 376.996 348.007 374.876 348.741 372.961C352.817 362.338 361.047 351.505 371.65 346.912Z"/>
	<path transform="scale(0.25 0.25)" d="M471.741 407.636C477.307 406.884 483.379 406.954 488.551 409.268C489.912 409.877 491.664 410.603 492.219 412.096L491.595 412.925C485.67 415.008 478.149 415.019 471.88 415.601C467.629 416.038 456.768 417.988 453.126 415.993L453.18 415.111C457.599 410.632 465.738 408.666 471.741 407.636Z"/>
	<path transform="scale(0.25 0.25)" d="M413.877 421.609L413.902 421.951C412.767 424.209 405.285 428.143 402.973 429.785C394.955 435.479 381.293 449.211 373.816 452.776C373.649 451.283 374.207 450.012 374.874 448.704C381.977 434.759 399.871 426.422 413.877 421.609Z"/>
	<path transform="scale(0.25 0.25)" d="M392.058 423.351C392.723 423.616 392.33 423.402 393.101 424.199C391.528 428.71 374.324 445.072 369.91 449.247L369.014 448.82C368.443 447.661 368.301 447.354 368.651 446.013C369.073 444.392 370.529 442.494 371.455 441.073C376.745 432.953 383.204 427.244 392.058 423.351Z"/>
	<path fill="#FEFEFE" transform="scale(0.25 0.25)" d="M529.691 320.013C555.771 323.483 580.49 333.628 604.411 344.074C615.551 348.939 627.007 353.974 637.6 359.962C645.317 364.324 652.455 369.603 659.857 374.46C665.585 378.219 673.432 381.958 677.965 387.084C675.102 395.915 670.567 403.45 666.771 411.849C665.151 410.785 663.657 409.781 661.691 410.183C661.092 412.934 664.547 415.575 664.191 418.574L663.362 419.027C661.439 417.182 659.253 415.195 656.709 414.284L655.006 415.489C655.139 417.432 658.289 420.407 659.448 422.066C660.15 423.071 660.944 423.892 660.703 425.118C658.92 424.884 653.733 419.562 651.641 418.143C650.462 418.484 650.091 419.027 649.339 419.965C651.934 423.025 655.049 426.075 657.298 429.38C658.172 430.664 658.348 430.699 658.088 432.228C653.673 428.417 650.556 424.294 644.468 423.148C643.429 422.952 643.371 422.901 642.486 423.533C643.138 429.67 652.836 433.464 653.777 439.246C653.878 439.868 654.059 440.173 654.439 440.671L655.242 440.674C659.093 436.78 660.289 430.282 663.821 425.931L664.777 425.573C666.782 417.913 671.955 407.835 675.189 400.24C674.479 414.841 667.44 435.512 663.65 450.028Q655.474 480.559 650.406 511.756C647.54 529.895 646.666 548.528 645.469 566.84Q643.226 599.829 640.649 632.794C638.396 660.213 633.98 691.424 627.689 718.19C624.219 732.958 619.778 747.6 615.377 762.117C607.545 788.839 597.445 815.561 587.06 841.388C583.602 843.574 580.056 845.459 576.359 847.203Q591.673 805.649 604.048 763.128C610.796 740.15 617.413 716.62 621.763 693.067C625.102 674.992 628.377 656.949 630.254 638.656C632.639 615.414 633.093 591.697 634.107 568.343C634.345 562.863 634.664 557.305 634.371 551.823C634.098 546.71 631.579 541.172 632.401 536.131C635.609 516.459 644.826 495.564 655.91 479.257C652.522 470.156 644.867 461.51 638.154 454.657C611.611 427.555 564.973 416.928 527.904 416.49C517.033 398.801 517.686 373.708 519.328 353.566C520.123 343.82 521.688 326.821 529.691 320.013Z"/>
	<path transform="scale(0.25 0.25)" d="M609.267 422.511C610.103 422.462 610.906 422.431 611.738 422.551C621.933 424.025 633.903 431.167 640.978 438.539C643.728 441.404 646.094 444.827 648.503 447.986C649.388 447.078 649.607 445.946 649.959 444.765C648.784 441.347 630.689 426.159 626.902 423.746C629.11 424.376 631.246 425.334 633.376 426.189C642.652 429.216 646.897 435.584 654.013 441.563C654.135 441.665 654.258 441.765 654.381 441.866C652.378 444.706 650.318 447.419 648.074 450.073C639.509 444.173 631.304 437.802 622.793 431.839C618.45 428.796 612.979 426.262 609.267 422.511Z"/>
	<path transform="scale(0.25 0.25)" d="M539.135 406.585C542.718 406.463 546.177 406.466 549.73 407.014C554.187 407.701 566.13 410.799 568.658 414.287L568.242 415.054C566.018 415.957 563.622 415.838 561.253 415.909C556.524 415.651 533.742 414.437 531.072 412.097L531.092 411.153C533.393 408.855 536.018 407.468 539.135 406.585Z"/>
	<path fill="#FEFEFE" transform="scale(0.25 0.25)" d="M538.038 245.702C547.754 245.205 558.369 247.649 567.939 249.284C604.036 255.448 642.544 263.505 674.251 282.693C675.028 295.777 676.8 319.753 674.737 332.108C674.017 331.192 673.326 330.42 672.449 329.652L671.993 329.933C675.086 333.997 674.769 334.899 674.65 339.912Q674.027 339.157 673.386 338.416C671.778 336.558 669.231 333.14 666.602 332.949L665.93 333.554C666.427 337.225 670.747 341.816 672.507 345.15C673.497 347.026 674.48 349.868 673.853 351.97C671.213 350.79 669.254 343.818 667.464 341.374C666.149 339.579 665.015 338.583 662.754 338.214L662.384 338.932C664.053 343.774 669.334 348.269 672.593 352.177C673.495 353.259 673.48 353.781 673.373 355.093C671.87 354.699 668.678 350.676 667.381 349.39C663.727 345.767 660.209 343.352 655.461 341.345C659.849 349.795 672.458 357.993 673.092 367.186Q671.871 365.384 670.518 363.679Q669.165 361.974 667.688 360.376Q666.211 358.778 664.617 357.295Q663.024 355.812 661.324 354.454Q659.623 353.095 657.825 351.868Q656.027 350.642 654.142 349.554Q652.257 348.466 650.296 347.523Q648.334 346.58 646.307 345.787C650.911 351.9 656.808 357.137 662.018 362.736C666.894 367.975 671.188 373.841 675.151 379.787C668.135 372.933 661.059 366.844 652.817 361.451C641.845 354.271 629.779 348.927 617.909 343.438C588.23 329.713 560.344 318.16 527.692 314.083C522.141 306.231 518.925 298.529 517.949 288.951C517.088 280.503 516.017 257.111 521.49 250.875C525.33 246.499 532.644 246.158 538.038 245.702Z"/>
	<path transform="scale(0.25 0.25)" d="M543.385 308.66C554.509 307.994 589.421 314.727 599.756 318.682C601.927 319.512 603.936 320.303 604.932 322.496L604.24 323.75C603.37 323.954 602.506 324.179 601.621 324.315C597.935 324.882 593.583 324.032 589.955 323.289C585.295 322.334 545.077 311.534 543.609 310.188C543.13 309.749 543.356 309.249 543.385 308.66Z"/>
	<path fill="#FEFEFE" transform="scale(0.25 0.25)" d="M492.369 422.229C492.754 422.085 493.249 422.167 493.659 422.175C497.392 425.829 499.12 433.261 500.215 438.244C504.328 456.961 505.063 499.12 494.848 515.27C483.285 520.534 458.146 520.231 443.973 523.082C428.529 526.19 414.235 533.339 398.542 535.177C403.3 525.084 410.203 515.149 416.288 505.809C414.768 506.957 413.299 508.187 411.811 509.377C405.465 515.903 399.969 523.487 395.464 531.384C392.858 524.516 391.363 517.148 389.142 510.131C385.577 498.862 381.092 488.278 376.038 477.604C378.66 472.662 382.176 468.001 385.677 463.656C392.549 455.126 400.988 447.418 410.57 442.033C431.878 430.056 468.103 424.741 492.369 422.229Z"/>
	<path fill="#FEFEFE" transform="scale(0.25 0.25)" d="M527.71 422.213C544.856 423.704 562.647 425.948 579.367 430.044C607.692 436.984 635.098 452.083 650.566 477.65C639.029 494.486 632.927 512.202 628.688 531.958L616.645 516.933C614.022 513.741 611.232 511.092 607.913 508.639C612.217 518.914 618.354 528.311 626.354 536.044C607.062 531.655 588.854 523.199 569.448 519.373C556.484 516.817 543.227 517.425 530.108 516.679C528.178 514.611 526.888 512.45 525.898 509.792C519.234 491.92 519.099 457.807 522.537 438.794C523.591 432.966 525.272 427.602 527.71 422.213Z"/>
	<path transform="scale(0.25 0.25)" d="M550.561 503.699C557.479 503.867 562.672 504.681 569.142 507.243C562.219 507.26 555.198 507.035 548.361 508.24C545.428 508.933 539.265 512.504 536.946 512.24C536.285 512.165 536.156 511.712 535.782 511.229C535.755 509.96 536.098 509.148 536.961 508.229C540.276 504.699 545.983 503.997 550.561 503.699Z"/>
	<path fill="#FEFEFE" transform="scale(0.25 0.25)" d="M528.096 523.124C541.028 526.095 554.867 526.694 567.99 528.953C588.309 532.451 608.602 537.622 629.064 540.015C631.121 550.628 629.264 562.574 628.82 573.363C628.332 585.219 628.165 597.084 627.596 608.938C623.796 610.903 619.754 612.211 615.688 613.498C594.802 619.432 549.332 622.314 530.076 612.108C525.428 609.644 522.821 606.12 521.382 601.102C516.978 585.738 519.616 550.056 523.652 534.287C524.684 530.254 526.09 526.767 528.096 523.124Z"/>
	<path fill="#FEFEFE" transform="scale(0.25 0.25)" d="M492.189 523.082C492.467 523.105 492.75 523.091 493.021 523.153C494.391 523.462 496.037 525.044 496.784 526.19C504.143 537.489 503.895 586.304 500.728 600.053C499.589 605.002 497.293 610.164 492.758 612.859C486.676 616.474 478.919 617.382 472.023 618.146C451.34 620.438 430.467 619.543 410.271 614.326C405.471 613.186 400.756 611.048 396.245 609.086C395.537 598.239 395.518 587.3 395.182 576.433C394.795 563.948 393.355 550.483 395.536 538.16C409.416 538.971 424.374 535.561 438.035 533.272C456.18 530.231 474.249 527.191 492.189 523.082Z"/>
	<path fill="#FEFEFE" transform="scale(0.25 0.25)" d="M363.137 467.681C375.635 475.979 385.972 521.136 393.255 535.886C387.603 550.771 389.571 570.057 390.157 585.758C391.045 609.556 392.506 633.59 396.005 657.159C400.044 684.364 406.764 711.155 413.789 737.725Q427.626 791.792 445.958 844.505C446.132 845.149 446.202 845.807 446.299 846.467L445.603 846.748C442.911 846.037 440.453 844.043 438.133 842.534C431.623 822.82 423.212 803.665 416.55 783.965C402.893 743.579 392.189 699.92 385.951 657.756C381.247 625.965 381.092 593.727 378.429 561.74C375.768 529.772 370.179 498.942 363.137 467.681Z"/>
	<path fill="#FEFEFE" transform="scale(0.25 0.25)" d="M408.923 827.944C413.9 830.385 418.574 837.038 423.404 840.409C445.53 855.855 470.385 867.936 496.882 873.66C502.808 874.94 508.888 875.842 514.965 875.445C532.535 874.296 561.355 863.378 576.683 854.77C587.28 848.819 597.005 841.782 607.179 835.212C604.677 837.896 602.393 840.727 600.099 843.588C595.231 850.048 590.786 856.898 586.555 863.79C582.798 865.989 578.846 867.9 574.929 869.795C539.217 887.068 512.301 895.948 473.268 880.79C461.518 876.226 450.188 870.045 438.271 865.992L437.569 865.757C429.27 852.142 419.641 839.747 408.923 827.944Z"/>
	<path transform="scale(0.25 0.25)" d="M887.305 72.3955C887.474 73.9393 872.266 122.057 870.571 128.346C863.729 153.741 859.839 179.422 854.579 205.1C853.525 210.246 851.912 215.282 850.682 220.389C847.342 234.257 843.982 248.001 839.669 261.615C832.521 284.174 822.551 305.496 814.232 327.584C802.581 358.52 792.368 389.628 782.827 421.269C777.478 439.01 771.486 456.66 767.103 474.666C764.356 485.951 762.937 497.398 761.213 508.867C759.488 520.348 757.515 531.879 756.574 543.454C755.7 554.216 755.73 565.809 758.226 576.367C759.524 581.86 761.637 587.221 763.259 592.63Q766.183 602.719 767.752 613.105C769.337 623.459 769.068 634.309 768.473 644.749C768.108 651.152 766.842 658.218 767.958 664.567C769.881 675.514 774.177 686.263 777.782 696.757Q782.3 709.818 785.547 723.251C790.235 742.605 793.41 762.334 796.649 781.97C803.895 825.897 809.396 869.959 809.501 914.556C809.526 925.288 809.936 936.916 807.816 947.472C807.092 932.422 805.055 917.438 803.269 902.486C801.188 885.065 799.206 867.664 796.859 850.274Q793.273 823.077 788.846 796.005C787.298 786.009 786.002 775.943 784.163 765.997C782.826 758.766 781.031 751.618 779.524 744.421C777.802 736.2 776.585 727.865 774.46 719.732C770.555 704.794 763.343 691.151 758.98 676.334C748.43 695.904 735.415 706.028 717.766 718.732C703.915 728.703 693.845 742.371 683.409 755.632C687.946 740.896 698.43 725.821 710.282 716.004C716.542 710.819 723.427 706.383 729.532 701.013C744.346 687.985 751.856 670.992 755.104 651.757C758.164 633.639 756.77 615.095 753.392 597.134C749.555 576.726 745.24 563.358 747.393 541.968C748.651 529.459 751.071 517.163 752.94 504.744C755.638 486.812 757.849 468.859 761.623 451.104C763.856 440.596 766.918 430.107 769.917 419.787C778.333 390.832 790.315 362.707 795.195 332.812C800.665 299.297 799.602 264.902 798.534 231.077C798.165 219.395 796.227 207.099 797.124 195.5L797.191 194.701C802.243 220.946 805.157 246.566 805.825 273.314C806.119 285.071 805.101 297.056 805.764 308.753L805.807 309.45C811.721 276.531 807.808 233.929 805.43 200.341C804.637 189.138 803.605 177.799 803.564 166.567C811.485 195.228 813.017 231.746 814.065 261.601C814.424 271.819 815.363 282.939 813.953 293.075C824.248 270.742 836.16 248.99 842.458 225.055C846.887 208.22 847.586 190.725 850.251 173.584C854.723 144.822 864.721 118.689 877.086 92.5103C880.224 85.8657 883.128 78.4472 887.305 72.3955Z"/>
	<path transform="scale(0.25 0.25)" d="M730.611 557.805L731.796 558.137C730.828 564.922 693.218 610.642 686.56 620.617C680.447 629.776 674.744 639.185 670.156 649.21C664.207 662.208 660.192 675.998 655.922 689.607L644.005 726.897L643.717 727.184L642.983 726.891C642.031 721.461 647.047 700.452 648.426 694.131C652.325 676.257 657.669 658.81 665.412 642.212C675.756 620.036 710.183 570.919 730.611 557.805Z"/>
	<path transform="scale(0.25 0.25)" d="M289.916 556.759C302.713 562.827 325.201 589.922 334.049 601.721C355.231 629.967 368.449 662.37 376.497 696.598C378.663 705.811 381.354 716.576 379.993 726.023C378.523 725.259 377.06 719.234 376.543 717.467C368.58 690.27 361.602 663.215 348.202 638.005C339.166 621.003 327.608 605.407 315.438 590.539C306.589 579.728 296.487 569.138 289.916 556.759Z"/>
	<path transform="scale(0.25 0.25)" d="M749.523 738.174C750.139 738.478 750.552 738.537 750.905 739.175C752.936 742.842 753.298 753.66 753.805 758.041C756.429 780.706 758.61 803.736 758.877 826.568C759.136 848.672 757.688 870.778 757.978 892.873L758.779 931.37C758.983 940.41 759.989 950.315 758.196 959.205L757.735 959.303C753.76 954.705 752.968 904.915 753.011 896.675C753.075 884.576 753.971 872.487 754.007 860.385C754.047 846.834 753.793 833.18 753.359 819.635Q752.463 795.697 751.006 771.786C750.307 760.625 749.182 749.36 749.523 738.174Z"/>
	<path transform="scale(0.25 0.25)" d="M271.676 731.789C271.967 732.048 272.187 732.482 272.403 732.808C274.319 772.649 270.3 812.8 269.495 852.637C269.19 867.708 270.19 882.622 270.422 897.669C270.638 911.636 270.048 925.281 268.95 939.194C268.473 945.235 268.484 952.201 266.799 958.005C266.657 957.832 266.505 957.666 266.373 957.485C263.19 953.118 265.453 914.181 265.523 906.194C265.68 888.102 265.053 870.016 265.203 851.933Q265.774 815.866 267.761 779.849C268.596 764.03 268.868 747.365 271.676 731.789Z"/>
	<path transform="scale(0.25 0.25)" d="M754.727 414.355C755.981 415.686 755.799 417.985 755.74 419.683C755.567 424.635 754.384 429.698 753.237 434.508C746.154 464.216 725.933 486.788 701.214 503.697C694.532 508.267 683.302 512.986 677.932 518.101C677.77 518.256 677.611 518.415 677.45 518.571L677.176 518.727L676.976 518.295C681.646 510.599 689.652 503.937 696.25 497.851C708.687 486.381 722.08 475.274 732.455 461.827C739.841 452.254 743.96 440.732 748.143 429.523C749.981 424.597 751.659 419.408 754.391 414.893C754.501 414.712 754.615 414.534 754.727 414.355Z"/>
	<path transform="scale(0.25 0.25)" d="M533.253 56.8685C534.072 62.4241 531.947 73.8865 531.294 80.0879C529.907 93.2764 528.424 106.437 527.596 119.678C526.713 133.807 526.006 148.039 525.895 162.195C525.796 174.99 526.178 187.779 526.047 200.579L524.434 193.615C515.218 153.234 514.721 94.6218 533.253 56.8685Z"/>
	<path transform="scale(0.25 0.25)" d="M489.925 56.382C490.115 56.6502 490.311 56.9145 490.495 57.1866C493.757 61.9963 495.687 68.7501 497.369 74.2542C508.602 111.024 507.883 156.899 499.981 194.25C499.461 196.29 498.848 198.31 498.269 200.334C498.058 186.794 498.609 173.257 498.226 159.715Q496.601 107.846 489.925 56.382Z"/>
	<path transform="scale(0.25 0.25)" d="M508.975 616.045C510.072 616.026 511.238 615.967 512.32 616.163C514.448 616.549 515.841 618.141 517.029 619.82C522.027 626.885 524.244 640.042 522.849 648.56C521.851 654.652 519.578 662.755 514.399 666.507C511.771 665.492 509.524 663.999 507.68 661.857C501.725 654.937 499.09 643.36 499.885 634.385C500.509 627.355 503.47 620.597 508.975 616.045Z"/>
	<path fill="#FEFEFE" transform="scale(0.25 0.25)" d="M513.225 623.986C515.067 625.999 516.482 630.089 517.309 632.721C520.423 642.636 518.667 650.705 513.96 659.742C511.713 657.46 509.734 654.611 508.797 651.542C506.087 642.658 508.954 631.909 513.225 623.986Z"/>
	<path transform="scale(0.25 0.25)" d="M273.139 417.908C274.438 419.211 278.027 436.647 279.359 440.189C282.395 448.259 286.494 455.414 291.663 462.312C300.345 473.897 311.39 483.863 322.397 493.198C327.565 497.581 346.716 512.078 349.304 516.27L348.498 516.536C319.826 503.39 288.345 481.069 275.506 451.249C271.11 441.039 268.898 428.503 273.139 417.908Z"/>
	<path transform="scale(0.25 0.25)" d="M681.324 807.361C681.649 807.677 681.799 808.082 682.003 808.482C680.508 816.118 676.971 823.917 674.337 831.256Q668.707 847.198 663.654 863.332C656.439 886.86 651.947 911.266 644.289 934.629C643.825 934.169 643.67 933.647 643.644 933.008C643.296 924.693 644.543 915.789 645.753 907.55C649.798 880.015 657.161 853.534 668.919 828.279C672.308 820.997 675.881 813.349 681.324 807.361Z"/>
	<path transform="scale(0.25 0.25)" d="M341.937 806.427C342.106 806.569 342.287 806.698 342.443 806.854C349.348 813.696 353.517 823.692 357.117 832.553C369.928 864.092 378.844 903.405 379.294 937.431C375.623 929.152 372.485 911.7 370.17 902.187C365.633 883.541 360.751 865.284 354.773 847.039C352.398 839.791 340.548 811.967 341.937 806.427Z"/>
	<path transform="scale(0.25 0.25)" d="M506.892 670.262L507.884 671.291C510.608 681.42 509.021 709.983 508.787 721.968Q508.373 744.656 508.577 767.346Q508.901 788.722 509.656 810.087C510.248 824.005 511.355 838.122 510.346 852.035L509.744 852.157C508.588 838.674 506.15 825.323 505.216 811.764C502.941 778.729 503.569 745.178 504.582 712.108C504.995 698.627 504.508 683.494 506.892 670.262Z"/>
	<path transform="scale(0.25 0.25)" d="M282.139 379.181C282.713 379.384 283.184 379.724 283.699 380.045C285.295 382.535 285.599 385.182 286.691 387.864C289.024 393.591 292.131 399.18 295.591 404.295C306.22 420.006 321.316 432.283 333.521 446.749C335.77 449.414 345.598 461.058 345.593 463.968C340.216 459.686 335.548 454.462 330.341 449.965C314.784 436.529 297.49 425.433 287.305 406.87C282.909 398.857 279.521 388.281 282.139 379.181Z"/>
	<path transform="scale(0.25 0.25)" d="M738.722 377.238C739.1 377.46 739.314 377.546 739.602 377.942C742.39 381.775 741.038 391.478 740.023 395.962C735.193 417.309 713.582 434.588 697.349 447.876C691.832 452.391 686.339 457.259 680.301 461.064L679.821 461.235L679.273 460.707C681.415 455.751 686.44 451.106 690.031 447.052C693.499 443.136 696.933 439.146 700.663 435.476C712.304 424.02 726.112 412.882 732.674 397.511C735.463 390.978 736.796 384.042 738.722 377.238Z"/>
	<path transform="scale(0.25 0.25)" d="M739.76 494.905C740.277 495.733 740.213 496.084 740.161 497.036C739.182 515.013 711.916 539.912 698.26 550.916C690.608 557.082 682.411 562.43 675.001 568.922L674.75 568.33C686.24 550.912 705.372 534.731 719.866 519.501C727.177 511.818 733.332 503.314 739.76 494.905Z"/>
	<path transform="scale(0.25 0.25)" d="M283.574 496.755C289.111 500.852 296.477 509.953 301.522 515.202C313.631 527.801 325.727 540.252 337.63 553.063C342.727 558.548 350.554 565.353 353.695 572.044C348.341 569.094 343.491 563.604 338.791 559.668C319.547 543.552 290.877 521.456 283.574 496.755Z"/>
	<path transform="scale(0.25 0.25)" d="M374.253 862.139C375.548 862.869 376.211 863.682 376.939 864.951C384.359 877.878 398.224 941.575 394.712 955.186C393.001 950.574 392.1 945.43 391.003 940.634L385.149 915.089C381.62 900.082 376.795 885.086 374.279 869.886C373.828 867.161 373.515 864.859 374.253 862.139Z"/>
	<path transform="scale(0.25 0.25)" d="M649.417 862.807L649.871 863.11C651.353 865.933 649.541 870.285 648.69 873.254C645.822 883.258 642.156 892.912 639.858 903.095C635.987 920.245 633.762 938.214 628.946 955.075L628.567 955.051C628.081 954.153 628.152 953.407 628.168 952.41C628.565 927.721 633.132 901.861 641.367 878.582C643.307 873.098 645.179 866.948 649.417 862.807Z"/>
	<path transform="scale(0.25 0.25)" d="M762.838 303.961C762.871 304.124 762.928 304.285 762.937 304.452C763.153 308.318 756.477 316.317 754.197 319.157C749.081 325.531 741.927 334.238 733.318 335.197C733.243 334.216 733.299 333.242 733.567 332.29C735.557 325.202 756.207 307.327 762.838 303.961Z"/>
	<path transform="scale(0.25 0.25)" d="M262.627 789.853C265.765 800.682 260.96 854.265 258.183 865.926C254.29 856.13 259.818 800.524 262.627 789.853Z"/>
	<path transform="scale(0.25 0.25)" d="M256.619 269.25C261.127 272.836 265.287 281.24 269.498 285.851C276.303 293.303 289.762 299.349 293.171 308.339C289.77 307.709 285.907 305.466 282.808 303.887C267.985 296.338 261.666 284.403 256.619 269.25Z"/>
	<path transform="scale(0.25 0.25)" d="M772.851 341.469L773.246 341.937C773.054 350.38 762.007 364.832 756.45 370.751C753.828 373.545 751.318 376.443 747.276 376.584C748.024 374.692 747.626 374.068 747.825 372.272C748.148 369.378 769.563 344.094 772.851 341.469Z"/>
	<path transform="scale(0.25 0.25)" d="M245.906 340.299C246.051 340.384 246.205 340.457 246.342 340.555C250.796 343.715 274.938 377.656 276.145 382.549C275.399 382.403 274.698 382.232 274.016 381.881C270.724 380.189 267.711 376.666 265.298 373.93C256.418 363.86 249.678 353.246 245.906 340.299Z"/>
	<path transform="scale(0.25 0.25)" d="M762.975 325.941C762.979 325.992 762.987 326.042 762.989 326.093C763.132 331.683 749.31 350.06 744.844 355.01C743.562 356.431 743 356.727 741.088 356.814C740.192 354.973 739.403 353.541 739.846 351.423C741.773 342.214 755.604 331.046 762.975 325.941Z"/>
	<path transform="scale(0.25 0.25)" d="M766.056 276.502C766.061 277.067 765.958 277.559 765.758 278.098C761.486 289.564 738.057 303.02 726.967 307.57L727 306.733C731.59 299.424 757.634 281.363 766.056 276.502Z"/>
	<path transform="scale(0.25 0.25)" d="M257.297 307.412C264.46 310.744 275.978 322.375 281.607 328.472C284.958 332.102 288.153 335.723 287.955 340.915C287.342 340.855 287.141 340.882 286.57 340.646C278.295 337.218 261.385 315.587 257.297 307.412Z"/>
	<path transform="scale(0.25 0.25)" d="M780.73 376.415L780.908 377.185C778.917 385.166 770.668 397.918 765.182 404.28C762.715 407.14 759.807 409.588 756.954 412.05C756.818 411.242 756.798 411.442 756.88 410.604C757.723 402.018 773.782 381.591 780.73 376.415Z"/>
	<path transform="scale(0.25 0.25)" d="M259.731 334.296C262.915 335.787 281.864 355.586 283.338 358.739C284.007 360.17 283.448 361.1 283.036 362.504C282.052 363.047 281.926 363.092 280.808 363.021C271.958 358.121 263.088 343.695 259.731 334.296Z"/>
	<path transform="scale(0.25 0.25)" d="M762.723 795.407L763.258 796.028C764.523 807.059 765.048 818.244 765.744 829.328C766.501 841.379 767.641 853.733 766.735 865.782C765.466 862.883 765.44 858.649 765.035 855.466C762.488 835.463 761.482 815.538 762.723 795.407Z"/>
	<path transform="scale(0.25 0.25)" d="M769.231 373.933C769.449 375.827 767.999 378.498 767.083 380.187C762.595 388.454 752.606 400.759 743.352 403.589L743.268 402.97C745.316 396.171 763.418 379.718 769.231 373.933Z"/>
	<path transform="scale(0.25 0.25)" d="M248.373 376.792C251.87 379.237 257.837 390.02 259.832 393.96C261.203 396.67 261.585 397.807 260.592 400.776C260.13 401.039 259.25 401.441 258.745 401.525C258.026 401.646 257.055 401.552 256.446 401.123C252.004 397.99 249.091 382.245 248.373 376.792Z"/>
	<path transform="scale(0.25 0.25)" d="M262.888 378.298C263.825 378.717 264.433 379.332 265.09 380.103C269.386 385.148 277.994 396.939 277.376 403.638L275.249 403.832C274.44 403.528 273.886 403.256 273.267 402.633C268.398 397.735 262.907 385.158 262.888 378.298Z"/>
	<path transform="scale(0.25 0.25)" d="M258.09 410.284C258.626 410.701 258.94 411.046 259.265 411.647C262.165 417 268.083 435.818 266.739 441.327C265.402 441.212 264.905 441.092 263.993 440.059C259.101 434.519 257.867 417.556 258.09 410.284Z"/>
	<path transform="scale(0.25 0.25)" d="M766.816 416.888C767.263 417.392 767.549 417.813 767.686 418.499C768.624 423.222 760.101 441.079 756.995 445.237C756.481 445.002 756.556 445.143 756.356 444.48C754.677 438.921 763.869 422.117 766.816 416.888Z"/>
	<path transform="scale(0.25 0.25)" d="M517.216 695.828C519.964 704.31 518.3 731.646 515.411 740.689L514.731 740.652C513.217 737.45 516.713 702.165 517.216 695.828Z"/>
</svg>
