<?xml version="1.0" encoding="utf-8" ?>
<svg xmlns="http://www.w3.org/2000/svg" xmlns:xlink="http://www.w3.org/1999/xlink" width="256" height="256">
	<path fill="#FEFEFE" transform="scale(0.25 0.25)" d="M0 0L1024 0L1024 1024L0 1024L0 0Z"/>
	<path transform="scale(0.25 0.25)" d="M309.422 75.6033C343.896 76.957 383.383 112.055 406.804 135.668C411.213 140.114 414.613 145.445 419.055 149.844C419.198 149.985 419.344 150.124 419.489 150.264C419.243 149.761 418.987 149.267 418.736 148.767C413.122 137.594 402.703 125.185 394.421 115.674C391.361 112.16 378.922 100.447 378.495 96.7558C378.4 95.9321 378.671 95.8517 379.122 95.2477C379.773 95.145 379.786 95.1088 380.547 95.1815C384.339 95.5437 389.647 99.9735 392.795 102.165C399.671 106.95 406.744 111.688 413.089 117.17C424.036 126.63 433.184 138 442.763 148.775C448.383 155.097 454.557 161.22 459.496 168.09C452.947 147.053 435.79 127.532 421.111 111.52C418.189 108.333 410.009 101.339 408.741 97.7772C408.445 96.9455 408.465 97.2761 408.878 96.4821C409.341 96.4157 409.602 96.3453 410.1 96.4529C413.349 97.1549 417.538 101.428 420.052 103.609C434.486 116.128 447.259 130.207 459.312 144.998C464.914 151.874 470.056 159.091 475.888 165.781C472.026 148.609 461.431 133.382 451.127 119.43C448.318 115.628 444.412 112.063 442.4 107.802C442.505 106.524 442.566 106.43 443.373 105.426L444.332 105.492C451.078 109.451 476.603 137.106 479.354 144.166C479.356 144.169 479.784 145.335 479.818 145.394C480.307 146.236 480.534 146.515 481.432 146.74C481.555 146.516 481.716 146.31 481.802 146.069C483.387 141.611 476.227 129.595 474.17 125.202C472.501 121.635 467.696 113.579 469.057 109.825L470.062 109.559C474.429 112.156 479.494 121.997 482.233 126.63C481.793 119.683 480.9 112.326 481.331 105.379C481.45 103.464 481.651 100.68 483.19 99.344L484.058 99.4775C490.164 104.392 491.771 115.82 494.231 122.849L494.391 123.298C495.558 118.48 499.127 92.5422 501.088 90.6723C502.21 90.1816 503.017 89.9355 504.234 90.3405C506.028 90.9375 507.108 92.6939 507.735 94.3698C510.962 102.984 508.888 117.555 507.873 126.768C504.789 154.786 498.357 182.845 486.034 208.325C480.692 219.371 474.175 229.818 468.759 240.826C462.542 253.462 457.94 266.603 451.23 279.079Q443.706 292.99 436.037 306.822C433.096 312.092 429.69 317.438 427.295 322.969C424.969 328.338 425.532 334.81 424.524 340.532C422.864 349.96 420.514 359.579 417.661 368.717C415.265 376.394 411.453 383.749 407.245 390.579C404.741 394.643 401.863 398.664 399.918 403.03C399.838 403.21 399.763 403.392 399.685 403.573C402.277 412.333 404.184 421.363 406.447 430.221C417.194 472.287 427.738 519.474 420.924 562.949C419.232 582.169 409.37 607.777 401.027 625.177C396.034 635.592 390.357 645.654 386.149 656.434C374.44 686.438 369.846 716.755 369.738 748.86C369.716 755.505 369.356 762.627 370.06 769.232C370.921 777.312 377.304 782.738 377.528 791.255C377.857 803.746 373.123 815.556 371.089 827.735C370.82 829.349 370.583 831.033 370.816 832.664C371.714 838.952 373.719 845.182 374.828 851.463C375.956 857.847 375.705 865.123 377.639 871.244C379.197 876.176 382.203 880.742 384.242 885.496C387.749 893.674 388.689 901.814 385.171 910.22C381.927 917.97 375.98 923.52 368.209 926.592C354.551 931.992 338.896 929.639 325.737 923.967C316.743 925.965 310.78 923.138 302.688 919.77C301.877 920.011 301.062 920.226 300.246 920.448C292.252 922.613 278.303 921.309 270.51 918.471C266.796 917.119 263.243 914.883 261.561 911.163Q261.328 910.653 261.146 910.123Q260.965 909.592 260.836 909.047Q260.708 908.501 260.634 907.945Q260.56 907.389 260.541 906.829Q260.522 906.269 260.558 905.709Q260.595 905.15 260.686 904.596Q260.778 904.043 260.923 903.502Q261.069 902.96 261.267 902.436C263.731 895.977 270.36 891.814 273.33 885.554C278.397 874.874 280.942 862.676 285.079 851.576C289.232 840.432 294.771 829.895 298.954 818.815C298.593 814.792 297.437 810.789 296.659 806.823Q294.944 798.263 294.799 789.534C294.615 781.487 297.675 774.724 298.34 766.955C299.417 754.375 294.949 736.43 292.415 723.967Q285.043 688.514 274.961 653.735C262.169 609.971 245.795 565.119 246.098 518.976C246.276 491.796 251.078 465.705 259.955 440.024C264.927 425.639 271.135 411.433 276.872 397.327C284.69 378.106 291.62 360.585 290.593 339.305C289.978 326.582 285.117 315.963 280.528 304.345Q279.148 300.918 277.945 297.425Q276.742 293.932 275.72 290.382Q274.698 286.832 273.859 283.234Q273.021 279.636 272.368 276Q271.715 272.363 271.25 268.698Q270.785 265.034 270.508 261.35Q270.231 257.666 270.144 253.972Q270.057 250.279 270.159 246.586C270.571 229.557 274.943 213.177 278.794 196.693C282.879 179.205 286.739 161.685 291.903 144.474C298.13 123.726 306.012 103.826 314.647 83.9878L310.973 83.6076C310.585 83.5694 310.195 83.5506 309.809 83.4949C307.969 83.2293 306.148 81.9561 305.02 80.5179C304.892 79.8814 304.579 79.2437 304.902 78.6349C305.75 77.0387 307.826 76.2037 309.422 75.6033Z"/>
	<path fill="#FEFEFE" transform="scale(0.25 0.25)" d="M324.294 85.2735C342.837 89.5582 363.503 105.295 377.101 118.45C374.163 135.258 371.246 152.029 368.573 168.884C367.783 173.863 366.051 179.115 365.853 184.103C365.754 186.614 365.956 188.9 367.748 190.783L369.265 190.199C370.086 188.872 370.539 187.681 370.91 186.163C373.011 177.569 373.723 168.118 375.084 159.344C376.987 147.08 379.408 134.865 381.499 122.625L464.901 224.84C463.763 229.874 461.208 234.942 459.217 239.718C450.307 261.102 439.989 282.693 427.246 302.092C429.299 286.386 428.164 269.685 425.212 254.158C423.345 244.338 420.793 234.493 419.509 224.585Q418.447 216.562 418.105 208.476C417.903 204.456 418.122 199.957 417.215 196.06C416.108 195.191 415.956 195.269 414.527 195.229C411.249 197.6 412.318 206.486 412.54 210.1C414.679 244.865 426.716 269.974 421.166 306.647C420.33 312.169 419.556 318.16 417.543 323.39C414.843 330.407 409.008 335.498 406.014 342.157C406.092 343.608 406.007 344.203 406.801 345.45L407.754 345.564C411.355 343.901 413.383 340.518 415.569 337.371C411.345 365.279 402.823 380.028 387.515 402.93C381.973 411.223 376.265 419.394 372.611 428.746C369.392 436.984 367.645 445.921 365.632 454.522C354.161 503.526 350.192 557.232 352.781 607.51C352.991 611.595 352.881 624.995 354.645 628.04C355.383 629.313 355.68 629.417 356.99 629.872C358.095 629.147 358.327 628.746 358.569 627.425C359.398 622.913 358.231 617.189 357.982 612.548Q357.467 602.585 357.338 592.61C356.513 547.965 360.315 501.989 370.49 458.497C372.384 450.4 374.037 441.797 377.164 434.07C380.563 425.668 385.702 417.628 391.371 410.585C394.486 424.56 398.694 438.284 402.026 452.213C416.783 513.913 420.022 560.327 393.005 618.816C380.539 645.804 368.827 670.757 363.757 700.356C361.946 710.933 361.264 721.652 360.107 732.313C359.238 725.562 359.41 718.675 359.392 711.882Q359.473 690.052 360.509 668.246C360.752 662.336 362.252 653.616 361.094 648.06C360.784 646.572 360.543 646.564 359.314 645.807C359.127 645.924 358.93 646.027 358.754 646.159C356.721 647.678 356.156 649.698 355.639 652.072C348.077 688.038 346.739 726.479 356.179 762.262C357.63 767.764 359.723 773.546 362.035 778.727C363.688 782.432 366.782 786.864 367.405 790.88C368.599 798.568 365.479 808.82 363.351 816.219Q362.829 812.333 362.052 808.49C360.635 801.305 357.369 785.059 351.339 781.018L350.776 781.249C346.198 788.586 362.894 838.921 364.998 849.542C366.414 856.69 365.513 864.389 367.352 871.33C370.336 882.59 379.58 891.049 377.026 903.655C376.038 908.529 373.3 912.668 369.12 915.388C358.424 922.347 343.883 919.347 332.274 916.938C331.167 914.417 330.128 911.355 327.765 909.775C326.385 909.709 326.187 909.855 324.964 910.534C324.404 911.481 324.365 911.965 324.47 913.023C324.566 913.989 324.582 914.778 324.45 915.752C323.521 916.236 323.886 916.217 323.171 916.201C319.841 916.125 312.386 915.094 309.875 912.804C308.053 911.143 306.6 908.79 304.703 907.283C303.652 906.449 303.294 906.61 302.049 906.756C299.75 908.125 299.249 910.583 297.658 912.562C296.789 913.641 296.151 913.718 294.841 913.785C288.976 911.279 288.58 905.492 284.553 901.517C283.297 901.061 283.276 900.967 282.034 901.411C280.225 904.029 281.955 907.586 282.328 910.516L281.813 910.971C280.044 911.183 278.505 910.945 276.791 910.45C274.272 909.723 271.702 908.733 270.366 906.354C270.324 902.77 276.236 898.797 278.235 895.84C280.053 893.148 281.627 890.121 282.932 887.15C286.181 879.753 288.559 871.862 291.249 864.242C294.087 856.202 297.236 848.359 300.517 840.49C303.44 833.479 306.269 826.373 309.542 819.518C311.76 814.874 316.335 807.653 317.563 802.93C318.074 800.965 317.752 799.109 316.693 797.404C315.564 796.764 315.287 796.509 313.946 796.891C310.623 797.837 308.001 802.979 306.252 805.655C304.45 797.797 303.881 790.239 305.438 782.323C306.361 777.628 307.454 773.112 307.655 768.312C308.172 755.969 306.103 743.066 303.943 730.925C298.9 702.578 290.9 672.831 282.694 645.235C271.824 608.683 257.659 567.046 256.009 528.925C254.865 502.478 258.891 477.367 265.632 451.885C261.617 490.797 276.101 539.228 285.314 576.877C286.425 581.421 289.274 597.594 290.585 600.161C291.227 601.418 291.677 601.74 293.002 602.091C293.808 601.661 293.995 601.746 294.383 600.85C297.114 594.535 278.632 529.373 276.332 516.469C273.209 498.95 270.921 481.321 270.896 463.505C270.882 453.062 270.948 442.238 273.557 432.065C275.055 426.222 277.795 420.436 280.023 414.831C290.942 387.35 304.887 360.583 299.117 329.941C297.365 320.639 293.548 312.137 290.16 303.364C283.336 285.689 279.089 266.884 279.385 247.855C279.648 230.848 284.465 214.179 288.403 197.748C294.426 172.616 300.354 147.547 308.865 123.107C313.338 110.26 318.772 97.6972 324.294 85.2735Z"/>
	<path transform="scale(0.25 0.25)" d="M300.611 403.059C302.097 403.099 303.388 402.973 304.632 403.916C307.229 408.571 307.744 415.223 308.656 420.459C311.217 435.171 313.039 449.869 313.101 464.826C313.167 480.483 311.565 496.203 310.636 511.825C307.695 561.262 309.891 610.663 314.001 659.963Q315.934 683.16 318.914 706.245C320.518 718.701 326.592 751.267 324.738 761.576C323.333 761.579 322.696 761.728 321.468 761.001C318.996 756.735 319.751 749.703 319.177 744.818C318.714 740.876 317.956 736.938 317.323 733.019Q313.664 709.442 311.008 685.731Q308.353 662.021 306.707 638.218Q305.061 614.416 304.427 590.566Q303.793 566.715 304.172 542.859C304.444 526.897 305.487 511.028 306.498 495.099C307.241 483.403 308.174 471.65 307.851 459.922C307.538 448.568 306.201 437.062 304.331 425.864C303.134 418.7 300.098 410.28 300.611 403.059Z"/>
	<path transform="scale(0.25 0.25)" d="M366.599 207.2C367.061 207.345 367.212 207.378 367.698 207.614C368.756 208.127 369.969 208.864 370.264 210.094C371.011 213.211 369.03 221.255 368.656 224.752Q367.025 239.748 367.764 254.814C368.971 280.877 374.071 303.098 382.823 327.613C385.278 334.49 389.897 341.902 391.574 348.787C391.936 350.274 391.264 351.354 390.585 352.614C389.831 352.54 389.067 352.384 388.321 352.263C385.419 350.04 384.446 345.114 383.064 341.839C377.437 328.499 372.293 315.315 368.894 301.204Q367.737 296.451 366.78 291.655Q365.822 286.858 365.065 282.025Q364.307 277.193 363.752 272.333Q363.196 267.474 362.844 262.595Q362.491 257.716 362.342 252.827Q362.192 247.938 362.247 243.047Q362.301 238.156 362.559 233.271Q362.817 228.387 363.278 223.517C363.757 218.278 363.807 211.768 366.599 207.2Z"/>
	<path transform="scale(0.25 0.25)" d="M350.934 206.711C351.896 206.81 352.775 207.003 353.716 207.216C354.318 207.81 354.698 207.993 354.903 208.848C355.315 210.561 354.358 213.12 354.048 214.902C348.723 245.435 336.463 273.886 325.513 302.682C320.932 314.727 316.911 328.53 310.099 339.471C309.761 339.505 309.282 339.576 308.954 339.498C307.819 339.228 307.597 338.653 307.071 337.735C306.939 336.084 307.29 334.744 307.813 333.187C310.198 326.084 313.509 319.109 316.27 312.119C324.169 292.116 332.509 271.722 339.09 251.257Q343.158 238.367 346.326 225.227C347.741 219.184 348.541 212.395 350.934 206.711Z"/>
	<path transform="scale(0.25 0.25)" d="M383.154 504.734C383.59 504.78 384.049 504.817 384.475 504.919C385.688 505.211 386.55 505.366 387.092 506.583C389.495 511.985 395.56 601.825 393.84 607.559C393.128 607.578 392.139 607.693 391.456 607.517C390.772 607.34 390.182 607.075 389.898 606.408C388.935 604.151 388.443 584.238 388.207 580.326Q387.019 559.601 385.372 538.908C384.548 529.096 383.387 519.281 382.736 509.458C382.623 507.753 382.633 506.388 383.154 504.734Z"/>
	<path transform="scale(0.25 0.25)" d="M357.513 419.289C358.556 419.368 359.277 419.595 360.239 420.002C360.697 420.619 361.16 420.948 361.154 421.76C361.136 424.281 355.165 441.677 354.072 445.568C350.401 458.638 347.387 472.102 344.744 485.413C343.264 492.865 342.29 500.826 340.231 508.119C339.914 509.242 339.557 509.844 338.82 510.725C338.224 510.617 337.385 510.528 336.807 510.298C336.253 510.076 335.417 509.792 335.249 509.157C333.906 504.072 346.371 453.08 348.599 445.112C350.789 437.281 353.43 426.213 357.513 419.289Z"/>
	<path transform="scale(0.25 0.25)" d="M370.121 350.961C370.56 350.991 371.059 351.015 371.486 351.099C373.085 351.414 373.997 351.899 374.815 353.321C378.371 359.508 377.309 371.602 375.71 378.371C373.565 387.456 368.349 395.084 360.431 400.056C359.976 400.169 359.524 400.296 359.062 400.376C357.427 400.658 356.497 400.314 355.179 399.376C354.978 398.891 354.77 398.474 354.722 397.932C354.363 393.89 363.201 384.278 365.007 379.359C367.414 372.804 366.631 364.561 367.275 357.65C367.536 354.841 367.874 352.809 370.121 350.961Z"/>
	<path transform="scale(0.25 0.25)" d="M316.316 345.341C316.783 345.345 317.251 345.337 317.717 345.365C319.207 345.455 320.391 345.874 321.275 347.161C323.267 350.063 322.036 356.726 321.854 360.172C321.609 364.807 322.05 369.378 322.728 373.967C323.515 379.294 326.543 387.674 325.371 392.899C324.883 395.078 323.475 396.049 321.786 397.31C321.191 397.023 320.382 396.691 319.862 396.255C315.262 392.402 313.36 379.558 312.76 373.917C311.981 366.591 311.461 351.346 316.316 345.341Z"/>
	<path transform="scale(0.25 0.25)" d="M325.713 410.966C326.744 411.1 327.698 411.361 328.698 411.642C330.428 413.724 331.787 425.15 331.354 427.966C331.116 429.513 330.415 429.764 329.282 430.649C328.735 430.248 328.227 429.823 327.755 429.333C324.79 426.253 323.413 419.052 323.656 414.997C323.774 413.029 324.267 412.266 325.713 410.966Z"/>
	<path fill="#FEFEFE" transform="scale(0.25 0.25)" d="M487.162 180.45C487.841 183.485 480.496 199.775 478.829 203.166C478.4 201.644 481.388 188.631 481.567 184.873C483.58 183.547 485.343 182.021 487.162 180.45Z"/>
	<path transform="scale(0.25 0.25)" d="M715.183 74.5269C715.327 74.5121 715.469 74.4896 715.613 74.4825C717.395 74.3944 717.957 74.7673 719.199 75.9213C719.414 76.6131 719.738 77.0804 719.474 77.7995C718.392 80.7459 712.277 83.092 709.593 84.4983Q714.164 94.1037 718.223 103.937Q722.281 113.77 725.816 123.803Q729.351 133.836 732.352 144.042Q735.352 154.247 737.811 164.597C740.777 176.819 742.853 189.264 745.707 201.521C748.72 214.459 753.217 227.2 754.322 240.504Q754.717 245.687 754.682 250.886Q754.648 256.084 754.184 261.262Q753.721 266.44 752.832 271.561Q751.942 276.683 750.633 281.714C744.767 305.145 729.861 325.614 732.066 350.791C734.021 373.101 744.78 393.863 753.619 414.019C759.484 427.393 764.954 441.065 769.142 455.066C777.703 483.694 781.72 515.302 777.224 544.992C775.389 557.107 772.125 569.008 769.138 580.877C764.973 597.422 760.99 614.029 756.157 630.396C753.305 640.051 749.646 649.459 746.849 659.129C742.538 674.033 740.369 689.569 737.063 704.72C733.74 719.945 729.195 734.945 726.782 750.362C724.297 766.24 728.051 767.848 730.103 782.187C731.418 791.376 731.345 812.355 727.011 820.395C730.697 829.498 735.568 838.007 738.909 847.296C743.333 859.595 746.183 872.679 751.488 884.637C754.273 890.913 760.586 895.147 762.706 901.773C763.72 904.943 763.55 907.606 762.016 910.551C759.896 914.624 756.352 917.323 751.983 918.653C746.294 920.385 740.264 919.337 734.422 919.912C729.801 920.367 725.032 920.762 720.458 921.548C715.562 922.389 710.795 923.762 705.793 923.835C702.819 923.879 700.195 923.512 697.534 922.136C686.446 931.91 675.389 927.018 663.292 930.575C653.827 933.358 644.477 938.71 635.305 942.493C632.162 943.79 626.989 946.257 623.664 944.874L623.957 943.876L623.321 944.259L623.993 942.942L623.419 943.747C625.374 939.859 651.045 930.118 657.232 927.407C649.423 924.068 642.652 920.404 639.047 912.109C636.908 907.188 636.588 901.485 637.275 896.208C638.529 886.567 643.795 877.716 646.194 868.289C648.817 857.986 649.253 847.29 651.501 836.921C652.084 834.235 652.95 831.73 653.969 829.182C649.854 815.039 641.783 798.785 646.915 783.925C648.73 778.669 652.47 774.463 652.976 768.742C655.398 741.357 652.436 712.764 646.209 686.07Q641.577 668.316 634.818 651.258C630.407 640.311 625.219 629.677 620.742 618.751C608.068 587.821 603.137 561.992 602.966 528.541Q602.748 509.188 605.116 489.979C609.128 459.486 620.311 430.368 623.113 399.775C610.975 381.05 604.205 361.609 599.869 339.807C598.603 333.438 598.788 326.19 596.235 320.218C593.623 314.109 589.418 308.246 586.109 302.451C580.459 292.558 575.075 282.418 569.576 272.429C564.069 262.424 560.433 251.657 555.339 241.487C551.098 233.018 545.587 225.258 541.52 216.679C529.555 191.443 523.64 163.99 518.52 136.72C516.427 125.57 511.447 106.778 511.665 96.1764C511.706 94.18 511.913 92.479 513.373 91.0206C514.084 90.8968 514.41 90.7191 515.113 91.0176C518.697 92.54 523.931 110.969 525.667 115.558C526.07 111.739 525.91 105.082 527.796 101.783C528.349 100.816 528.574 100.797 529.579 100.493C531.262 101.238 531.771 102.355 532.562 103.982C535.954 110.962 538.121 118.799 540.841 126.077C543.915 134.306 547.686 142.034 551.876 149.742C556.316 139.513 565.776 100.935 571.653 95.5561C572.229 95.0287 572.581 95.234 573.296 95.2677L574.031 96.2937C573.829 103.893 569.951 111.886 567.985 119.199C564.507 132.134 561.59 145.227 558.086 158.168L560.85 163.738C570.751 142.732 575.501 119.726 585.397 98.7821C587.056 95.2718 589.826 89.6568 593.611 88.2878C594.55 88.5624 594.469 88.3401 594.924 89.0565C596.545 91.6118 595.864 96.4411 595.49 99.3716C594.803 104.749 593.332 110.187 592.161 115.489C589.817 126.097 587.345 136.717 585.412 147.408C594.943 127.606 599.17 118.535 614.201 101.332C615.885 99.4044 618.292 95.7412 620.481 94.5694C621.197 94.1858 621.395 94.4708 622.086 94.723C624.65 100.904 609.591 130.284 606.204 138.431C603.923 143.917 601.845 149.465 600.43 155.242C611.779 146.606 622.635 135.685 633.568 126.331C653.735 109.076 690.421 82.8933 715.183 74.5269Z"/>
	<path fill="#FEFEFE" transform="scale(0.25 0.25)" d="M699.89 88.4706C703.081 91.1699 709.91 108.825 711.771 113.623Q717.5 128.141 722.077 143.063Q726.654 157.984 730.05 173.218C731.912 181.205 733.252 189.307 735.064 197.307C739.904 218.673 745.915 236.788 744.518 259.175C743.44 276.44 737.968 291.389 731.107 307.018C714.03 345.914 724.959 373.089 741.247 409.443C746.696 421.604 751.367 430.768 752.504 444.282C756.399 490.575 743.977 532.856 733.565 577.385C732.352 582.575 728.388 594.471 730.63 599.258C731.007 600.064 730.96 599.815 731.926 600.159C732.425 599.945 732.483 599.961 732.948 599.53C734.034 598.525 734.73 596.308 735.162 594.943C737.788 586.65 738.895 577.707 740.961 569.248C746.632 546.026 752.984 522.563 756.531 498.904C758.559 485.372 759.158 471.984 759.955 458.356C764.879 479.927 769.154 503.652 768.595 525.868C768.109 545.193 762.245 566.971 757.728 585.85C754.353 599.958 751.082 614.163 746.889 628.053C743.915 637.905 740.147 647.507 737.331 657.411C733.45 671.064 731.717 685.155 728.383 698.92C723.578 718.755 717.119 738.988 716.143 759.484C715.776 767.202 718.954 773.843 719.765 781.339C720.979 792.57 720.556 803.79 722.234 815.037C718.968 809.608 714.824 802.258 709.845 798.249C708.754 797.37 708.239 797.239 706.894 797.468C706.504 797.969 706.392 798.053 706.125 798.707C705.404 800.472 706.215 803.338 707.051 804.922C715.59 821.105 723.843 837.436 730.466 854.514C734.824 865.749 737.843 877.752 742.841 888.693C745.22 893.901 751.868 900.426 752.633 903.269C752.994 904.609 752.812 906.305 751.934 907.423C749.784 910.16 745.012 910.006 741.877 910.034C742.803 907.643 744.938 903.604 743.947 901.085C743.512 899.98 742.97 899.519 741.902 899.132C737.843 901.632 737.336 905.904 734.47 909.147C731.839 912.123 726.325 911.894 722.689 912.033C721.677 910.049 720.918 908.014 718.816 906.992C716.493 907.788 715.085 911.418 712.929 912.984C709.27 915.642 705.764 914.804 701.581 914.263C700.909 912.555 700.38 910.521 698.86 909.401C696.181 910.035 693.149 913.992 690.664 915.695C683.452 920.637 672.928 920.587 664.601 919.011C658.711 917.896 652.125 915.587 648.715 910.337C646.41 906.79 645.896 902.457 646.41 898.33C647.595 888.829 653.544 879.991 656.064 870.707C659.031 859.78 659.044 848.39 661.193 837.353C661.822 834.121 663.354 830.999 664.299 827.829C666.083 821.838 667.691 815.574 668.859 809.432C669.904 803.934 673.832 788.397 670.765 783.85C669.649 783.169 669.72 783.132 668.448 783.39C667.105 784.563 666.386 785.631 665.745 787.306C663.97 791.947 663.517 797.717 662.621 802.629C661.748 807.418 660.608 812.081 659.356 816.783C657.253 808.825 654.581 800.311 655.483 791.998C656.314 784.341 663.162 773.604 665.524 765.259C674.289 734.296 675.288 701.725 670.9 669.975C670.377 665.059 669.23 655.326 667.656 650.765C666.99 648.834 666.01 646.999 664.101 646.107C662.668 647.259 662.744 647.477 662.55 649.303C661.878 655.632 662.541 662.382 662.733 668.735C663.276 686.74 664.939 706.002 662.558 723.896L662.467 724.53Q661.726 715.737 660.38 707.016Q659.033 698.296 657.087 689.689Q655.142 681.082 652.606 672.63Q650.07 664.178 646.956 655.922C636.777 629.663 623.491 604.535 617.229 576.895C612.147 554.459 612.196 530.626 613.196 507.758C613.943 490.694 617.184 473.207 621.237 456.643C625.089 440.905 629.745 425.261 631.696 409.134C636.403 417.035 643.306 424.436 646.6 433.026C649.854 441.51 651.604 451.093 653.393 459.988C661.083 498.218 664.411 537.91 665.441 576.866C665.739 588.146 665.595 599.485 665.454 610.768C665.399 615.215 664.871 619.85 665.101 624.276C665.172 625.654 665.333 626.576 666.014 627.78L667.023 628.058C667.641 627.672 668.162 627.318 668.557 626.685C671.265 622.352 670.621 609.68 670.766 604.1Q671.224 575.619 669.513 547.185Q667.802 518.751 663.931 490.53C661.296 470.648 658.381 450.008 651.606 431.038C646.795 417.567 638.837 407.04 631.226 395.158C619.827 377.364 612.828 358.612 608.97 337.927C611.473 340.727 613.924 344.179 616.946 346.407C618.198 347.33 619.093 347.706 620.63 347.487L621.463 346.358C621.63 343.307 609.895 329.954 607.975 325.975C605.412 320.661 602.263 307.435 601.525 301.3C599.059 280.813 604.292 260.799 607.171 240.728C608.857 228.975 609.466 217.402 609.645 205.547C609.69 202.578 610.349 198.048 609.198 195.35C608.528 193.781 607.722 193.255 606.175 192.674L605.064 193.596C603.449 198.083 604.602 204.745 604.549 209.488C604.313 230.371 599.05 250.57 596.672 271.163C595.591 280.522 595.558 289.826 595.905 299.221C580.355 276.318 569.469 251.054 558.004 225.981C571.171 207.735 583.062 188.711 597.8 171.621C611.81 155.375 627.907 141.452 643.215 126.528C645.579 140.383 648.488 154.144 650.935 167.985C652.01 174.065 652.139 180.672 653.754 186.596C654.174 188.139 654.628 189.376 656.098 190.188C657.472 189.986 657.692 189.679 658.77 188.767C660.51 183.586 649.429 133.557 648.39 123.167L648.322 122.452C665.027 110.136 681.234 97.7743 699.89 88.4706Z"/>
	<path transform="scale(0.25 0.25)" d="M722.988 401.197C723.843 401.686 724.443 402.288 725.137 402.981C726.3 406.407 722.942 414.941 722.044 418.544Q719.65 428.181 718.302 438.018Q716.954 447.856 716.667 457.781C716.08 472.919 717.194 487.931 718.166 503.026Q719.736 526.667 720.557 550.346C721.78 594.359 718.504 639.222 713.639 682.936C711.89 698.647 709.824 714.339 707.819 730.02C706.708 738.708 706.166 750.131 703.27 758.263C702.848 759.448 702.035 760.179 701.077 760.945C700.734 760.675 700.607 760.591 700.281 760.249C697.585 757.422 701.684 734.72 702.42 729.148C709.982 671.932 716.09 614.601 715.407 556.783C714.993 521.73 709.559 486.4 711.693 451.393C712.3 441.43 716.573 406.882 722.988 401.197Z"/>
	<path transform="scale(0.25 0.25)" d="M654.556 209.373L657.314 209.442C658.311 210.017 658.646 210.255 659.213 211.309C661.067 214.76 661.688 228.174 661.949 232.518Q662.291 237.967 662.373 243.426Q662.456 248.885 662.278 254.342Q662.101 259.798 661.664 265.24Q661.227 270.682 660.531 276.098Q659.836 281.513 658.883 286.889Q657.931 292.264 656.724 297.589Q655.516 302.913 654.057 308.174Q652.598 313.435 650.89 318.621C647.191 329.866 642.456 340.662 639.107 352.033C637.8 352.577 637.184 352.471 635.94 352.026C632.553 347.623 640.517 331.159 642.508 325.937C654.076 295.601 657.437 265.91 656.559 233.667C656.343 225.771 654.222 217.73 654.527 209.912C654.534 209.732 654.546 209.553 654.556 209.373Z"/>
	<path transform="scale(0.25 0.25)" d="M670.282 203.857L673.115 204.248C674.093 205.051 674.195 205.055 674.491 206.272C676.474 214.413 676.585 222.73 678.951 230.918C683.875 247.954 690.753 264.199 697.111 280.716Q706.436 304.515 714.031 328.921C714.932 331.73 716.142 334.158 714.696 336.977C712.998 336.764 712.386 336.789 710.971 335.765C706.781 326.325 704.298 315.714 700.694 305.97C693.52 286.572 664.892 219.995 670.282 203.857Z"/>
	<path transform="scale(0.25 0.25)" d="M639.864 506.144C640.324 506.187 641.106 506.238 641.528 506.381C642.122 506.582 642.877 507.03 643.139 507.628C644.117 509.861 639.435 546.493 638.952 552.861C638.331 561.054 636.858 605.85 635.421 609.22C634.754 609.185 633.864 609.218 633.234 609.02C632.548 608.804 632.117 608.579 631.87 607.9C630.592 604.385 631.291 598.958 631.309 595.167C631.399 576.752 633.911 521.197 639.864 506.144Z"/>
	<path transform="scale(0.25 0.25)" d="M664.059 419.3C665.101 419.279 666.018 419.174 667.006 419.56C668.122 419.995 668.701 422.069 669.061 423.14C676.556 445.427 680.91 469.055 684.619 492.228C685.308 496.535 686.803 502.15 686.383 506.437C686.293 507.365 685.882 508.161 685.477 508.984C685.194 508.955 684.909 508.946 684.629 508.899C683.524 508.711 682.681 508.583 682.092 507.544C679.593 503.135 676.523 477.836 675.223 471.071Q672.38 456.489 668.816 442.067C667.444 436.706 662.656 424.014 664.059 419.3Z"/>
	<path transform="scale(0.25 0.25)" d="M650.439 350.84C652.06 350.896 653.993 351.063 655.195 352.275C656.34 353.431 656.547 355.501 656.608 357.059C656.88 363.982 656.198 371.615 658.634 378.238C660.45 383.175 668.604 392.989 668.072 397.416C667.892 398.913 666.453 399.842 665.368 400.723C664.504 400.496 663.62 400.221 662.834 399.786C656.039 396.021 651.335 386.241 649.288 379.095C646.773 370.312 645.906 359.077 650.439 350.84Z"/>
	<path transform="scale(0.25 0.25)" d="M702.139 346.459C703.428 346.327 705.022 346.068 706.235 346.616C708.559 347.666 709.782 350.867 710.333 353.162C713.338 365.688 711.653 384.478 705.108 395.716C703.757 396.629 702.966 397.019 701.331 397.162C700.223 396.732 699.727 396.558 699.245 395.338C697.837 391.774 702.732 373.304 702.771 367.588C702.815 360.975 700.135 352.798 702.139 346.459Z"/>
	<path transform="scale(0.25 0.25)" d="M699.257 408.784C700.12 409.231 700.399 409.534 701.024 410.247C701.642 412.235 701.515 413.77 701.021 415.788C700.046 419.767 697.867 424.135 694.343 426.35C693.951 426.186 693.301 425.931 692.959 425.71C691.924 425.044 691.567 424.261 691.535 423.054C691.42 418.758 696.342 411.727 699.257 408.784Z"/>
	<path transform="scale(0.25 0.25)" d="M606.303 889.094C607.275 889.317 607.886 889.453 608.655 890.105L608.336 891.27C607.381 892.307 606.394 892.832 605.125 893.435C598.407 896.626 591.163 898.816 584.302 901.691C565.631 909.515 546.741 917.076 527.898 924.493C526.698 924.148 526.239 923.792 525.388 922.885C525.314 922.046 525.409 921.644 525.981 920.957C529.09 917.228 598.076 890.411 606.303 889.094Z"/>
	<path transform="scale(0.25 0.25)" d="M624.298 919.488L625.252 919.504C626.318 920.218 626.406 920.287 626.885 921.473L626.41 922.494C621.453 926.318 613.24 928.375 607.375 930.634C588.96 937.728 570.367 944.278 551.831 951.041C550.696 951.123 549.823 950.776 548.754 950.439C548.434 949.317 548.353 949.771 548.818 948.782C550.006 946.258 555.06 944.139 557.6 943.267C579.944 935.592 601.807 926.745 624.298 919.488Z"/>
	<path transform="scale(0.25 0.25)" d="M628.243 858.537C629.399 858.395 630.228 858.454 631.368 858.685C632.225 859.607 632.351 859.38 632.343 860.729C631.457 861.87 630.553 862.341 629.262 862.904C623.309 865.502 616.529 866.98 610.336 869.07Q585.085 877.69 559.618 885.652C558.474 886.053 557.399 885.961 556.209 885.924C555.885 885.455 555.55 884.994 555.24 884.516C555.071 884.255 555.408 883.908 555.57 883.642C558.845 878.279 619.011 861.093 628.243 858.537Z"/>
	<path transform="scale(0.25 0.25)" d="M468.568 885.503L470.028 885.497L470.238 886.095L471.198 886.155L470.91 886.804L470.668 885.677C470.844 886.46 470.99 886.841 470.787 887.635C465.058 893.457 421.517 909.123 411.748 911.992L410.549 911.73C409.537 910.511 409.542 910.58 409.603 909.001C409.931 908.529 410.178 907.989 410.588 907.585C413.534 904.681 462.222 887.708 468.568 885.503Z"/>
	<path transform="scale(0.25 0.25)" d="M540.193 876.941C540.76 877.014 541.207 877.285 541.72 877.527C542.389 878.63 542.471 878.607 542.259 879.863C539.367 883.273 493.465 901.283 485.86 904.459C484.902 904.448 484.627 904.349 483.783 903.975C483.317 902.987 483.181 902.493 483.281 901.401C487.972 895.975 530.902 880.202 540.193 876.941Z"/>
	<path transform="scale(0.25 0.25)" d="M439.861 822.621C440.84 822.463 441.957 822.367 442.945 822.441C444.307 822.543 444.817 822.835 445.682 823.845C445.64 824.258 445.67 824.303 445.42 824.731C444.568 826.188 442.451 827.043 440.925 827.554C436.52 829.031 431.277 829.575 426.697 830.716Q410.232 834.774 394.047 839.838C393.307 840.028 392.26 840.397 391.505 840.359C390.11 840.289 389.709 839.697 388.797 838.781C388.566 837.48 388.616 837.458 389.238 836.281C397.053 831.013 429.306 824.752 439.861 822.621Z"/>
	<path transform="scale(0.25 0.25)" d="M448.058 860.538C448.885 860.726 449.617 861.371 450.318 861.844L450.346 862.796C449.429 864.111 448.343 864.752 446.938 865.464C441.608 868.168 435.58 869.833 429.996 871.972C419.547 875.973 408.912 880.678 398.138 883.673C397.986 883.629 397.827 883.603 397.681 883.541C396.522 883.044 395.98 882.542 395.503 881.41C395.691 880.925 395.76 880.701 396.033 880.222C398.64 875.645 440.519 862.832 448.058 860.538Z"/>
	<path transform="scale(0.25 0.25)" d="M512.06 852.58C513.097 852.946 513.383 853.209 514.164 853.939C514.27 854.506 514.52 854.921 514.156 855.435C512.298 858.051 468.404 872.252 462.291 873.932C461.675 873.759 461.045 873.276 460.493 872.946C460.041 871.871 460.024 871.93 460.418 870.836C465.77 866.001 503.434 854.658 512.06 852.58Z"/>
	<path transform="scale(0.25 0.25)" d="M423.51 923.516C423.718 923.498 423.926 923.471 424.134 923.46C425.601 923.383 426.628 923.467 427.725 924.469L427.353 925.54C421.042 930.923 389.839 942.234 380.541 945.485C379.27 945.54 378.033 945.577 376.918 944.877C376.184 944.416 376.438 944.535 376.282 943.522C379.679 938.059 416.313 926.134 423.51 923.516Z"/>
	<path transform="scale(0.25 0.25)" d="M491.66 831.578C492.846 831.44 493.803 831.477 494.984 831.643C495.915 832.65 496.008 832.661 496.123 834.012C495.289 835.358 494.277 835.889 492.858 836.491C489.029 838.116 484.875 838.731 480.883 839.822C470.992 842.525 460.91 845.135 451.13 848.209C450.789 848.299 450.334 848.438 449.985 848.434C448.712 848.421 448.264 847.874 447.354 847.099C446.925 845.767 446.941 845.795 447.477 844.499C451.635 841.372 484.327 833.553 491.66 831.578Z"/>
	<path transform="scale(0.25 0.25)" d="M495.124 918.092C495.53 918.13 496.094 918.387 496.486 918.519C497.15 919.574 497.245 919.585 497.097 920.805C494.138 924.479 460.093 935.527 453.121 937.996C451.869 937.934 451.795 937.79 450.801 936.997C450.336 935.666 450.271 935.605 450.695 934.274C454.705 930.286 488.932 919.176 495.124 918.092Z"/>
	<path transform="scale(0.25 0.25)" d="M632.799 836.679C634.507 836.495 635.153 836.465 636.67 837.275C637.411 838.519 637.326 838.475 637.024 839.907C634.576 842.264 599.814 847.116 593.34 848.601C592.572 848.785 591.803 848.979 591.028 849.131C589.77 849.379 589.419 849.543 588.328 848.809C587.749 847.5 587.462 847.28 587.802 845.914C591.915 841.8 625.149 837.78 632.799 836.679Z"/>
	<path transform="scale(0.25 0.25)" d="M736.15 927.552C737.81 927.307 739.917 927.357 741.457 928.072L741.634 928.828C739.413 933.258 705.87 942.485 699.307 944.859C698.73 945.031 697.874 945.362 697.251 945.404C695.858 945.498 695.52 945.127 694.442 944.352C694.246 943.698 693.993 943.457 694.356 942.799C696.601 938.722 729.673 929.318 736.15 927.552Z"/>
	<path transform="scale(0.25 0.25)" d="M433.175 845.104C434.668 845.39 434.785 845.444 435.86 846.516L435.789 847.602C432.298 851.355 396.673 860.823 390.117 862.484C388.533 862.416 388.408 862.519 387.228 861.496C387.161 860.88 386.974 860.512 387.348 859.96C390.171 855.795 426.099 846.447 433.175 845.104Z"/>
	<path transform="scale(0.25 0.25)" d="M799.035 917.496C799.246 917.461 799.456 917.415 799.669 917.39C801.213 917.206 802.141 917.497 803.371 918.414L803.495 919.303C802.954 920.318 802.511 920.879 801.519 921.494C796.821 924.405 790.799 925.917 785.594 927.707Q774.056 931.571 762.649 935.807C761.931 935.954 761.551 935.838 760.846 935.689C759.777 934.623 759.342 934.522 759.248 932.972C759.926 931.982 760.629 931.421 761.689 930.892C765.693 928.897 770.419 927.604 774.645 926.115L799.035 917.496Z"/>
	<path transform="scale(0.25 0.25)" d="M569.014 849.644C569.379 849.712 570.196 850.178 570.545 850.344C570.857 851.228 570.908 851.404 570.388 852.218C569.675 853.336 567.98 854.189 566.776 854.659C563.181 856.064 558.905 856.75 555.15 857.833C545.924 860.494 536.724 863.314 527.405 865.637C526.828 865.239 526.34 864.767 525.821 864.297C525.623 863.27 525.373 862.732 526.152 861.85C529.604 857.941 562.893 850.691 569.014 849.644Z"/>
	<path transform="scale(0.25 0.25)" d="M784.517 830.086C786.133 829.863 787.02 829.805 788.432 830.623C789.128 831.859 789.289 831.821 788.935 833.169C785.208 836.636 756.885 842.867 749.701 844.71C748.183 844.965 747.214 845.048 745.706 844.758C744.681 843.79 744.655 843.723 744.392 842.336C746.98 839.332 778.515 831.696 784.517 830.086Z"/>
	<path transform="scale(0.25 0.25)" d="M795.232 848.04C796.813 847.91 797.342 848.043 798.545 849.003C798.792 850.213 798.957 850.624 798.058 851.657C796.453 853.501 762.519 862.277 759.174 862.866C758.702 862.894 758.513 862.928 758.004 862.833C756.774 862.603 756.142 862.081 755.429 861.12L755.704 860.226C758.519 856.844 788.798 849.885 795.232 848.04Z"/>
	<path transform="scale(0.25 0.25)" d="M256.442 858.535C258.183 858.369 259.447 858.274 260.837 859.402L260.743 860.428C257.679 864.589 234.354 874.145 228.49 876.869C227.738 877.091 227.225 877.188 226.427 877.17C225.457 877.148 225.491 876.888 224.846 876.242C224.691 875.524 224.44 875.141 224.794 874.441C227.108 869.865 250.999 860.256 256.442 858.535Z"/>
	<path transform="scale(0.25 0.25)" d="M267.9 834.474C269.456 834.422 270.784 834.625 272.216 835.266L272.403 836.125C270.094 841.182 247.503 849.886 241.17 852.779C239.931 853.086 239.143 853.56 237.942 853.03C237.296 851.616 237.26 851.523 237.55 850C240.694 845.769 261.983 836.859 267.9 834.474Z"/>
	<path transform="scale(0.25 0.25)" d="M330.127 932.064C330.536 932.025 331.104 931.956 331.502 931.99C332.812 932.102 333.03 932.362 333.847 933.284L333.744 934.327C330.377 938.163 305.649 945.599 299.355 947.701C298.962 947.751 298.372 947.848 297.988 947.796C296.774 947.63 296.385 947.068 295.631 946.217L295.744 945.223C299.367 940.653 323.435 933.902 330.127 932.064Z"/>
	<path transform="scale(0.25 0.25)" d="M798.197 870.545C799.51 870.941 800.139 871.569 800.843 872.648L800.448 873.956C795.83 878.228 776.252 883.606 769.186 885.919C768.219 885.489 767.613 884.842 766.862 884.112C766.437 882.797 766.366 882.805 766.889 881.54C772.042 878.213 791.312 872.724 798.197 870.545Z"/>
	<path transform="scale(0.25 0.25)" d="M250.294 886.525C252.071 886.431 253.753 886.357 255.191 887.504L255.088 888.439C252.279 893.062 232.405 900.367 226.653 902.693C225.394 902.826 223.788 902.889 222.746 902.097L222.609 901.081C225.315 895.617 244.038 889.148 250.294 886.525Z"/>
	<path transform="scale(0.25 0.25)" d="M248.107 912.564C248.994 912.812 249.755 913.466 250.515 913.98C250.97 914.96 250.967 914.997 250.743 916.055C247.911 919.521 230.74 925.478 225.766 927.583C224.686 927.33 223.861 926.665 222.938 926.068C222.738 925.451 222.457 925.151 222.768 924.525C224.769 920.504 243.668 913.722 248.107 912.564Z"/>
	<path transform="scale(0.25 0.25)" d="M274.717 928.498C274.785 928.511 274.858 928.51 274.921 928.539C276.333 929.188 276.414 929.334 276.991 930.714C275.068 934.463 259.95 939.323 255.641 940.951L254.05 940.182C253.263 939.07 253.037 939.054 253.206 937.727C256.944 932.944 269.057 930.378 274.717 928.498Z"/>
	<path transform="scale(0.25 0.25)" d="M798.165 897.96C798.406 897.952 798.648 897.912 798.888 897.936C800.416 898.089 800.698 898.917 801.544 900.032L801.194 900.98C796.815 904.82 785.696 907.81 779.935 909.457L778.23 909.265C777.131 908.351 776.915 908.429 776.777 907.033C779.34 903.528 793.799 899.524 798.165 897.96Z"/>
</svg>
