<?xml version="1.0" encoding="utf-8" ?>
<svg xmlns="http://www.w3.org/2000/svg" xmlns:xlink="http://www.w3.org/1999/xlink" width="256" height="256">
	<path fill="#FEFEFE" transform="scale(0.25 0.25)" d="M0 0L1024 0L1024 1024L0 1024L0 0Z"/>
	<path transform="scale(0.25 0.25)" d="M198.377 403.855C199.092 403.828 199.797 403.798 200.512 403.835C203.817 404.006 206.091 405.865 208.41 408.05C214.7 413.977 219.628 421.801 224.701 428.781C232.324 439.27 239.94 449.669 248.562 459.371C258.907 471.013 273.056 481.069 287.362 487.212C308.406 496.247 338.692 499.969 361.523 497.986C365.633 497.629 370.088 497.288 374.089 496.345C378.462 495.314 382.549 492.027 387.149 492.291C388.284 493.028 388.144 493.063 388.433 494.407C388.11 495.859 387.614 496.723 386.455 497.649C374.086 507.541 341.348 505.101 325.999 503.471C290.811 499.732 257.469 487.689 234.788 459.179C228.149 450.834 223.546 440.598 216.983 432.638C216.869 432.499 216.75 432.363 216.633 432.225C226.998 469.709 225.515 509.99 216.567 547.604Q227.624 564.547 239.652 580.815C243.928 586.702 256.491 600.991 258.454 606.586C258.271 608.022 258.165 608.1 257.184 609.182C257.025 609.179 256.865 609.198 256.708 609.173C252.33 608.478 237.437 588.636 233.629 584.154C238.949 597.416 243.075 611.253 247.703 624.777C250.428 632.74 255.864 644.461 256.567 652.539C256.986 657.365 256.294 662.28 255.878 667.09C254.621 681.647 251.602 699.337 255.856 713.528C257.777 719.938 261.456 725.98 265.666 731.14C268.928 735.137 281.518 745.283 282.06 749.366C281.546 750.631 281.628 750.649 280.412 751.238C273.987 749.929 262.869 736.847 258.055 731.912C254.795 741.618 251.18 751.321 248.439 761.184C245.566 771.526 243.511 782.145 240.332 792.393C239.888 793.824 239.615 795.102 238.313 796.022C236.852 797.055 235.182 797.544 233.415 797.006Q233.19 796.939 232.973 796.849Q232.756 796.759 232.55 796.646Q232.344 796.534 232.151 796.4Q231.959 796.266 231.781 796.112Q231.603 795.958 231.443 795.787Q231.283 795.615 231.142 795.427Q231.001 795.24 230.881 795.038Q230.76 794.836 230.662 794.623C227.314 787.169 245.648 735.179 249.38 725.117C240.023 707.981 244.027 686.339 245.672 667.851C246.118 662.85 246.903 657.539 246.408 652.519C245.762 645.979 242.011 638.513 239.772 632.253Q235.475 620.105 231.414 607.876C227.294 595.454 224.263 582.357 219.503 570.191C218.487 567.594 216.499 565.091 214.929 562.788C211.1 576.844 206.552 591.177 200.346 604.37C193.787 618.309 183.894 630.2 181.17 645.709C177.471 666.767 186.351 697.094 190.241 718.375C192.59 731.224 194.267 744.437 194.505 757.508C194.812 774.311 190.977 790.949 188.668 807.508C186.033 826.407 184.308 845.381 182.548 864.376C182.302 872.431 181.79 880.478 181.608 888.537C181.523 892.291 182.026 896.301 181.656 900.006C181.501 901.555 180.907 903.178 179.888 904.366C178.92 905.493 177.518 906.339 175.99 906.301C174.659 906.269 173.623 905.569 172.784 904.592C170.804 902.289 171.073 897.999 171.047 895.128C170.805 867.951 173.566 840.389 177.341 813.491C179.981 794.674 184.409 771.9 184.021 753.222C183.291 718.056 167.637 677.078 172.645 643.487C165.46 656.682 156.77 672.327 155.143 687.434C153.343 704.147 161.118 721.118 163.698 737.493C168.655 768.963 167.201 800.652 166.865 832.35C166.81 837.532 167.628 849.804 166.391 854.166C166.02 855.476 165.8 855.559 164.673 856.1L163.879 855.725C162.754 853.335 163.085 840.362 162.984 836.923C161.955 801.905 162.889 766.443 155.276 732.019C153.575 724.327 150.493 717.228 147.499 709.978C141.58 695.641 134.867 681.724 128.476 667.6C125.779 661.64 121.235 654.014 120.478 647.53C120.339 646.341 120.344 645.845 121.104 644.874L122.285 645.192C130.249 652.27 146.115 687.406 151.021 698.3C150.893 697.427 150.784 696.571 150.708 695.692C149.156 677.661 155.36 661.923 163.452 646.241C166.606 640.129 169.471 634.58 173.951 629.301C169.85 631.622 151.761 647.196 147.994 651.044C145.615 653.474 143.66 658.095 141.014 659.624C139.732 659.45 139.332 659.139 138.409 658.248C137.643 655.789 139.63 654.635 139.661 652.549C139.689 650.582 136.992 644.104 136.514 641.247C134.215 627.495 133.683 610.422 136.436 596.695C136.772 595.022 136.883 593.445 138.055 592.122L138.846 592.183C140.255 594.346 139.45 601.791 139.462 604.592C139.517 617.733 140.58 630.544 141.832 643.612C143.868 629.304 142.617 614.479 147.046 600.529C148.174 608.905 148.07 618.21 148.047 626.672C148.037 630.637 146.992 639.583 148.033 642.884L148.818 642.973C153.986 637.601 151.892 618.765 156.12 611.19L156.771 611.112C158.328 616.67 156.583 630.47 156.401 636.953C158.296 635.487 160.352 634.005 161.59 631.905C165.828 624.714 163.553 607.007 166.762 598.602L167.381 598.759C170.322 606.564 168.706 617.347 168.458 625.525L168.828 625.235C180.726 616.06 174.014 596.651 179.049 591.34L178.142 591.533L179.053 591.307L178.959 591.074C181.898 598.254 180.646 607.884 179.656 615.337C182.119 611.969 185.39 608.257 186.772 604.296C186.342 603.709 185.757 603.014 185.483 602.343C184.638 600.274 188.045 586.573 188.915 583.656C190.467 590.669 189.53 597.017 187.565 603.821C197.386 587.762 193.577 580.754 197.515 563.893C198.347 569.809 198.044 575.998 198.114 581.968C200.25 573.334 202.866 564.801 204.803 556.123C214.434 512.977 218.903 465.488 205.667 422.58C203.687 416.162 201.038 410.013 198.377 403.855Z"/>
	<path transform="scale(0.25 0.25)" d="M299.37 114.481C300.033 114.623 300.698 114.766 301.347 114.962C302.52 115.317 303.366 115.976 303.849 117.131C304.658 119.065 303.991 121.682 303.416 123.584C301.743 129.121 297.446 138.653 292.77 142.24C287.499 146.283 277.845 148.604 271.538 151.281Q258.567 156.826 246.036 163.305C234.894 169.198 224.571 176.221 214.051 183.125C207.157 187.65 200.156 192.652 192.499 195.798C185.218 198.788 177.203 200.018 169.559 201.781C157.298 204.609 145.599 208.718 134.432 214.561C106.761 229.04 91.6192 252.952 82.6079 282.02C79.2228 292.94 77.2939 304.388 76.2845 315.77C74.1354 340.004 75.4686 384.719 86.7691 406.346C84.8723 394.741 82.151 377.79 84.957 366.449L85.4412 366.188C86.4908 368.025 85.9455 377.81 86.0447 380.394C86.4706 391.488 87.1779 407.001 90.9986 417.369C92.5412 421.555 94.8778 425.488 97.0816 429.355C99.0123 432.743 100.957 436.518 103.846 439.184L104.525 438.85C105.603 435.945 101.429 403.988 101.01 398.315C98.9145 369.949 99.4427 339.515 106.778 311.859C107.375 309.606 107.883 307.339 109.993 306.108L111.08 306.616C111.698 307.876 111.571 308.412 111.439 309.83C111.055 313.962 109.932 318.037 109.261 322.132Q107.491 333.434 106.768 344.85C105.452 365.722 106.233 386.414 107.829 407.232C108.326 413.72 108.522 420.821 109.614 427.197C109.887 428.795 110.416 429.664 111.715 430.594L112.87 430.354C116.276 426.87 111.211 406.911 114.242 400.457L115.129 400.14L115.716 400.755C116.164 409.079 117.417 417.527 117.119 425.852C119.658 423.923 121.716 422 123.836 419.623C123.749 411.132 124.411 402.332 126.005 393.984C127.087 401.722 126.371 409.829 126.033 417.607C134.011 411.588 141.641 405.32 147.718 397.321C153.188 390.119 157.772 382.059 161.781 373.958C163.571 370.342 164.903 366.346 166.989 362.9C167.738 361.663 168.383 360.881 169.602 360.107L170.433 360.382C170.475 360.616 170.553 360.846 170.557 361.083C170.647 365.65 167.158 372.226 165.341 376.466C160.421 387.946 154.404 399.609 145.958 408.911C132.032 424.246 116.215 432.728 105.654 452.083C101.721 459.29 98.9433 466.956 96.5042 474.771C94.7628 480.351 89.3323 505.454 87.2081 508.13L86.2651 508.098C86.138 507.814 85.961 507.547 85.8839 507.245C84.5423 501.999 92.3 468.489 94.3704 461.963C96.0266 456.742 98.0947 451.871 100.603 447.005C91.8276 436.379 83.9957 421.76 77.56 409.485C78.4871 412.867 79.4753 416.461 79.811 419.956C79.9707 421.618 79.8969 422.634 78.8593 423.951C75.5574 423.054 75.8135 413.356 72.5473 411.173L71.8516 411.745C69.4344 417.579 67.7793 423.876 65.9975 429.929C59.4205 452.271 54.4514 475.03 55.6872 498.468C56.15 507.244 58.2556 515.639 59.0955 524.326C59.4995 528.504 59.4153 532.718 59.8644 536.893C61.5208 552.292 63.8659 567.6 65.2711 583.046C66.2428 593.727 66.5522 604.5 66.9167 615.216C66.9272 623.15 66.7646 631.009 65.4253 638.853C59.6021 672.961 47.0399 689.358 55.6208 726.377Q55.4674 721.297 55.4776 716.215C55.4971 713.858 55.1126 706.769 56.7507 705.149C58.46 707.008 57.3744 722.9 57.3621 726.275C57.282 748.22 62.3915 771.407 69.5016 792.119C68.0247 778.126 68.8439 744.452 73.4846 731.312C74.535 732.88 72.8293 783.115 72.9036 789.877C72.9324 792.501 72.0225 793.664 71.4288 796.058C70.6502 799.198 77.2338 817.633 78.8585 821.077C75.7704 803.322 76.6258 772.198 81.8296 754.581L82.1234 754.558C81.4723 766.293 80.7546 778.066 80.77 789.824C80.7802 797.597 81.3934 805.363 81.3926 813.139C81.3922 817.716 80.0558 824.279 81.3077 828.538C82.8126 833.657 84.5795 838.818 85.9721 843.943C87.0295 847.834 87.7343 851.804 88.8519 855.684C91.1646 863.714 93.9109 871.735 95.7476 879.884C97.0048 885.462 97.7197 891.276 98.6391 896.924C99.3488 901.284 100.528 906.227 100.161 910.625C99.9994 912.558 99.4479 914.278 97.759 915.434C96.7921 916.096 95.6633 916.276 94.5391 915.941C93.0616 915.502 91.7872 914.236 91.1443 912.859C88.6681 907.554 88.7152 898.219 87.6756 892.235C86.5112 885.533 84.847 878.927 83.0982 872.359Q76.5064 847.422 68.5685 822.881C66.2256 815.658 63.2567 808.656 60.9072 801.441C49.8036 767.343 40.4259 729.604 42.6663 693.46C43.9145 673.323 49.965 660.976 54.0561 642.315C57.2534 627.731 57.0899 613.556 56.6412 598.765C55.8614 573.057 51.2112 547.713 48.3606 522.187C46.5876 506.31 45.1604 490.938 46.7327 474.968C48.6129 455.871 52.8053 437.569 58.4211 419.243C61.8441 408.073 67.1096 396.128 68.4196 384.535C69.4207 375.676 66.2083 365.678 65.6742 356.702C63.9971 328.52 66.2092 297.735 75.3285 270.8C88.2036 232.772 116.136 206.679 154.432 195.147C166.658 191.465 179.956 190.094 191.588 184.724C199.072 181.269 205.871 176.087 212.717 171.529Q223.461 164.353 234.785 158.132C241.182 154.596 247.573 150.989 254.243 147.986C264.099 143.549 274.591 139.752 284.05 134.535C292.168 130.057 291.813 118.215 299.37 114.481Z"/>
	<path transform="scale(0.25 0.25)" d="M749.208 401.391C750.303 401.374 751.454 401.317 752.542 401.434C754.693 401.664 756.97 403.763 758.644 405.103C775.798 418.832 786.076 438.106 800.463 454.411C809.778 464.967 821.657 474.994 834.046 481.808C857.912 494.933 889.839 500.339 916.916 498.654Q924.322 498.171 931.556 496.516C935.529 495.633 940.665 493.349 944.656 493.601C945.788 494.367 945.663 494.448 945.978 495.803C945.665 496.937 945.287 497.565 944.342 498.297C941.776 500.284 938.126 501.263 935.038 502.144C917.164 507.246 897.385 506.359 879.14 503.555C842.529 497.928 813.629 484.842 789.186 456.427C783.721 450.074 778.928 443.109 773.969 436.359C780.617 467.914 782.634 518.74 775.122 549.944C777.728 555.095 781.448 559.886 784.735 564.635C792.833 576.34 801.487 587.709 809.4 599.531C810.821 601.655 812.623 603.871 812.101 606.558C811.451 607.073 811.4 607.361 810.499 607.267C806.068 606.803 798.984 595.69 796.063 592.001C797.826 599.671 799.535 607.392 801.647 614.973C804.953 626.848 811.035 644.193 811.346 656.236C811.622 666.893 808.772 680.121 808.207 691.221C806.72 720.423 821.297 732.815 839.445 752.96C830.38 749.023 819.522 739.995 812.295 733.195Q805.613 752.097 800.771 771.552C799.541 776.648 798.738 781.815 797.573 786.923C796.915 789.809 796.362 793.403 793.407 794.911C792.17 795.542 791.119 795.79 789.777 795.341C788.846 795.03 788.092 794.205 787.699 793.314C783.833 784.556 799.958 736.871 803.941 725.494C802.647 721.61 801.04 717.946 800.027 713.951C796.57 700.309 798.239 685.769 799.673 671.941C800.206 666.793 801.496 661.457 801.338 656.28C801.223 652.556 799.987 649.16 798.879 645.649Q792.32 624.56 787.561 602.994C785.866 595.357 784.668 585.149 782.005 577.962C779.976 572.485 774.434 567.276 771.2 562.307C767.446 576.427 763.462 590.45 757.818 603.95C751.609 618.8 739.993 635.377 737.839 651.132C735.079 671.315 741.23 693.32 745.077 713.004Q747.251 724.749 748.788 736.595C751.189 755.6 749.793 773.986 747.213 792.881Q741.303 828.579 739.52 864.718C739.124 872.462 738.755 880.24 738.618 887.993C738.56 891.288 738.906 894.722 738.644 897.992C738.46 900.292 737.946 902.832 736.478 904.685C735.461 905.968 734.478 906.261 732.909 906.391C732.002 905.997 731.557 905.703 730.915 904.916C728.156 901.532 728.914 894.479 728.95 890.364Q729.06 857.054 732.728 823.946C733.727 815.093 735.285 806.315 736.405 797.477C738.5 780.946 740.012 763.672 739.944 747.007C739.86 726.306 733.999 708.088 730.633 688.002C728.338 674.302 728.279 660.64 729.135 646.818C722.574 659.504 715.201 672.416 713.719 686.869C711.62 707.336 719.605 725.621 722.143 745.54Q723.324 755.095 723.586 764.72C723.974 777.266 724.681 854.409 722.382 859.572C718.229 852.423 719.576 810.551 719.436 800.749Q719.132 786.056 718.543 771.372Q717.838 757.473 715.283 743.792C712.683 730.382 708.148 716.72 702.464 704.284C696.811 691.917 677.526 656.704 676.028 644.715C675.846 643.253 675.814 641.971 676.788 640.771C678.06 640.422 678.247 640.434 679.517 640.798C682.95 645.295 684.296 652.451 686.802 657.694C693.007 670.682 700.259 683.134 706.281 696.216C706.832 670.583 714.246 660.222 725.301 638.243C722.123 640.114 719.545 643.067 716.268 644.687C714.688 645.467 713.552 645.747 711.838 645.179C711.1 644.509 710.622 644.024 710.226 643.084C708.911 639.958 709.433 611.906 710.831 608.834L711.525 608.819C714.55 614.338 714.992 635.045 714.554 641.869C721.05 627.972 721.746 613.787 722.205 598.676C727.393 610.953 724.94 622.373 723.613 635.123C731.962 622.53 732.397 602.919 735.644 588.234C736.682 599.571 736.002 611.705 733.859 622.846C739.765 614.042 743.932 603.236 745.147 592.685C745.717 587.725 745.759 582.725 746.62 577.798L746.744 577.111C748.065 584.607 748.034 591.844 746.934 599.359C752.965 589.441 750.323 583.697 752.519 573.771L752.983 573.527C754.155 575.353 753.574 581.938 753.622 584.394C756.264 576.641 755.999 569.172 757.101 561.179C757.617 564.937 758.217 568.634 758.995 572.346C761.659 565.345 762.966 557.512 764.447 550.186Q765.827 543.592 766.901 536.941Q767.974 530.29 768.739 523.597Q769.504 516.904 769.958 510.182Q770.412 503.461 770.555 496.725Q770.697 489.99 770.528 483.255Q770.359 476.52 769.878 469.801Q769.397 463.081 768.606 456.391Q767.815 449.701 766.715 443.054C765.734 436.798 765.001 430.27 763.036 424.239C759.618 413.743 749.966 408.465 748.453 403.552C748.193 402.706 748.815 402.118 749.208 401.391Z"/>
	<path transform="scale(0.25 0.25)" d="M855.69 115.982C857.131 116.035 858.556 116.077 859.75 117.022C860.824 117.872 861.323 119.104 861.369 120.44C861.59 126.951 854.668 137.758 849.627 141.688C842.223 147.459 829.521 150.603 820.653 154.353C813.536 157.363 806.657 160.923 799.829 164.531C787.19 171.209 775.258 179.149 763.248 186.88C757.292 190.714 751.094 195.418 744.637 198.275C738.105 201.165 730.305 201.663 723.356 203.245C701.959 208.114 680.355 218.21 665.283 234.521C653.232 247.564 645.718 264.41 640.941 281.314C631.305 315.416 631.622 345.728 638.894 380.187C640.222 386.481 648.503 421.956 648.081 426.724C647.999 427.657 647.872 427.925 647.127 428.435C645.556 429.507 643.586 429.518 641.786 429.224C636.526 425.737 633.971 412.825 632.333 406.826C627.056 425.303 618.804 443.35 615.845 462.381C611.49 490.394 616.236 515.686 619.255 543.354C620.955 558.936 621.541 574.635 622.315 590.283C622.979 603.695 624.044 617.239 623.286 630.665C622.1 651.66 614.379 665.682 610.761 684.952C608.747 695.681 609.214 706.255 609.932 717.068C610.996 713.588 611.636 709.909 612.404 706.35L613.199 706.308C614.934 708.996 613.274 733.047 613.532 738.543C613.745 743.064 614.517 747.252 615.635 751.631C615.6 743.199 617.202 734.333 618.423 725.977C618.64 724.488 618.566 722.786 619.803 721.871L620.742 722.183C623.627 727.78 618.566 755.502 618.888 763.666C619.102 769.087 620.81 774.333 622.253 779.524C622.58 769.917 624.125 751.21 629.605 743.197L630.194 743.331C631.265 748.074 629.835 753.716 629.224 758.514C627.905 768.87 625.401 785.004 627.249 795.058C628.395 801.287 630.892 807.422 632.961 813.393C631.467 796.442 632.564 775.156 636.806 758.725C637.825 764.233 637.401 770.046 637.226 775.621C637.43 785.912 637.112 796.261 636.939 806.555C636.839 812.475 635.869 819.793 637.237 825.466C638.28 829.791 640.671 833.754 641.951 838.023C644.798 847.519 659.326 904.152 657.845 911.116C657.548 912.511 656.84 913.866 655.485 914.496C654.326 915.037 652.891 915.153 651.69 914.691C650.039 914.058 649.405 912.536 648.877 910.992C647.227 906.166 646.646 900.74 645.649 895.739C643.497 884.946 641.339 873.911 638.339 863.321C626.167 820.359 607.445 778.312 602.079 733.694C599.731 714.175 598.567 693.033 602.717 673.718C606.687 655.236 612.146 642.481 612.942 622.668C613.364 612.181 612.566 601.447 612.093 590.959C611.426 576.147 610.845 561.139 609.218 546.396C606.207 519.099 601.212 492.825 604.684 465.179C606.749 448.74 612.002 432.789 617.35 417.172C620.751 407.237 623.737 396.751 628.131 387.23C625.971 377.33 624.496 366.984 623.381 356.911C618.898 316.402 627.628 265.253 653.653 233.041C674.934 206.699 707.45 193.263 740.442 189.712C746.74 184.772 754.01 180.608 760.724 176.235C779.672 163.894 798.692 152.407 819.538 143.492C825.341 141.011 831.339 139.079 837.228 136.824C846.76 133.173 846.782 129.511 850.684 121.02C851.984 118.189 852.711 117.104 855.69 115.982Z"/>
	<path transform="scale(0.25 0.25)" d="M665.09 309.265C665.98 309.384 666.761 309.605 667.622 309.851C667.903 310.21 668.295 310.505 668.464 310.927C668.985 312.231 665.133 333.037 664.797 336.442C661.553 369.262 661.315 403.383 668.181 435.8C670.885 428.26 670.629 414.299 673.56 409.002C674.916 412.078 673.495 425.483 673.556 430.001C676.427 426.852 679.252 423.71 681.896 420.363C681.321 414.288 682.09 408.399 683.713 402.547C684.88 407.11 684.84 412.143 685.08 416.838C688.994 412.857 690.375 409.707 691.919 404.429C692.331 403.02 692.865 402.374 694.137 401.703C694.716 402.611 693.826 404.268 694.163 405.519C704.771 397.738 719.839 364.471 725.285 361.312L726.821 362.344C726.651 366.227 723.291 371.427 721.473 374.852C713.623 389.64 704.419 403.005 693.364 415.592C684.701 425.455 675.479 434.602 667.101 444.721L659.459 453.536C656.718 468.897 650.636 483.615 646.961 498.821C646.048 502.595 645.052 513.421 642.9 515.813C642.812 515.676 642.692 515.554 642.635 515.401C638.81 505.187 651.262 464.637 654.807 452.744C653.066 448.501 652.74 443.142 652.035 438.598C648.818 417.874 645.763 394.054 649.854 373.289C650.606 381.645 650.422 390.052 651.176 398.412C652.562 413.774 655.843 430.865 659.374 445.922L662.887 441.041C661.783 430.519 659.232 420.158 658.265 409.624C656.177 386.892 655.721 329.531 665.09 309.265Z"/>
	<path transform="scale(0.25 0.25)" d="M472.049 109.877C472.648 109.851 473.25 109.826 473.85 109.848C476.5 109.945 477.884 111.817 478.581 114.15C480.659 121.098 481.447 127.487 486.39 133.262C492.016 139.834 501.064 144.061 508.194 148.796C517.476 154.959 526.618 161.258 536.022 167.248C553.921 178.65 575.19 190.841 589.922 206.219C591.668 208.042 592.972 209.497 592.91 212.091C592.03 213.717 590.598 214.523 589.11 215.558C586.945 214.952 584.923 213.905 583.052 212.667C575.329 207.561 568.523 200.986 560.832 195.711Q545.389 185.244 529.792 175.009C519.613 168.45 483.388 146.868 477.545 139.271C473.258 133.697 467.88 121.444 468.95 114.375C469.283 112.182 470.407 111.179 472.049 109.877Z"/>
	<path transform="scale(0.25 0.25)" d="M959.473 279.156C960.349 279.343 961.142 279.635 961.99 279.927C962.527 280.429 962.905 280.901 963.198 281.584C966.493 289.274 967.89 300.78 969.465 309.068C979.122 359.901 984.655 413.531 979.156 465.103C978.235 473.743 977.5 483.922 974.437 492.067C973.946 492.045 973.219 492.03 972.754 491.93C971.476 491.654 971.182 491.459 970.555 490.42C970.274 484.077 972.08 476.859 972.898 470.513Q974.904 455.622 975.595 440.613C977.575 403.263 973.47 365.723 967.473 328.89C965.814 318.695 963.814 308.649 961.654 298.551C960.566 293.468 958.691 287.74 958.352 282.603C958.25 281.047 958.757 280.455 959.473 279.156Z"/>
	<path transform="scale(0.25 0.25)" d="M402.761 279.238L404.53 279.619C405.074 280.013 405.52 280.39 405.849 280.992C409.254 287.231 412.795 310.518 414.03 318.51C418.107 344.877 421.943 371.427 423.015 398.115C423.69 414.906 423.068 432.025 421.949 448.78C421.025 462.62 419.805 477.544 415.431 490.769C415.253 490.705 415.075 490.644 414.899 490.577C413.467 490.031 412.672 489.851 412.031 488.46C412.575 478.116 415.511 467.757 416.47 457.358Q417.434 446.353 417.865 435.314Q418.296 424.275 418.193 413.228Q418.09 402.181 417.453 391.152Q416.816 380.123 415.646 369.138Q412.087 338.418 406.476 308.006C405.42 302.086 401.643 287.352 401.619 282.478C401.613 281.376 402.287 280.207 402.761 279.238Z"/>
	<path transform="scale(0.25 0.25)" d="M208.604 202.499C215.727 202.7 223.463 205.418 230.549 206.714Q249.067 210.074 267.85 211.251C278.274 211.938 288.804 212.304 299.247 211.83C310.533 211.317 322.402 209.594 333.63 210.909C340.658 211.732 347.137 214.004 353.1 217.829C360.042 222.281 379.578 240.62 380.344 248.526C380.487 250.011 379.541 250.607 378.636 251.595C374.742 249.67 371.271 243.848 368.524 240.49C361.403 231.784 353.226 223.582 342.678 219.216C326.907 212.69 309.859 217.343 293.407 217.45C270.307 217.599 233.695 215.37 211.991 207.453C210.069 206.752 208.656 206.229 207.776 204.316L208.604 202.499Z"/>
	<path transform="scale(0.25 0.25)" d="M766.348 203.032C774.888 203.522 783.565 205.996 792.021 207.366C804.21 209.34 816.613 210.432 828.92 211.402Q841.463 212.469 854.038 211.889C869.976 211.195 887.263 207.573 902.444 214.109C914.729 219.397 923.689 229.081 931.383 239.689C933.566 242.699 935.95 245.829 937.347 249.289C936.895 250.36 935.896 250.82 934.971 251.499C932.416 249.434 930.385 246.486 928.294 243.96C921.636 235.916 914.962 227.404 905.891 221.955Q903.722 220.681 901.425 219.653Q899.129 218.625 896.733 217.856Q894.337 217.087 891.872 216.587Q889.406 216.086 886.9 215.86C877.087 214.921 867.058 217.161 857.217 217.396C832.547 217.987 808.087 215.391 783.785 211.362C778.436 210.475 772.047 209.959 766.97 208.048C765.7 207.57 765.489 207.215 764.984 205.99C765.181 204.606 765.43 204.084 766.348 203.032Z"/>
	<path transform="scale(0.25 0.25)" d="M153.176 420.308C154.311 420.377 154.775 420.524 155.699 421.189C156.748 424.548 150.865 430.456 148.86 432.997C141.333 442.539 133.945 452.058 129.937 463.706C123.768 481.637 127.887 511.841 128.984 531.545C129.69 544.22 130.116 557.114 129.392 569.798C129.213 572.934 129.289 575.637 126.832 577.838C126.368 577.474 125.956 577.177 125.55 576.736C124.308 575.381 124.456 560.653 124.376 558.196C123.917 543.999 122.685 529.937 121.49 515.789C120.64 505.729 119.524 495.293 119.873 485.194C120.754 459.698 134.793 437.26 153.176 420.308Z"/>
	<path transform="scale(0.25 0.25)" d="M715.096 417.321L715.984 417.531C716.302 418.631 716.195 418.628 715.566 419.544C713.649 422.336 710.605 424.921 708.276 427.414C701.912 434.225 696.183 441.11 691.956 449.495C686.554 460.213 683.807 471.29 683.104 483.261C682.536 492.925 683.686 502.761 684.605 512.379C686.437 531.565 688.628 551.316 686.006 570.536C685.594 573.561 685.298 577.173 682.729 579.121C681.411 565.917 682.147 552.432 681.216 539.158C679.621 516.398 673.648 493.376 677.989 470.579C682.229 448.316 696.666 429.918 715.096 417.321Z"/>
	<path transform="scale(0.25 0.25)" d="M802.788 324.22L804.695 324.537C805.746 325.396 805.709 325.377 805.946 326.718C805.1 329.928 802.537 333.159 800.697 335.949C786.638 357.278 768.536 375.472 749.992 392.897Q763.442 385.404 776.193 376.774C780.992 373.577 785.786 369.41 790.965 366.925C792.722 366.082 794.098 365.604 795.967 366.271C795.947 366.476 795.933 366.682 795.908 366.887C795.574 369.639 791.705 372.215 789.673 373.864C781.837 380.337 754.812 398.639 745.627 400.885C744.064 401.268 742.946 401.288 741.544 400.499C741.482 400.264 741.374 400.037 741.358 399.795C740.885 392.637 776.922 358.096 783.639 349.981C790.483 341.714 796.339 332.779 802.788 324.22Z"/>
	<path transform="scale(0.25 0.25)" d="M412.465 525.652L414.202 526.513C416.443 529.314 424.564 560.297 425.745 566.306C431.888 597.559 426.657 622.339 421.831 653.001C421.033 658.076 421.162 666.761 418.331 670.989C417.124 670.779 416.356 670.631 415.294 669.972C413.101 666.095 419.069 635.778 419.965 629.648C423.388 606.223 424.948 582.22 418.65 559.095C416.558 551.414 410.924 536.77 410.617 529.255C410.554 527.715 411.538 526.766 412.465 525.652Z"/>
	<path transform="scale(0.25 0.25)" d="M972.269 524.712C972.636 524.76 973.186 524.822 973.531 524.909C974.519 525.156 974.904 525.359 975.408 526.261C977.78 530.507 977.785 537.579 978.939 542.447C988.694 583.579 987.222 605.021 980.28 645.657C978.94 653.495 978.318 661.577 976.514 669.312C976.177 669.383 975.815 669.474 975.469 669.475C974.181 669.479 973.961 669.284 973.064 668.464C970.932 662.929 977.788 630.283 978.79 621.723C979.813 612.985 980.52 604.154 980.376 595.352C980.19 583.949 979.477 572.743 977.432 561.512C975.529 551.059 972.673 540.521 971.553 529.962C971.335 527.904 971.424 526.616 972.269 524.712Z"/>
	<path transform="scale(0.25 0.25)" d="M529.509 201.059C529.76 201.16 530.024 201.233 530.262 201.363C531.312 201.936 531.957 202.781 532.305 203.866C532.154 204.285 532.114 204.492 531.78 204.863C524.77 212.674 472.447 218.008 459.382 220.39C447.408 222.574 437.399 228.488 430.556 238.703C427.728 242.923 425.494 247.505 422.584 251.677L422.231 252.174C421.958 252.091 421.673 252.038 421.41 251.925C420.772 251.653 420.092 251.31 419.878 250.621C419.017 247.855 421.798 243.06 423.106 240.623C437.568 213.677 458.294 215.352 485.134 211.023C500.379 208.564 514.731 205.548 529.509 201.059Z"/>
	<path transform="scale(0.25 0.25)" d="M810.29 499.243C814.27 500.082 824.667 509.647 829.304 512.24C840.205 518.336 851.787 521.123 863.951 523.312C863.412 521.237 862.851 519.154 862.405 517.057C862.063 515.445 862.056 514.352 862.987 512.92C864.225 512.46 864.346 512.483 865.636 512.795C867.038 514.201 870.095 523.609 872.94 527.406C875.719 531.113 879.256 534.434 882.379 537.864C890.61 546.904 897.795 556.338 903.033 567.445C904.592 571.186 905.395 574.984 906.05 578.966C902.555 573.934 900.047 568.244 896.609 563.136C888.052 550.425 877.146 539.881 865.896 529.597C858.341 528.933 851.069 527.332 843.849 525.038C835.447 522.37 813.91 510.791 810.303 502.721C809.662 501.286 809.799 500.692 810.29 499.243Z"/>
	<path transform="scale(0.25 0.25)" d="M259.237 505.24C259.321 505.254 259.405 505.269 259.489 505.282C264.206 505.991 269.307 511.522 273.638 513.927C280.572 517.777 288.74 520.737 296.579 522.002C299.135 522.415 302.663 522.681 304.795 520.861C306.585 519.333 307.002 517.493 307.265 515.236C307.41 513.991 307.558 512.893 307.905 511.69C309.115 511.504 309.436 511.69 310.418 512.477C311.766 513.557 312.377 515.132 312.422 516.819C312.522 520.481 311.055 523.609 308.649 526.246C324.249 534.776 338.459 549.948 346.388 565.809C347.385 567.88 349.444 571.107 349.147 573.413C349.036 574.281 349.03 574.054 348.302 574.619C345.661 573.359 339.255 561.491 336.624 558.16C328.283 547.597 316.11 534.678 303.636 529.098C301.079 527.954 297.797 528.128 295.048 527.648C291.828 527.085 288.588 525.966 285.468 524.976C278.406 522.734 261.721 515.686 258.217 508.928C258.132 507.139 258.423 506.778 259.237 505.24Z"/>
	<path transform="scale(0.25 0.25)" d="M850.141 536.624C851.236 536.774 851.999 536.936 852.98 537.452C855.309 540.206 856.567 549.676 857.621 553.475C870.074 565.376 883.8 579.093 886.69 596.958L886.337 597.199C882.016 593.079 878.867 586.151 875.411 581.167C871.43 575.424 866.781 570.306 861.958 565.275C859.937 563.469 857.826 561.321 855.444 560.015C848.014 555.94 837.08 558.267 826.857 553.951C819.653 550.91 811.739 546.335 808.639 538.68L809.134 537.708C812.661 538.325 815.654 541.129 818.391 543.281C827.499 550.438 840.141 551.123 851.234 551.566C850.337 546.474 849.585 541.792 850.141 536.624Z"/>
	<path transform="scale(0.25 0.25)" d="M843.724 563.747L844.917 564.569C847.475 569.037 843.259 580.38 842.123 585.218C852.822 597.242 863.685 608.645 870.099 623.684C871.79 627.649 875.952 635.747 874.267 639.903C871.858 638.883 861.772 618.8 859.325 614.891C852.674 604.882 845.237 596.354 836.332 588.304C827.78 587.575 818.9 585.934 811.996 580.407C810.311 579.058 808.42 576.7 808.355 574.438C808.332 573.662 808.69 573.584 809.198 573.091C813.293 572.598 816.892 577.404 820.602 578.864C825.823 580.919 831.298 581.832 836.802 582.734C838.776 576.477 840.486 569.446 843.724 563.747Z"/>
	<path transform="scale(0.25 0.25)" d="M644.426 538.816C645.706 538.828 646.374 538.814 647.448 539.546C647.826 540.279 648.109 540.899 648.226 541.724C649.502 550.733 640.998 585.353 639.121 595.621C636.578 609.525 634.893 624.006 631.579 637.718C631.166 639.424 630.715 640.48 629.611 641.846C629.471 641.802 629.328 641.765 629.19 641.714C627.648 641.142 627.082 640.634 626.368 639.225C626.436 632.769 628.376 625.7 629.346 619.255C632.398 598.982 635.886 578.98 640.104 558.917C641.496 552.293 642.261 545.204 644.426 538.816Z"/>
	<path transform="scale(0.25 0.25)" d="M295.318 536.73C296.203 536.959 297.043 537.167 297.817 537.685C299.179 538.596 299.854 540.041 300.084 541.614C300.777 546.343 297.804 551.169 295.058 554.769C301.991 559.488 308.375 563.762 314.145 569.923C318.834 574.931 329.759 587.915 329.517 594.763L328.928 595.256C325.747 594.092 322.037 586.016 319.854 583.128C316.175 578.264 311.278 573.948 306.681 569.977C301.325 565.742 294.529 559.146 287.771 557.665C281.922 556.383 276.209 556.15 270.438 554.208C265.67 552.604 256.642 549.094 254.528 544.258C253.964 542.967 253.878 541.847 254.444 540.577C258.184 539.405 266.651 547.358 270.668 548.577C275.488 550.039 280.215 551.574 285.301 551.667C287.656 551.711 290.17 551.361 291.842 549.53C294.131 547.025 294.028 543.151 293.886 540.008C293.804 538.174 294.126 538.011 295.318 536.73Z"/>
	<path transform="scale(0.25 0.25)" d="M286.778 568.711C286.996 568.741 287.215 568.761 287.431 568.801C288.902 569.073 289.915 569.575 290.687 570.914C291.71 572.687 291.551 574.966 290.948 576.85C289.531 581.281 287.134 583.868 283.141 586.062C296.131 596.81 307.183 610.019 314.511 625.271C315.814 627.983 319.169 634.234 318.15 637.163L317.264 637.377C313.656 635.815 308.169 623.635 305.642 619.697C298.296 609.111 290.636 597.746 279.888 590.307C273.646 585.986 260.438 582.211 257.394 575.127C257.478 573.961 257.255 574.04 258.165 573.17C262.865 573.282 272.556 579.558 277.337 581.886C278.647 581.483 280.03 581.107 281.289 580.563C286.919 578.133 284.539 573.598 286.579 569.124C286.642 568.985 286.712 568.848 286.778 568.711Z"/>
	<path transform="scale(0.25 0.25)" d="M692.526 585.28C693.443 586.131 693.676 586.689 693.859 587.94C694.745 593.979 694.725 600.314 695.335 606.41C696.429 617.326 698.124 628.109 699.591 638.971C700.274 632.536 700.434 605.93 703.555 601.714L704.557 601.575C704.655 601.672 704.769 601.755 704.852 601.866C706.295 603.795 705.371 619.389 705.348 622.551C704.619 634.262 705.614 639.362 702.251 651.29C701.714 653.194 701.35 655.632 700.046 657.158L699.143 657.009C698.733 656.573 698.373 656.182 698.068 655.662C690.262 642.323 689.099 600.556 692.526 585.28Z"/>
	<path transform="scale(0.25 0.25)" d="M246.543 323.153C247.182 323.394 247.829 323.791 248.437 324.108C249.095 325.166 249.311 325.394 249.074 326.696C247.471 335.484 191.738 398.913 182.325 406.002C181.363 405.771 180.792 405.583 180.011 404.968L179.961 403.833C181.382 401.113 188.631 394.071 191.164 391.052L232.303 341.897C236.374 337.064 241.977 326.611 246.543 323.153Z"/>
	<path transform="scale(0.25 0.25)" d="M87.4714 536.774C88.1753 537.084 88.5478 537.374 89.1294 537.861C91.7846 549.613 83.0721 584.882 81.1008 598.621C79.3535 610.799 78.7023 623.593 76.3205 635.603C75.8817 637.815 75.6567 638.453 73.7618 639.731C73.1418 639.172 72.0922 638.352 71.7584 637.55C69.5208 632.172 84.4608 544.096 87.4714 536.774Z"/>
	<path transform="scale(0.25 0.25)" d="M792.067 235.296C793.71 235.427 794.311 235.322 795.664 236.318C796.002 237.007 796.298 237.653 796.37 238.431C796.697 241.984 795.159 246.806 794.458 250.361C789.273 276.692 776.645 298.983 760.418 319.971L759.19 320.461L758.019 319.869C757.139 316.35 765.718 304.619 767.869 301.08C776.446 286.966 783.502 272.884 787.624 256.762C789.439 249.665 790.481 242.436 792.067 235.296Z"/>
	<path transform="scale(0.25 0.25)" d="M840.38 450.544C842.59 450.392 844.82 450.371 846.982 450.912C853.143 452.453 859.399 456.732 862.617 462.221C863.605 463.908 864.326 465.898 863.673 467.851C862.785 470.502 860.894 471.792 858.502 473.011C857.42 472.999 856.34 472.986 855.269 472.805C848.563 471.667 840.058 467.356 836.418 461.505C835.357 459.8 834.758 457.958 835.314 455.966C836.041 453.362 838.139 451.803 840.38 450.544Z"/>
	<path fill="#FEFEFE" transform="scale(0.25 0.25)" d="M840.871 456.068C842.096 456.031 843.324 456.013 844.542 456.181C848.741 456.764 854.066 459.08 856.541 462.675C857.671 464.318 857.966 465.592 857.551 467.558C857.013 467.543 856.472 467.54 855.935 467.491C851.385 467.077 845.043 463.655 842.191 460.183C841.114 458.872 840.735 457.789 840.871 456.068Z"/>
	<path transform="scale(0.25 0.25)" d="M236.431 236.632L238.016 237.165C239.294 238.453 239.602 239.599 239.681 241.355C240.58 261.373 215.125 306.488 201.621 321.714C201.494 321.731 201.367 321.78 201.24 321.765C200.055 321.631 199.949 321.194 199.369 320.269C199.354 318.062 210.16 302.429 212.27 298.773C220.073 285.248 227.037 270.903 231.604 255.948C233.455 249.885 233.633 242.158 236.431 236.632Z"/>
	<path transform="scale(0.25 0.25)" d="M280.609 448.601Q281.234 448.554 281.86 448.532C287.613 448.347 293.282 451.482 297.377 455.319C300.804 458.53 304.809 463.533 304.823 468.394C304.829 470.638 304.027 471.812 302.484 473.354C302.351 473.371 302.219 473.392 302.086 473.404C296.276 473.926 289.35 471.331 284.972 467.63C281.865 465.005 278.437 460.49 278.185 456.277C277.999 453.193 278.501 450.87 280.609 448.601Z"/>
	<path fill="#FEFEFE" transform="scale(0.25 0.25)" d="M283.327 453.788C285.176 454.203 286.877 454.833 288.531 455.766C293.909 458.801 296.728 462.691 298.329 468.571C295.385 467.793 292.502 466.705 290.02 464.906C286.212 462.145 283.976 458.432 283.327 453.788Z"/>
	<path transform="scale(0.25 0.25)" d="M761.635 341.345C762.284 341.714 762.743 342.156 763.293 342.656C763.862 344.355 763.674 345.859 763.261 347.574C757.447 371.68 737.372 398.513 716.205 411.36C715.381 410.882 715.09 410.499 714.507 409.768C714.53 408.404 714.69 407.892 715.635 406.876C718.573 403.716 722.467 401.102 725.675 398.182C732.134 392.302 738.491 385.333 743.554 378.175C747.93 371.988 751.841 365.094 754.74 358.088C756.947 352.751 758.293 345.97 761.635 341.345Z"/>
	<path transform="scale(0.25 0.25)" d="M821.958 717.376C824.413 719.393 825.646 723.293 827.917 725.694C841.981 740.563 857.545 753.548 869.77 770.183C871.678 772.78 874.177 775.659 873.646 779.023L871.764 778.971C870.517 778.38 869.729 777.72 868.748 776.743C862.749 770.765 857.418 763.911 851.72 757.627C845.394 750.649 838.629 744.066 832.593 736.831C828.963 732.481 824.884 727.839 822.362 722.755C821.326 720.667 821.244 719.594 821.958 717.376Z"/>
	<path transform="scale(0.25 0.25)" d="M825.769 616.188C826.369 616.304 826.97 616.398 827.544 616.615C829.949 617.524 832.347 619.941 834.316 621.585C841.958 627.964 848.83 633.97 852.845 643.312C855.844 650.288 861.78 673.791 858.952 680.815L857.344 680.369C855.475 678.273 851.593 652.39 847.676 644.756C843.387 636.4 826.777 623.527 825.434 619.835C824.878 618.309 825.304 617.628 825.769 616.188Z"/>
	<path transform="scale(0.25 0.25)" d="M268.597 724.566C268.826 724.599 269.06 724.612 269.285 724.664C275.616 726.133 309.718 765.763 314.299 773.534C315.59 775.725 316.028 776.638 315.409 779.149C314.724 779.082 313.936 779.042 313.262 778.863C311.091 778.284 304.588 768.956 302.669 766.595Q296.544 759.207 289.949 752.237C285.161 747.182 270.315 733.334 267.864 728.356C267.33 727.271 268.244 725.62 268.597 724.566Z"/>
	<path transform="scale(0.25 0.25)" d="M443.765 479.259C448.404 480.333 453.162 485.851 457.233 488.532Q459.907 490.281 462.757 491.724Q465.607 493.168 468.599 494.289C479.776 498.504 491.384 498.624 502.987 500.553C503.957 500.715 504.381 500.845 505.136 501.459C505.718 503.019 505.473 503.745 505.241 505.368C495.517 506.238 484.002 504.326 474.614 502.01C464.413 499.493 450.227 494.102 444.612 484.599C443.393 482.537 443.148 481.597 443.765 479.259Z"/>
	<path transform="scale(0.25 0.25)" d="M655.035 795.774C655.433 796.102 655.754 796.433 655.893 796.961C657.311 802.35 657.064 877.083 655.388 880.697L654.13 880.8C654.061 880.607 653.989 880.415 653.924 880.222L653.604 879.25C649.572 867.258 651.627 808.834 655.035 795.774Z"/>
	<path transform="scale(0.25 0.25)" d="M167.381 219.422C168.567 219.472 168.978 219.659 169.913 220.384C170.316 222.658 169.048 223.601 167.446 225.064C164.233 228 160.536 230.419 157.351 233.384C145.378 244.532 137.826 258.961 132.584 274.241C132.467 274.244 132.349 274.271 132.234 274.25C131.665 274.145 131.129 274.02 130.861 273.478C129.869 271.47 130.904 267.39 131.51 265.272C136.939 246.304 149.957 228.905 167.381 219.422Z"/>
	<path transform="scale(0.25 0.25)" d="M205.326 346.159L206.724 346.603C207.488 347.649 207.568 348.07 207.334 349.364C206.689 352.927 204.943 356.501 203.485 359.787C195.281 378.273 181.832 396.522 164.77 407.793C164.557 407.707 164.327 407.652 164.13 407.533C163.002 406.853 162.761 406.437 162.39 405.262C164.701 401.736 170.012 398.419 173.213 395.469Q176.699 392.266 179.855 388.737Q183.01 385.208 185.805 381.386Q191.641 373.253 196.046 364.263C198.898 358.346 201.179 351.265 205.326 346.159Z"/>
	<path transform="scale(0.25 0.25)" d="M273.233 621.756C277.645 623.226 281.79 626.843 285.229 629.894C295.952 639.404 299.877 648.542 301.627 662.671C302.002 665.699 302.6 668.848 302.699 671.892C302.761 673.785 302.21 674.453 300.959 675.822C300.059 675.214 299.164 674.627 298.554 673.704C296.176 670.107 295.595 652.214 290.541 643.475C286.005 635.631 276.19 631.55 272.098 624.925C271.977 623.263 272.324 623.093 273.233 621.756Z"/>
	<path transform="scale(0.25 0.25)" d="M720.625 221.375C722.125 221.555 722.407 221.521 723.551 222.471C723.939 226.677 717.486 231.279 714.841 234.06C702.514 247.021 698.106 257.924 690.324 273.329C689.523 273.426 689.295 273.218 688.568 272.914C688.029 271.786 687.942 271.335 688.06 270.045C688.382 266.529 689.918 262.794 691.263 259.557C697.629 244.24 708.127 232.054 720.625 221.375Z"/>
	<path transform="scale(0.25 0.25)" d="M97.4671 801.512C98.5395 801.701 99.0901 801.775 99.8759 802.557C100.386 809.586 99.8606 816.754 99.8728 823.805C99.8899 833.671 100.38 843.583 100.819 853.439C101.03 858.171 102.487 876.613 101.709 879.936C101.63 880.274 101.266 880.47 101.045 880.737C93.2924 865.668 96.6485 819.872 97.4671 801.512Z"/>
	<path transform="scale(0.25 0.25)" d="M105.477 834.668C106.21 834.824 106.86 835.057 107.563 835.31C109.168 840.803 111.244 899.816 110.395 906.529C109.425 906.662 109.029 906.632 108.148 906.199C104.658 899.281 105.027 845.715 105.477 834.668Z"/>
	<path transform="scale(0.25 0.25)" d="M234.617 363.81C235.358 363.999 236.023 364.277 236.731 364.563C237.319 365.579 237.477 365.803 237.129 367.025C235.205 373.777 203.738 396.021 196.778 400.046L195.626 400.558L194.574 399.937L194.599 399.04C195.108 398.002 195.64 397.344 196.492 396.548C202.386 391.043 208.988 386.085 215.2 380.93Q225.132 372.624 234.617 363.81Z"/>
	<path transform="scale(0.25 0.25)" d="M662.575 830.773L663.598 831.97C665.238 838.559 667.517 900.1 665.462 903.987C660.216 897.156 661.569 841.981 662.575 830.773Z"/>
	<path transform="scale(0.25 0.25)" d="M644.671 769.878L645.286 770.561C646.256 777.968 645.983 833.723 644.689 839.113L643.283 839.813C639.698 832.046 642.13 778.863 644.671 769.878Z"/>
	<path transform="scale(0.25 0.25)" d="M89.0756 781.851L89.8418 782.304C90.8707 784.69 90.0232 797.002 90.0237 800.464C90.0257 812.286 89.9454 824.123 90.1229 835.943C90.1889 840.336 91.3584 845.757 90.3916 850.019C90.162 851.031 90.0653 850.856 89.2604 851.378C88.4337 845.854 87.5456 840.313 87.1034 834.743C86.1766 823.07 85.163 791.93 89.0756 781.851Z"/>
	<path transform="scale(0.25 0.25)" d="M618.625 505.205C621.469 507.735 622.471 519.149 624.397 523.433C626.276 527.611 631.287 529.441 633.319 533.106C634.041 534.407 633.606 534.885 633.124 536.172C631.636 536.269 630.179 536.399 628.738 535.919C624.694 534.575 621.861 530.815 620.171 527.076C617.41 520.964 616.122 511.564 618.625 505.205Z"/>
	<path transform="scale(0.25 0.25)" d="M989.698 225.733C989.812 225.773 989.93 225.8 990.038 225.853C991.371 226.507 991.409 226.642 991.925 227.982C991.627 233.295 983.063 246.644 980.194 251.903L978.801 251.319C978.379 250.632 978.142 250.448 978.124 249.606C978.001 243.984 985.935 229.88 989.698 225.733Z"/>
	<path transform="scale(0.25 0.25)" d="M64.0246 715.745C64.1648 715.849 64.3298 715.927 64.445 716.058C65.6077 717.382 64.7124 723.302 64.6321 725.276C64.3486 732.239 64.2843 739.363 64.5845 746.326C64.7664 750.545 65.8631 755.56 65.3565 759.689C65.2324 760.701 65.0081 760.597 64.253 761.194C60.848 751.619 60.8282 738.744 62.0533 728.822C62.596 724.427 63.6072 720.175 64.0246 715.745Z"/>
	<path transform="scale(0.25 0.25)" d="M827.794 589.37C829.635 591.076 830.183 595.568 830.696 598.035C830.999 599.491 831.155 600.693 830.293 601.996C827.607 603.423 820.229 600.222 817.101 599.5C815.761 598.803 814.896 598.236 814.283 596.821C814.677 595.685 814.713 595.913 815.704 595.391C819.427 595.937 823.215 597.893 826.794 599.126C826.302 595.225 825.776 592.981 827.794 589.37Z"/>
	<path transform="scale(0.25 0.25)" d="M60.1122 502.807C61.0197 503.838 61.1025 504.302 61.407 505.653C62.4798 510.412 62.4386 515.51 63.3204 520.336C64.3672 526.064 66.3373 531.55 67.2519 537.323C66.9133 537.132 66.4612 536.903 66.169 536.636C65.1341 535.688 64.4879 534.012 63.8956 532.741C59.4431 523.19 59.8004 513.094 60.1122 502.807Z"/>
	<path transform="scale(0.25 0.25)" d="M67.1102 509.286C67.8089 510.609 67.9135 512.274 68.1521 513.743C69.7063 523.307 71.8202 532.239 74.1431 541.633C73.2995 541.407 72.722 541.11 71.9588 540.7C66.0228 532.89 66.9038 518.612 67.1102 509.286Z"/>
	<path transform="scale(0.25 0.25)" d="M72.585 515.918C74.6773 519.894 75.0452 525.557 76.1768 529.944C77.7672 536.109 79.7874 542.055 81.0585 548.314C80.5835 548.129 80.2769 548.04 79.8451 547.708C74.2993 543.437 73.0255 523.041 72.585 515.918Z"/>
	<path transform="scale(0.25 0.25)" d="M93.9283 395.764L94.6779 396.411C95.7336 400.177 97.1682 416.833 95.7916 419.906C95.2239 419.42 95.1172 419.389 94.6635 418.668C92.2735 414.872 92.9214 400.014 93.9283 395.764Z"/>
	<path transform="scale(0.25 0.25)" d="M267.504 594.299C268.102 594.267 268.612 594.219 269.219 594.289C271.055 594.501 273.153 595.676 274.327 597.084C275.911 598.984 276.024 600.382 275.875 602.802C274.395 602.909 273.256 602.934 271.977 602.06C269.399 600.298 268.11 597.255 267.504 594.299Z"/>
</svg>
